<svg xmlns="http://www.w3.org/2000/svg" viewBox="0 0 1200 26" width="1200" height="26" preserveAspectRatio="none"><path d="M0 0 H1200 V14.9 L1200.0 14.9 L1190.0 3.9 L1180.0 9.9 L1170.0 8.1 L1160.0 13.5 L1150.0 13.9 L1140.0 19.0 L1130.0 16.4 L1120.0 20.2 L1110.0 18.6 L1100.0 18.8 L1090.0 19.8 L1080.0 18.4 L1070.0 12.8 L1060.0 16.7 L1050.0 15.4 L1040.0 15.6 L1030.0 18.5 L1020.0 15.4 L1010.0 18.2 L1000.0 18.4 L990.0 16.1 L980.0 12.2 L970.0 12.6 L960.0 9.7 L950.0 5.0 L940.0 5.2 L930.0 5.3 L920.0 5.4 L910.0 5.2 L900.0 6.4 L890.0 9.6 L880.0 11.9 L870.0 9.0 L860.0 8.5 L850.0 9.4 L840.0 10.5 L830.0 8.2 L820.0 8.0 L810.0 7.6 L800.0 13.3 L790.0 15.2 L780.0 13.7 L770.0 18.2 L760.0 17.6 L750.0 18.3 L740.0 22.3 L730.0 18.7 L720.0 20.2 L710.0 16.6 L700.0 14.0 L690.0 12.0 L680.0 13.8 L670.0 10.6 L660.0 13.2 L650.0 11.9 L640.0 12.8 L630.0 15.4 L620.0 12.3 L610.0 8.1 L600.0 7.0 L590.0 6.9 L580.0 2.2 L570.0 4.2 L560.0 5.9 L550.0 5.4 L540.0 2.4 L530.0 7.5 L520.0 7.2 L510.0 13.4 L500.0 15.3 L490.0 11.2 L480.0 11.9 L470.0 13.8 L460.0 11.6 L450.0 15.2 L440.0 12.9 L430.0 15.3 L420.0 11.3 L410.0 18.7 L400.0 14.7 L390.0 18.4 L380.0 17.7 L370.0 20.5 L360.0 18.8 L350.0 18.8 L340.0 16.6 L330.0 11.6 L320.0 13.0 L310.0 8.2 L300.0 6.7 L290.0 6.8 L280.0 10.0 L270.0 8.6 L260.0 10.5 L250.0 7.0 L240.0 11.6 L230.0 8.6 L220.0 5.1 L210.0 3.8 L200.0 5.8 L190.0 4.2 L180.0 6.2 L170.0 6.1 L160.0 9.5 L150.0 12.4 L140.0 10.2 L130.0 14.7 L120.0 17.7 L110.0 20.7 L100.0 19.6 L90.0 16.4 L80.0 15.0 L70.0 12.5 L60.0 16.2 L50.0 11.4 L40.0 13.9 L30.0 16.6 L20.0 18.5 L10.0 14.7 L0.0 14.9 Z" fill="#000"/></svg>