<svg xmlns="http://www.w3.org/2000/svg" viewBox="0 0 1200 20" width="1200" height="20" preserveAspectRatio="none"><path d="M0 0 H1200 V10.6 L1200.0 10.6 L1187.5 6.5 L1175.0 7.5 L1162.5 8.3 L1150.0 8.9 L1137.5 9.4 L1125.0 10.2 L1112.5 11.5 L1100.0 12.5 L1087.5 11.5 L1075.0 11.4 L1062.5 11.6 L1050.0 11.8 L1037.5 10.7 L1025.0 10.2 L1012.5 9.4 L1000.0 10.7 L987.5 10.5 L975.0 9.3 L962.5 10.3 L950.0 9.7 L937.5 9.7 L925.0 11.0 L912.5 9.9 L900.0 10.5 L887.5 9.3 L875.0 8.2 L862.5 7.2 L850.0 7.3 L837.5 5.7 L825.0 6.0 L812.5 5.2 L800.0 5.5 L787.5 6.7 L775.0 6.4 L762.5 6.0 L750.0 6.9 L737.5 8.1 L725.0 7.5 L712.5 8.9 L700.0 9.8 L687.5 9.5 L675.0 7.9 L662.5 8.9 L650.0 8.1 L637.5 9.7 L625.0 10.1 L612.5 8.9 L600.0 9.7 L587.5 11.1 L575.0 11.2 L562.5 13.1 L550.0 12.7 L537.5 13.4 L525.0 11.4 L512.5 12.9 L500.0 10.3 L487.5 10.3 L475.0 9.0 L462.5 9.1 L450.0 8.2 L437.5 8.4 L425.0 8.2 L412.5 7.3 L400.0 8.6 L387.5 7.7 L375.0 7.6 L362.5 7.7 L350.0 8.5 L337.5 7.5 L325.0 7.4 L312.5 5.6 L300.0 6.8 L287.5 5.7 L275.0 4.7 L262.5 4.8 L250.0 6.2 L237.5 6.5 L225.0 7.9 L212.5 8.4 L200.0 9.9 L187.5 10.9 L175.0 9.9 L162.5 11.1 L150.0 11.7 L137.5 12.4 L125.0 11.8 L112.5 10.6 L100.0 10.2 L87.5 9.5 L75.0 10.9 L62.5 9.5 L50.0 10.4 L37.5 11.3 L25.0 11.9 L12.5 10.6 L0.0 10.6 Z" fill="#000"/></svg>