<svg xmlns="http://www.w3.org/2000/svg" viewBox="0 0 1200 8" width="1200" height="8" preserveAspectRatio="none"><path d="M0 0 H1200 V4.4 L1200.0 4.4 L1187.5 3.8 L1175.0 3.9 L1162.5 4.0 L1150.0 3.9 L1137.5 3.8 L1125.0 3.7 L1112.5 3.9 L1100.0 4.0 L1087.5 3.3 L1075.0 3.0 L1062.5 3.0 L1050.0 3.0 L1037.5 2.7 L1025.0 2.7 L1012.5 2.7 L1000.0 3.6 L987.5 3.9 L975.0 3.7 L962.5 4.4 L950.0 4.3 L937.5 4.4 L925.0 5.0 L912.5 4.6 L900.0 4.9 L887.5 4.6 L875.0 4.4 L862.5 4.3 L850.0 4.8 L837.5 4.5 L825.0 4.9 L812.5 4.8 L800.0 4.8 L787.5 5.1 L775.0 4.6 L762.5 3.9 L750.0 3.6 L737.5 3.5 L725.0 2.8 L712.5 3.1 L700.0 3.3 L687.5 3.2 L675.0 2.7 L662.5 3.3 L650.0 3.2 L637.5 3.9 L625.0 4.0 L612.5 3.4 L600.0 3.4 L587.5 3.7 L575.0 3.4 L562.5 4.0 L550.0 3.7 L537.5 4.2 L525.0 3.7 L512.5 4.9 L500.0 4.4 L487.5 4.9 L475.0 4.9 L462.5 5.3 L450.0 5.1 L437.5 5.1 L425.0 4.8 L412.5 4.2 L400.0 4.4 L387.5 3.8 L375.0 3.6 L362.5 3.6 L350.0 4.0 L337.5 3.8 L325.0 4.0 L312.5 3.4 L300.0 4.0 L287.5 3.5 L275.0 3.0 L262.5 2.7 L250.0 3.0 L237.5 2.8 L225.0 3.1 L212.5 3.1 L200.0 3.5 L187.5 3.9 L175.0 3.6 L162.5 4.2 L150.0 4.7 L137.5 5.1 L125.0 5.0 L112.5 4.6 L100.0 4.4 L87.5 4.1 L75.0 4.6 L62.5 4.0 L50.0 4.3 L37.5 4.7 L25.0 4.9 L12.5 4.4 L0.0 4.4 Z" fill="#000"/></svg>