<?xml version="1.0" encoding="UTF-8"?>
<svg xmlns="http://www.w3.org/2000/svg" viewBox="0 0 113.79 145">
  <!-- Heaume (logo du site), en favicon. Remplissage adaptatif : sombre sur un
       onglet clair, clair sur un onglet sombre, pour rester visible partout. -->
  <style>
    .fav { fill: #272525; }
    @media (prefers-color-scheme: dark) { .fav { fill: #FAF9F5; } }
  </style>
  <polygon class="fav" points="109.45 35.89 102.77 23.18 97.4 16.44 89.25 17.91 85.98 15.53 85.87 8.39 71.56 2.21 64.02 .38 48.44 0 41.3 1.6 35 5.49 26.76 17.62 23.06 31.76 22.83 39.09 25.28 48.1 44.82 58.54 58.3 56.18 63.28 51.26 67.84 38.66 63.59 33.65 57.31 31.49 48.93 31.09 46.36 35.91 49.35 41.8 43.46 43.33 40.51 37.96 45.51 25.64 52.48 22.69 59.28 24.33 65.28 27.76 76.86 38.93 74.61 46.05 66.47 58.39 59.15 63.65 52.09 65.58 37.48 63.9 23.24 57.21 19.7 49.8 15.8 20.73 10.08 25.19 5.47 31.27 1.68 39.27 0 47.93 6.6 123.04 9.08 130.19 12.78 136.4 26.83 141.95 28.7 135.57 26.04 106.6 22.96 101.78 17.41 97.04 13.51 90.75 14.39 83.4 19.82 73.23 24.65 73.74 29.15 77.44 34.46 84.89 35.94 92.43 35.13 100.1 36.22 107.71 40.36 114.04 47.25 117.44 52.57 110.88 54.88 103.81 54.7 96.19 56.1 88.66 60.05 82.1 70.92 73.18 77.22 72.83 81.33 78.16 84.22 85.78 83.56 93.57 77.79 99 71.08 103.46 66.57 108.7 63.96 137.03 65.64 143.93 72.16 145 99.13 130.89 102.22 123.23 113.79 56.99 109.45 35.89"/>
</svg>
