<?xml version="1.0" encoding="UTF-8"?>
<svg id="Calque_1" xmlns="http://www.w3.org/2000/svg" version="1.1" viewBox="0 0 563 774.89">
  <!-- Generator: Adobe Illustrator 30.6.0, SVG Export Plug-In . SVG Version: 2.1.4 Build 109)  -->
  <defs>
    <style>
      .st0 {
        fill: #fff;
      }
    </style>
  </defs>
  <path class="st0" d="M-166-249.5h900M209.96,18.01c6.45-1.82,13.29-6.26,10.95-13.66-1.95-6.18-16.78,1.78-24.48,9.52,2.74,6.2,8.14,5.66,13.53,4.13ZM101.86,57.31c8.55-7.84,17.1-15.59,26.81-22.08s20.72-9.38,31.64-12.35c3.05-.83,5.97-.73,9.62,1.27-11.81,7.25-20.08,16.48-23.76,29.72,4.13,1.58,6.91.5,11.18-.01,3.13-.37,8.55,1.68,11.56-.38,7.57-5.16,14.68-9.3,22.74-13.39,22.17-11.24,65.68-27.96,88.29-27.15l28.22,1c-4.79,7.16-10.31,12.32-18.06,15.76-25.43,11.29-49.46,24.4-72.23,40.6l-14.08,10.02-15.43,10.54c-6.32,4.32-12.39,8.71-17.83,14.17-8.5,8.52-16.94,16.08-26.35,23.65-1.79,1.44-4.08,4.48-4.06,6.33.03,5.79,7.77,7.25,3.18,13.79-4.09,5.82-8.35,11.72-14.43,15.53l-23.38,14.68c-6.12,3.84-8.04,11.65-11.63,17.36-3.85,6.12-10.21,9.59-15.89,14.6,1.08,1.47,3.72,1.44,5.47.06,5.15-4.07,10.73-7.43,13.86-13.23s5.14-12.65,10.76-16.14c10.02-6.22,19.9-11.59,29.08-19.07,3.3-2.69,5.69-7.37,8.27-10.6,7.6-9.56-3.18-13.5-1.88-16.53,2.18-5.08,15.6-13.42,24.91-23.41,8.38-8.99,17.87-15.3,27.88-22.28l18.84-13.15c22.58-17.2,46.74-30.8,72.81-42.06,9.55-4.13,17.98-9.99,23.07-19.21.62-1.61-3.28-4.84-4.98-4.92l-15.28-.7c-31.49-1.44-59.37,9.74-87.87,21.69l-9.05,4.85c-7.69,4.12-15.9,7.07-22.97,12.07-9.06,6.4-11.29.27-21.02,3.22,4.25-9.98,10.93-17.57,20.2-23.08,1.4-.83,3.07-3.77,2.66-5.17-3.07-10.42-38.79,2.69-48.8,10.96l-15.95,13.2-15.06,13.07c-10,8.68-21.46,11.57-28.29,21.73s-11.71,20.12-12.23,32.48c-.15,3.49-2.55,7.62-6.56,7.86-3.2-6.94,4.17-12.97,2.53-18.26-2.22-2.27-7.94-1.73-10.03.61-5.27,5.9-9.72,12.76-12.4,20.42-1.81,5.2-1.96,11.31-2.46,16.93-.81,9.17.44,18.52,3.5,27.25,1.94,5.55,6.64,9.34,11.33,12.8l1.09,10.79c4.05,6.05,8.84,13.71,17.67,14.66l-13.8-13.73-2.36-13.38c-14.49-8.31-15.97-24.58-14.17-41.21.55-5.1.53-10.92,2.68-15.51,3.71-7.92,10.56-20,16.4-18.68l-4.02,13.23c-1.01,3.34,2.68,8.1,6,7.02,1.88-.61,5.13-3.35,6.4-4.88,1.55-6.25,1.93-12.95,4.15-18.95,3.36-9.05,8.25-18.88,15.87-24.75,6.4-4.93,16.11-9.08,27.63-19.64ZM115.49,660.42l14.98-20.63c1.31.75,3.2,1.44,3.96,1.34.33-6.6,2.47-13.58,8.79-16.24,3.68-1.55,7.92-3.56,10.64-6.46l.32-11.79c6.5-4.67,11-10.51,14.33-17.69l4.18-9.01,7.37-4.16,2.98-9.87c4.3-.61,6.69-2.2,9.48-4.9l7.59-7.35,15.12-15.34c-1.74,20.54-1.35,37.83,1.04,56.62l.73,19.48c2.26.5,3.69-1.56,4.29-3.69l4.77-17.17,5.04-6.08,4.19,7.66c.36.39,2-.45,1.95-1.08l-.23-2.54-.22-2.49c-.04-.39,1.34-.71,1.58-.39l1.24,1.64c.29.38,1.04,1.12,1.36.78l1.82-1.93,1.98,17.59,2.28-.1v-13.99s6.06,3.2,6.06,3.2c1.67.88,4.19,1.38,6.2,1.37,5.36,5.31,6.9,13.11,7.43,20.52l1.33,18.84,3.04.91c-.02-7.83-2.54-15.47-.25-22.78l3.92-12.53c1.29-4.11,2.77-7.33,5.11-10.79l2.36-7.08c1.44,1.27,2.39,2.26,2.73,1.68l2.13-3.62,2.38,27.13,2.31,16.08-1.15-44.1c1.44-.8,3.37-1.41,3.66-2.32l1.54-4.69c.32-.25,1.48,2.57,1.54,4.04l.82,21.19c.01.38,1.27,2.3,1.4,1.99s.84-1.56.86-1.94l.71-15.63,8.44,20.35,4.2-6.46c.14,8.92,1.73,16.96,5.29,25.39l3.09,7.33,4.5-2.42-4.61,24.2-1.29,7.85-3.86,25.97-6.83.79,2.37,13.75,1.31,17.71c-6.11,7.96-8.93,17.37-11.22,27.72-10.37-.86-20.61-2.15-30.67-.98l-19.98,2.33.76,2.8,28.47-2.87,21.64,1.82c2.72,3.47,5.03,3.68,9.34,3.99l15.91,1.16,26.21,2.04c2.08.16,4.6,1.43,6.01,2.81,6.37-4.81,11.22,1.09,16.04-2.81,16.6,1.37,33,1.77,49.7-.09l15.34-1.71c1.19-.13,3.15-1.49,4.11-2.58l25.3,1.13c.43.02,1.7-.89,1.46-1.15s-1.46-1.65-1.83-1.66l-14.25-.28-9.72-.59-5.41,1.11-17.4,2.31c-3.47-3.25-6.94-5.02-10.99-7.33l-8.19-4.67c-2.4-1.37-7.77-1.44-9.78-2.93l-17.41-12.92c-.25-.4-1.06-1.73-.85-1.38.14.23,1.68-1.36,1.52-1.58-2.37-3.33-8.61-7.64-13.27-7.43-2.21.1-2.79-4.1-1.64-6.25l6.44-11.99-3.98-3.34,3.31-13.13,7.73-25.37c2.79,2.54,2.16,5.76,3.32,8.16s3.23,5.58,3.47,8.26l1.96,22.34c3.97-4.4,1.44-8.56,1.85-13l1.19-12.59c.88-9.28,3.43-17.76,7.15-26.24,1.49,6.01,1.56,9.73,3.81,14.81l.91-20.4,5.73-4.27c2.37,3.39,3.68,7.84,9,11.55v-36.88s-3.05-46.12-3.05-46.12c-.21-3.17,3.03-6,5.05-8.11,2.86-5.04-4.66-13.31-4.4-22.81.2-7.35,0-13.71-.9-20.98l-2.95-23.89c-.01-11.12-1.08-20.86-1.75-31.62l-.96-15.46-1.6-49.53,7.91,14.39,14.48,23.49,14.15,21.23c-3.17,2.52-4.43,5.02-4.24,8.98.49,10.34,11.3,8.68,5.28,20.31-2.89,5.58-2.88,13.9-1.98,19.56.44.17,2.3-.33,2.36-.75l2.29-17.54c.07-.52,2.22-1.11,2.5-.67l1.19,1.87c-3.55,12.33-8.08,24.49,2.81,27.27.06.72-.02,2.51-.41,2.31l-1.8-.93-6.04-2.46,3.82,8.45,8.15,11.46c-4.73,8.03-8.2,15.59-11.14,24.02,4.68.64,6.06,1.73,7.36,5.28,1.14-.86,4.05-2.98,4.75-4.37l13.16-25.87,9.62,16.94,5.55,9.57c1.6,2.75,3.63,8.61,6.2,10.33,4,2.67,2.63,4.85,4.51,8.13l12.27,21.47,8.35,12.7,23.85,40.12,5.31,10.43,13.8,17.7c3.34-3.6.95-8.4-.93-12.25l-7.59-15.57-11.24-24.93-12.38-32.6-9.87-21.03-9.6-23.49c-1.37-1.68-3.38-4.38-4-6.56-1.44-5.14-3.93-8.46-6.17-13.1l-8.48-17.53,3.66-14.45c.77-3.03-.17-6.64-1.37-9.34l7.06-15.89c2.1-4.73,4.62-9.79.3-14.53l-20.95,40.23-14.61,31.3c-.3.64-1.05,3.34-1.62,2.95l-2.46-1.68c-.43-.29.87-1.81,1.28-2.22l28.45-58.35c2.66-6.23,3.8-9.65,8.82-12.91-2.88-1.95-6.57.14-7.79,2.9l-6.56,14.72-6.32-9.57c-2.85-4.32-4.88-10-6.94-14.91l-7.88-18.77,4.48-2.18c.75-.36-1.22-2.75-1.52-3.55l-7.47-20.15-7.14-19.86c-6.36-17.69-14.21-33.89-21.85-51.04l-15.19-34.08-7.98-19.04c-3.14-7.48-7.23-14.59-9.2-22.56l-.8-10.04,5.6-4.25c-4.3-4.05-8.38-5.94-13.41-7.38-.8-1.45-.38-4.64-.07-7.26-1.01-.24-2.9,1.11-4.27,2.93l-4.07-4.38c.3-.84,1.05-3.9.31-3.71l-3.65.92-14.94-8.63-5.9-3.46c.59-4.14.27-6.21-.61-9.48.66-.68,2.89-3.09,3.39-4.43l4-10.68c.78-2.09,1.28-2.92,1.62-4.69l4.03-20.99c3.68-19.19-9.35-30.83-25.99-39.65.15-.96.51-2.98-.15-2.85l-3.6.69-29.61-14.53c-6.6-5.48-14.48-8.21-22.76-9.19l-.02-3.04c0-.51-2.51.82-2.69,1.3-.7,1.86-6.16,2.84-6.91.76-.54-1.5-.71-2.73-1.36-2.77l-2-.12.68,5.05c-9.76,2.55-18.35,6.81-24.78,14.32l-6.72,7.85c-1.57-2.41-2.89-3.55-4.45-3.34l1.82,3.9c.29.63-1.65,1.65-2.09,2.18l-7.4,8.9c-.98-.25-2.78-.71-2.61-.24l1.1,2.98-7.6,15.8c-9.42-2.17-20.47.96-19.84,7.77l9.99,2.38c4.43,2.04,8.35,5.19,11.83,7.92l-1.8,1.73c-.28.27-.41,1.04-.02,1.05l2.79.05c5.56.1,12.96,1.06,18.29-.13l5.72,17.93c-7.77.73-12.53,7.28-12.74,14.56l-19.1,13.31-2.04-1.78c-.37-.32-1.22.95-1.18,1.43.03.32.81,1.86.55,2.06l-5.27,4.07-2.9-2.28c-.45-.36-1.57,1.29-1.37,1.84l.83,2.36-5.67,4.9-5.96-4.42c-.7,2.77.86,4.01,3.84,5.51l-20.23,14.32-1.77-2.76c-.31-.49-2.28.2-2.21.63l.73,5.02-9.97-.8-7.93,7.89c-.65.65-1.83,2.84-1.78,3.76s.87,2.22,1.9,4.03l-24.16,18.31c-3.33,2.53-9.75,2.97-13.83,4.06-1.22.66-2.33,4.29-1.65,5.53l11.3,20.64,1.5,2.44c.22.36,1.56-.76,1.54-1.19s-.23-1.55-.52-2.11l-11.3-21.91c2.26-.81,4.73-1.83,5.08-.98l1.3,3.21,9.52,24.66-4.54,14.71c-.29.94-.08,4.02-.89,3.88l-4.37-.79,7.73-16.05c-.31-.63-3.04-.56-3.47.27l-4.03,7.72-4.68,8.15-10.18-.59c5.59-6.46,10.4-11.33,12.76-18.63l-10.57-21.64c-1.39-2.84-.05-3.9,1.52-6.39,4.12-6.52,4.19-19.49.49-22.14-1.13-.81-4.02-1.31-5.86-1.45-3.12-.24-4.28-1.67-6.77-3.34-3.85-2.59-9.52-3.41-14.69-4.54l-4.72-18.91-2.34-11.04c-.29-1.36-1.89-3.57-2.92-4.73l-.81-15.71-3.64-1.62c-.56-.25.87-2.85,1.12-2.84,2.85,1.28,6.2,2.78,8.4.71-3.47-2.03-6.62-2.94-10.16-3.74l.52-5.24c.03-.34-1.05-1.63-1.25-1.38-2.79,3.32-1.79,7.41-5.69,7.9l4.55-11.23c4.46,1.47,6.92,3.54,11.15,7.32.49-3.6,1.38-8.54,1-11.52l-1.88-14.66c-1.5.31-2.51,2.13-2.79,4.75-3.73-2.15-8.59-2.76-13.71-2.6l.79-3.98c-1.09.11-4.07,1.1-4.06,2.13l.03,4.01-9.14,5.16c-.19-4.19-.29-9,1.4-12.29,3.67-7.12,14.46-8.98,20.24-4.95l3.48,6.81,2.42-5c.52-1.08-2.56-3.12-3.39-3.97l-4.7-10.06.69-7.93c.44-5.09,5.47-9.21,8.33-14.61-4.1,1.42-7.3,5.41-9.41,9.54l-5.83,11.42-6.88,1.23-1.61-3.34-10.17,11.09c-2.89,3.15-4.25,9.61,1.54,11.44-1.84-5.09-1.76-8.66,1.77-12.08,6.55-6.35,15.97-7.02,19.9-3.96,1.4,1.09,2.55,3.98,3.22,6.15-6.6-1.01-14.75-.93-19.73,4.15s-3.43,12.7-3.09,19.02c-.87,3.74-1.92,6.97-2.06,11.19-.04,1.29,3.57,3.24,4.21,2.53-3.98-6.12.07-12.38,5.78-16.72l5.43-4.12c4.45-.67,10.81-.43,14.38,2.45,2.1,3.15,1.66,9.89,1.15,12.75l-9.78-3.77,5.08-7.15c.43-.61-2.69-2.47-2.92-1.74-1.31,4.48-4.92,8.47-9.51,10.43-4.84,2.07-9.42,8.22-8.83,13.64,4.73-5.21,6.76-12.37,14.9-13.32l-3.15,6.36c-2.3,7.04-8.38,11.89-7.3,12.85l2.5,2.23c-.03.06-.86.68-1.22.78l-1.84.53c.98,1.29,2.92,3.72,3.2,5.22l3.79,19.86,2.4,12.82,3.41,17.04-6.41,6.46c-2.36,2.38-2.86,5.6-3.17,8.86-.48,5.11-.82,10.9.97,15.07,2.71-.6,3.86-.82,4.69-.51s.17,3.12-.52,3.78c-.64.61-1.77-.47-3.3-1.36.35,3.23.65,8.39,1.84,10.97l5.08,11.08c16.54,3.07,16.54,26.86,20.83,44.62l11.26.9c1.74.14,6.28-.08,6.74-1.95,1.14-4.72-.28-10.03-1.76-14.59l-5.3-16.25c3.5-.09,4.58,1.48,5.57,4.48l19.41,1.32,13.42.73c6.62.36,12.35-.87,17.69-4.88l23.56-17.71,3.76,43.08c.7,7.99,4.78,15.7,11.77,19.43,1.8.73,6.04-.21,8.86-.78l2.2,15.8c.48,3.45-.47,8.42-1.19,11.89-4.41,0-5.81,1.65-7.27,5.03l-20.48,47.58-10.68,20.31-6.82,15.37c-3.35,7.55-8.51,13.94-12.63,21.07l-18.37,31.77c-1.91,3.31-2.66,7.51-2.88,11.06-3.36.88-7.61,3.03-9.48,6.41l-7.21,13.02-5.79,15.91c-3.98,1.29-9.66,4.06-8.67,9.17.9,4.62-1.01,7.23-3,11.38l-6.79,14.2-17.72,38.24-6.62,14.95-3.55,3.78-4.74-1.6-5.35,25.97-2.76,10.68-21.61,30.58-6.39,12.53c1.03.77,2.74,1.5,3.17.92l2.16-2.88c.39.37.41,2.84-.05,3.83-.38.83-3.18,1.82-4.12,1.62l-9.68-2.05c-.67-.14-2.77.29-2.86.91l-.36,2.35c3.18-.48,5.3-.48,8.49.14,5.39,1.05,10.88-.1,16.54-.21l12.77-.25-.76,2.49c-.1.33,1.15.63,1.42.42l2.28-1.76c-.21-.3.26.37.98,1.41,1.86-.72,5.52-1.93,8.11-1.91l11.99.05,25.2.56,17.45-2.3,1.72-4.02,29.74-1.66c7.37-.41,13.42-.9,22.2.97-5.12-7.04-13.41-4.29-20.29-3.84l-32.43,2.13-13.68-11.08c-1.37-6.97-3.65-12.13-7.17-18.36-1.33-2.35.65-6.28,1.64-8.78l8.88-22.36-5.24-1.2,9.41-12.57,13.24-17.33ZM177.04,126.21l20.75-11.96c4.39-2.53,10.35-6.18,10.87-11.94-1.33-4.34-8.48-4.32-12.26-2.62l-11.94,5.37c-12.45,7.21-32.98,25.84-19.82,30.93,3.9-2.75,7.89-7.19,12.39-9.78ZM93.81,169.39c2.81-2.7,5.52-4.83,6.15-9.45l-6.81,5.52c-.47.38-1.77,2.17-1.33,2.49l1.99,1.43ZM86.61,178.21c3.21-1.45,4.12-7.36-.1-10.39l-3.83,6.65c-.57.99,2.66,4.32,3.93,3.74ZM299.06,720.31l-11.04.2.23,7.25c-.47.6-4.28,1.32-4.33.19l-.2-4.62c-.05-1.15-.41-3.04-1.24-3.26s-2.67,1.39-2.65,2.43l.29,17.16,11.57-.11-.02-7.8,7.56.08-.19-11.52ZM180.06,750.51c16.38-.61,32.43-2.54,48.82-1.81,5.59.25,10.51,2.99,16.75,2.58-11.61-9.74-38.3-4.27-55.57-4.14l-22.2.18c-2.11.02-4.23,2.1-3.79,3.78l15.98-.6ZM204.62,770.24c-7.04-7.97-17.05-9.66-25.95-12.53l-8.15-2.62c2.61,5.87,8.17,5.34,12.91,6.93,7.15,2.39,13.19,6.85,21.18,8.23ZM272.38,766.48c2.86,2.11,5.23,4.42,9.26,2.53-9.12-6.41-19.36-13.75-30.84-11.32,7.69,3.92,15.28,4.15,21.58,8.79ZM490.98,760.44c-5.03-4.02-10.95-4.16-15.55-1.54,5.28,2.16,10.4,2.81,15.55,1.54ZM309.19,771.7l-15.04-7.26-15.72-6.43c-.53,1.54.75,3.59,2.52,4.38l18.1,8.01c3.3,1.46,6.69,3.07,10.14,1.3ZM350.93,770.15l23.1.37c-2.61-4.88-6.54-3.24-10.02-3.33l-31.15-.78-10.32,1.35c-.58.08-2.3,1.97-1.73,2.1l2.26.5c9.27-.96,18.19-.8,27.85-.21ZM154.49,773.62l28.69-.5c-3.82-1.51-7.7-1.65-12.24-1.82l-16.88-.62-23.08,1.64c-5.05.36-9.94-1.59-14.5,2.43l10.5.14,27.52-1.27Z"/>
  <path d="M115.49,660.42l-13.24,17.33-9.41,12.57,5.24,1.2-8.88,22.36c-.99,2.5-2.97,6.43-1.64,8.78,3.51,6.23,5.8,11.39,7.17,18.36l13.68,11.08,32.43-2.13c6.88-.45,15.17-3.2,20.29,3.84-8.78-1.87-14.84-1.38-22.2-.97l-29.74,1.66-1.72,4.02-17.45,2.3-25.2-.56-11.99-.05c-2.59-.01-6.25,1.2-8.11,1.91-.72-1.04-1.19-1.71-.98-1.41l-2.28,1.76c-.27.21-1.52-.09-1.42-.42l.76-2.49-12.77.25c-5.66.11-11.15,1.26-16.54.21-3.19-.62-5.31-.63-8.49-.14l.36-2.35c.09-.62,2.19-1.05,2.86-.91l9.68,2.05c.94.2,3.73-.79,4.12-1.62.46-.99.44-3.46.05-3.83l-2.16,2.88c-.43.58-2.14-.16-3.17-.92l6.39-12.53,21.61-30.58,2.76-10.68,5.35-25.97,4.74,1.6,3.55-3.78,6.62-14.95,17.72-38.24,6.79-14.2c1.99-4.15,3.9-6.76,3-11.38-1-5.11,4.69-7.88,8.67-9.17l5.79-15.91,7.21-13.02c1.87-3.38,6.12-5.53,9.48-6.41.22-3.56.97-7.75,2.88-11.06l18.37-31.77c4.12-7.13,9.29-13.52,12.63-21.07l6.82-15.37,10.68-20.31,20.48-47.58c1.45-3.38,2.86-5.03,7.27-5.03.73-3.47,1.67-8.44,1.19-11.89l-2.2-15.8c-2.81.57-7.06,1.51-8.86.78-6.99-3.74-11.07-11.45-11.77-19.43l-3.76-43.08-23.56,17.71c-5.34,4.01-11.07,5.24-17.69,4.88l-13.42-.73-19.41-1.32c-.99-3-2.07-4.57-5.57-4.48l5.3,16.25c1.49,4.56,2.91,9.87,1.76,14.59-.45,1.86-5,2.08-6.74,1.95l-11.26-.9c-4.28-17.77-4.28-41.55-20.83-44.62l-5.08-11.08c-1.18-2.58-1.49-7.74-1.84-10.97,1.53.89,2.66,1.97,3.3,1.36.69-.67,1.35-3.48.52-3.78s-1.99-.09-4.69.51c-1.78-4.17-1.45-9.97-.97-15.07.31-3.26.81-6.48,3.17-8.86l6.41-6.46-3.41-17.04-2.4-12.82-3.79-19.86c-.29-1.5-2.22-3.92-3.2-5.22l1.84-.53c.36-.1,1.2-.73,1.22-.78l-2.5-2.23c-1.08-.97,5-5.82,7.3-12.85l3.15-6.36c-8.14.95-10.17,8.11-14.9,13.32-.59-5.41,3.99-11.57,8.83-13.64,4.59-1.96,8.2-5.96,9.51-10.43.23-.73,3.35,1.13,2.92,1.74l-5.08,7.15,9.78,3.77c.51-2.86.94-9.61-1.15-12.75-3.58-2.89-9.93-3.13-14.38-2.45l-5.43,4.12c-5.71,4.34-9.75,10.6-5.78,16.72-.64.71-4.25-1.23-4.21-2.53.13-4.21,1.18-7.45,2.06-11.19-.34-6.33-1.87-13.97,3.09-19.02s13.13-5.15,19.73-4.15c-.67-2.17-1.82-5.06-3.22-6.15-3.93-3.06-13.35-2.39-19.9,3.96-3.53,3.42-3.61,6.99-1.77,12.08-5.79-1.84-4.43-8.3-1.54-11.44l10.17-11.09,1.61,3.34,6.88-1.23,5.83-11.42c2.11-4.14,5.31-8.12,9.41-9.54-2.85,5.4-7.88,9.52-8.33,14.61l-.69,7.93,4.7,10.06c.83.85,3.91,2.89,3.39,3.97l-2.42,5-3.48-6.81c-5.78-4.03-16.57-2.17-20.24,4.95-1.7,3.29-1.59,8.1-1.4,12.29l9.14-5.16-.03-4.01c0-1.03,2.97-2.02,4.06-2.13l-.79,3.98c5.12-.15,9.98.46,13.71,2.6.28-2.62,1.29-4.44,2.79-4.75l1.88,14.66c.38,2.98-.51,7.92-1,11.52-4.24-3.79-6.69-5.86-11.15-7.32l-4.55,11.23c3.9-.49,2.9-4.58,5.69-7.9.21-.25,1.29,1.04,1.25,1.38l-.52,5.24c3.54.79,6.69,1.71,10.16,3.74-2.2,2.06-5.55.56-8.4-.71-.26-.02-1.69,2.58-1.12,2.84l3.64,1.62.81,15.71c1.03,1.16,2.63,3.37,2.92,4.73l2.34,11.04,4.72,18.91c5.17,1.13,10.84,1.94,14.69,4.54,2.49,1.68,3.65,3.1,6.77,3.34,1.84.14,4.73.64,5.86,1.45,3.7,2.65,3.64,15.62-.49,22.14-1.57,2.48-2.91,3.54-1.52,6.39l10.57,21.64c-2.36,7.31-7.17,12.17-12.76,18.63l10.18.59,4.68-8.15,4.03-7.72c.43-.82,3.16-.9,3.47-.27l-7.73,16.05,4.37.79c.8.15.6-2.94.89-3.88l4.54-14.71-9.52-24.66-1.3-3.21c-.34-.85-2.81.17-5.08.98l11.3,21.91c.29.56.5,1.68.52,2.11s-1.32,1.56-1.54,1.19l-1.5-2.44-11.3-20.64c-.68-1.24.43-4.87,1.65-5.53,4.08-1.09,10.49-1.53,13.83-4.06l24.16-18.31c-1.03-1.81-1.85-3.11-1.9-4.03s1.12-3.1,1.78-3.76l7.93-7.89,9.97.8-.73-5.02c-.08-.44,1.89-1.12,2.21-.63l1.77,2.76,20.23-14.32c-2.98-1.5-4.54-2.74-3.84-5.51l5.96,4.42,5.67-4.9-.83-2.36c-.19-.55.92-2.2,1.37-1.84l2.9,2.28,5.27-4.07c.26-.2-.53-1.74-.55-2.06-.04-.49.81-1.75,1.18-1.43l2.04,1.78,19.1-13.31c.21-7.28,4.96-13.83,12.74-14.56l-5.72-17.93c-5.33,1.19-12.72.22-18.29.13l-2.79-.05c-.38,0-.25-.78.02-1.05l1.8-1.73c-3.47-2.72-7.39-5.88-11.83-7.92l-9.99-2.38c-.62-6.81,10.42-9.94,19.84-7.77l7.6-15.8-1.1-2.98c-.17-.47,1.63-.01,2.61.24l7.4-8.9c.44-.53,2.38-1.56,2.09-2.18l-1.82-3.9c1.56-.2,2.88.93,4.45,3.34l6.72-7.85c6.43-7.51,15.02-11.77,24.78-14.32l-.68-5.05,2,.12c.65.04.82,1.27,1.36,2.77.75,2.09,6.22,1.1,6.91-.76.18-.48,2.69-1.81,2.69-1.3l.02,3.04c8.28.98,16.17,3.71,22.76,9.19l29.61,14.53,3.6-.69c.67-.13.31,1.89.15,2.85,16.64,8.82,29.68,20.47,25.99,39.65l-4.03,20.99c-.34,1.77-.83,2.6-1.62,4.69l-4,10.68c-.5,1.34-2.73,3.75-3.39,4.43.88,3.27,1.19,5.34.61,9.48l5.9,3.46,14.94,8.63,3.65-.92c.74-.19,0,2.87-.31,3.71l4.07,4.38c1.37-1.83,3.26-3.18,4.27-2.93-.31,2.62-.73,5.81.07,7.26,5.03,1.45,9.11,3.34,13.41,7.38l-5.6,4.25.8,10.04c1.97,7.98,6.07,15.09,9.2,22.56l7.98,19.04,15.19,34.08c7.65,17.15,15.5,33.36,21.85,51.04l7.14,19.86,7.47,20.15c.3.8,2.27,3.18,1.52,3.55l-4.48,2.18,7.88,18.77c2.06,4.91,4.09,10.59,6.94,14.91l6.32,9.57,6.56-14.72c1.23-2.76,4.91-4.85,7.79-2.9-5.03,3.26-6.16,6.69-8.82,12.91l-28.45,58.35c-.4.41-1.7,1.93-1.28,2.22l2.46,1.68c.57.39,1.32-2.31,1.62-2.95l14.61-31.3,20.95-40.23c4.32,4.73,1.8,9.8-.3,14.53l-7.06,15.89c1.2,2.7,2.14,6.31,1.37,9.34l-3.66,14.45,8.48,17.53c2.24,4.64,4.73,7.95,6.17,13.1.61,2.18,2.62,4.88,4,6.56l9.6,23.49,9.87,21.03,12.38,32.6,11.24,24.93,7.59,15.57c1.88,3.85,4.27,8.65.93,12.25l-13.8-17.7-5.31-10.43-23.85-40.12-8.35-12.7-12.27-21.47c-1.88-3.28-.51-5.46-4.51-8.13-2.57-1.72-4.61-7.58-6.2-10.33l-5.55-9.57-9.62-16.94-13.16,25.87c-.7,1.38-3.61,3.51-4.75,4.37-1.3-3.55-2.69-4.64-7.36-5.28,2.94-8.44,6.41-15.99,11.14-24.02l-8.15-11.46-3.82-8.45,6.04,2.46,1.8.93c.39.2.47-1.6.41-2.31-10.89-2.78-6.36-14.94-2.81-27.27l-1.19-1.87c-.28-.44-2.44.14-2.5.67l-2.29,17.54c-.06.42-1.92.93-2.36.75-.91-5.66-.91-13.98,1.98-19.56,6.02-11.63-4.8-9.97-5.28-20.31-.19-3.96,1.07-6.46,4.24-8.98l-14.15-21.23-14.48-23.49-7.91-14.39,1.6,49.53.96,15.46c.67,10.76,1.74,20.5,1.75,31.62l2.95,23.89c.9,7.27,1.1,13.63.9,20.98-.26,9.49,7.26,17.77,4.4,22.81-2.02,2.11-5.26,4.94-5.05,8.11l3.05,46.12v36.88c-5.32-3.71-6.63-8.15-9-11.55l-5.73,4.27-.91,20.4c-2.25-5.08-2.32-8.81-3.81-14.81-3.72,8.48-6.27,16.96-7.15,26.24l-1.19,12.59c-.42,4.44,2.12,8.6-1.85,13l-1.96-22.34c-.24-2.67-2.26-5.75-3.47-8.26s-.52-5.62-3.32-8.16l-7.73,25.37-3.31,13.13,3.98,3.34-6.44,11.99c-1.15,2.14-.58,6.34,1.64,6.25,4.66-.2,10.9,4.1,13.27,7.43.16.22-1.38,1.81-1.52,1.58-.21-.35.6.98.85,1.38l17.41,12.92c2.01,1.49,7.38,1.56,9.78,2.93l8.19,4.67c4.05,2.31,7.52,4.08,10.99,7.33l17.4-2.31,5.41-1.11,9.72.59,14.25.28c.37,0,1.57,1.39,1.83,1.66s-1.03,1.17-1.46,1.15l-25.3-1.13c-.97,1.09-2.92,2.45-4.11,2.58l-15.34,1.71c-16.7,1.86-33.1,1.46-49.7.09-4.82,3.9-9.67-2-16.04,2.81-1.41-1.38-3.93-2.65-6.01-2.81l-26.21-2.04-15.91-1.16c-4.31-.31-6.61-.52-9.34-3.99l-21.64-1.82-28.47,2.87-.76-2.8,19.98-2.33c10.06-1.17,20.3.12,30.67.98,2.29-10.35,5.11-19.76,11.22-27.72l-1.31-17.71-2.37-13.75,6.83-.79,3.86-25.97,1.29-7.85,4.61-24.2-4.5,2.42-3.09-7.33c-3.56-8.43-5.15-16.46-5.29-25.39l-4.2,6.46-8.44-20.35-.71,15.63c-.02.38-.73,1.63-.86,1.94s-1.38-1.61-1.4-1.99l-.82-21.19c-.06-1.47-1.22-4.29-1.54-4.04l-1.54,4.69c-.3.91-2.23,1.51-3.66,2.32l1.15,44.1-2.31-16.08-2.38-27.13-2.13,3.62c-.34.57-1.29-.42-2.73-1.68l-2.36,7.08c-2.33,3.46-3.82,6.68-5.11,10.79l-3.92,12.53c-2.29,7.31.23,14.95.25,22.78l-3.04-.91-1.33-18.84c-.52-7.41-2.06-15.21-7.43-20.52-2.01,0-4.53-.49-6.2-1.37l-6.06-3.2v13.99s-2.28.1-2.28.1l-1.98-17.59-1.82,1.93c-.32.34-1.07-.4-1.36-.78l-1.24-1.64c-.24-.32-1.61,0-1.58.39l.22,2.49.23,2.54c.06.63-1.58,1.47-1.95,1.08l-4.19-7.66-5.04,6.08-4.77,17.17c-.59,2.13-2.02,4.18-4.29,3.69l-.73-19.48c-2.38-18.78-2.78-36.07-1.04-56.62l-15.12,15.34-7.59,7.35c-2.78,2.7-5.18,4.29-9.48,4.9l-2.98,9.87-7.37,4.16-4.18,9.01c-3.33,7.19-7.84,13.02-14.33,17.69l-.32,11.79c-2.72,2.89-6.96,4.91-10.64,6.46-6.32,2.66-8.46,9.64-8.79,16.24-.76.11-2.65-.59-3.96-1.34l-14.98,20.63ZM199.85,285.16c9.79,6.28,18.48,12.53,28.92,16.67l-.64-4.7c-.11-.82,2.45-1.25,2.92-1.13.03,5.02,1.5,7.6,5.56,9.02l2.73.96c.61.21,2.22-2.38,2.59-1.85l2.45,3.5c.5.72,2.34.25,3.62.2,8.51-.33,15.86-3.05,23.16-7.07,6.24-3.44,12.29-6.7,17.7-11.37,6.82-5.87,14.31-11.1,19.54-18.33l5.14-7.11,5.32-5.71c.86-1.17-3.16-4-4.58-3.6l-6.43,1.8c2.2-5.71,10.39-6.78,8.81-19.38l-8.65-11.61c-7.65-10.26-14.73-20.42-19.48-32.41-.92-2.31-1.54-3.27-3.51-6.05l9.31-8.33.36-9.4,7.21,1.32,6.44-3.66,13.59-9.9-6.16-9.96c6.34.23,6.2,5.25,8.63,8.38l5.38-3.44-2.12-5.05,5.77,2.29,19.81-9.34,3.65-2.34,6.16,5.35c-3.87-12.48-14.02-19.11-24.65-24.88l-31.24-15c-13.78-11.18-31.78-13.08-47.34-3.73-4.08,2.45-8.16,5.02-10.89,9.09s-6.3,6.2-9.91,9.28c-8.88,7.58-13.34,19.19-17.9,29.64-6.5-1.72-12.95-1.46-18.64,1.96,6.25,1.41,10.59,3.35,15.03,6.65l8.86,6.58c3.01,2.23,10.25.9,13.49-1.03l.29-15.98c.08-4.46,2.82-9.08,7.51-11.41l-4.68,11.49c-.9,18.49,2.31,35.52,16.04,47.8l1.79,2.3c.34.44-2.73,1.26-3.09.83l-8.87-10.83c-8.11-.42-13.42,6.86-12.55,14.23l8.75,1.76-.21,2.38-11.76-2.32-25.06,17.79-4.99,4.02-7.24,4.84-21.48,15.04,18.19,10.62,14.31,7.85c-5.18.95-9.57-1.93-13.76-4.44l-18.69-11.18c-4.37-2.62-7.69-3.22-12.23-.59-3.15,1.83-7.63,5.15-5.55,9.41l8.03-.67c4.75,6.79,9.54,12.46,15.61,16.6l.9-3.86c.15-.64,2.29-.7,2.71-.5l.16,7.75c4.68,4.34,10.27,7.18,15.87,10.78ZM362.76,154.34l1.22-1.52-5.9-6.86-1.74.4c-.3.07-.07,1.84.16,2.05l6.27,5.93ZM362.54,157.52l-6.66-7.24c-.94,1.58-1.66,5.13-.63,6.03l3.65,3.2,2.6,1.96c.52.4,1.48-3.48,1.04-3.96ZM360.14,169.98l1.69-6.17-7.58-5.22c-.34.16-.98,3.39-.33,4.15l6.21,7.25ZM299.19,203.81l21.05,9.6c7.97,3.63,16.07,5.3,22.58-1.64l-2.44-.84c-.34-.12-.12-1.65.24-1.54l2.29.68c3.92,1.17,9.23-6.23,8.75-8.31-1-4.36-3.59-9.45-6.34-14.16l-12.18,5.02c-5.33,2.2-8.64,6.28-13.65,11.05-.61-7.6,16.05-17.75,25.03-17.89l-9.06-13.21c1.23-2.96,1.93-6.29,1.8-10.61l-7.94,3.28,6.06,10.91c1.16,2.08.92,8.09-.83,9.7-2.1,1.93-5.56,4.08-7.64,5.21l-10.94-.99c-1.57-.14-4.06-1.83-4.19-2.8,4.55.17,6.17-.63,9.45-2.56l11.74-6.9-8.16-13.83-8.48,6.88,4.08,7.44-10.3,2.32-15.81,17.34c-.27,2.16,2.42,4.7,4.91,5.84ZM358.57,175.65c.49-.83,1.26-3.15.82-3.65l-5.73-6.45c-.33,0-1.96,1.78-1.51,2.33l1.54,1.87,4.88,5.9ZM356.29,183.23l1.35-4.93-5.31-6.9c-.97.74-1.85,4.16-.83,5.51l4.78,6.32ZM64.48,198.12l5.8,15.51,1.23-6.37.41-6.02-3.21,2.98-.91-10.45c-.65-.56-4.77-.1-6.1.84-1.16.82-1.86,4.47-1.36,5.81,4.41,11.85,7.64,23.42,9.8,36.02l2.34,13.62,1.51.43-4.78-27.37c-1.42-8.14-4.91-16.24-7.87-24.06-.22-.33,2.39-1.2,3.13-.95ZM348.48,221.91c1.06-1.44,1.97-3.02,1.42-3.5l-2.09-1.82c-.68-.6-2.43-2.51-3.21-2.07l-2.75,1.54,6.63,5.85ZM346.48,223.31l-7.63-6.19-1.17,1.21,8.3,8.88c.52-.88,1.02-3.48.51-3.89ZM369.95,221.07c.93-.59,2.09-1.21,1.71-1.49l-2.44-1.76-2.33,6.34,9.31,11.11c3.59,4.28,4.72-2.68-6.25-14.2ZM344.3,230.4l-6.95-8.41-1.43,4.2c3.46,2.01,5.42,3.35,8.39,4.21ZM385.85,232.77l-8.87-7.81,3.64,9.43,5.23-1.62ZM374.93,236.26l-7.27-8.47c-.82-.96-4.41,1.15-3.88,2.19l2,3.94c.61,1.21,2.53,3.99,3.83,3.67l5.32-1.34ZM317.4,250.47l13.12-17.97c-4.57,2.11-9.14,5.58-10.53,9.89l-2.6,8.08ZM367.16,248.41c-2.26-2.98-2.81-3.52-6.94-6.92l6.02-2.89-3.45-5.8-4.35,7.13,3.41,8.61,5.31-.13ZM382.39,242.18l-2.52-4.58-5.96,2.28,3.84,3.61c.67.63,3.23-.61,4.64-1.31ZM368.01,247.64l7.38-3.3-2.69-3.79-6.94,1.8,2.25,5.29ZM385.73,268.56c4.71-4.82,2.46-9.89,3.91-14.8.9-3.05.5-7.05-.73-10.11-.42-.18-2.86.79-2.59,1.38l1.14,2.46-1.74,21.07ZM101.17,290.36c4.37-2.76,5.24-10.14.8-13.25l-11.21,2.06c-14.53,2.67-18.06,9.06-21.53,6.39l11.55-7.56c2.02-1.32,4.1-6.1,7.49-6.42,1.54-.14,4.16,2,5.71,3.07,1.88,1.3,7.79-.32,8.49-2.49.96-2.95-.95-7.45-2.3-9.77l-14.18-1.92-17.27,12.34c-.55.39-2.94-1.06-2.56-1.33l1.67-1.17,13.23-10.17c-1.45-2.14-1.89-3.79-1.17-4.16,3,1.7,4.83,2.25,8.01,2.67l11.82,1.56-.08-6.08-13.5-4-6.23-2.27-5.55,5.97-12.3,13.02c-1.01,1.07-1.01,4.41.05,5.26,5.05,4.03-1.53,9,.29,10.41l2.7,2.11c5.96,4.65-1.5,7.05.34,11.84.47,1.23,2.51,2.33,4.61,3.62l-.83,8.62,8.95,5.71-.98-6.11c3.79-2.03,8.73-3.63,12.98-4.59l3.85-5.6-1.51,7.91c-.34.02,1.49,1.54,2,1.14l2.44-1.98c2.16-1.75,3.57-5.29,3.57-8.08,0-2.01-2.07-6.33-4.56-6.03-9.18,1.14-18.94,6.09-19.39,4.4l-.49-1.83,15.79-4.63c2.97-.87,6.44.11,9.31,1.34ZM379.45,264.92c-.09.58,1.64,2.74,2.03,2.3s2.08-2.26,2.13-2.9l1.53-16.79c-.84.68-3.52,3.29-3.72,4.58l-1.97,12.81ZM329.11,252.86l-7.23-3.71c1.67,7.34,10.52,7.68,9.19,5.82-.31-.44-1.45-1.82-1.96-2.11ZM394.8,258.9l-3.03-6.07-2.11,18.39,5.14-12.31ZM126.36,278.57c.17,3.34.6,6.04,1.46,8.1,6.76,16,10.79,23.36,3.51,40.54,9.41,2,16.35-.43,22.97-5.32l15.57-11.52c7.49-5.54,14.72-11.67,20.88-18.3l-8.07-8.28-20.9-27.48c-7.19,3.21-12.91,8.11-18.89,13.65l9.07,5.13-11.86.24c0,1.38,1.39,3.77,2.55,5.42l3.84,5.45c3.31,4.7,8.33,9.75,7.21,16.1-4.15-1.66-3.96-6.15-5.87-8.61-5.36-6.88-12.62-11-21.48-15.11ZM111.21,273.44c.67-5.51,1.08-9.1-.95-13.46-.82-1.77-5.59-2.43-7.86-1.95l4.01,14.1,4.8,1.31ZM320.65,264.94l-1.1-2.8c-.16-.4-1.34.51-1.5.91l-.77,1.97c-.55,1.4-1.18,3.45-.38,4.19s3.89.36,4.65-.42c.63-.66-.44-2.67-.91-3.85ZM374.49,282.46c.71-.04,2.26-3.81,1.61-4.87l-5.59-9.29c-2.28,3.79,3.91,4.19,3.98,14.16ZM396.29,288.27l3.48-12.26c.77-2.7,1.42-5.03-1.42-6.97l-4.4,15.84c-.32,1.14,1.67,4.08,2.34,3.4ZM405.39,284.85l-3.19-8.77-4.1,15.39c.88.39,2.81,1.19,2.92.5l.52-3.21c.2-1.23,1.7-3.34,2.57-3.69l1.28-.21ZM389.85,288.36l2.78-6.98-8.61-4.53,2.2,5.86,3.13-2.49.5,8.14ZM405.55,285.38l-.54.81-2.56,9.66c-.31,1.17.64,4.09,1.14,4.73,1.27-3.18-.74-6.72,4.55-7.92l-4.29,16.55-2.18,10.22c-.52,2.45.39,5.65,1.94,6.87l-.18-4.89c-.03-.7,1.92-1.52,2.48-2.06l.71-9.41c.04-.57-.45-2.2,0-2.48l1.83-1.09-.07-.44c.28-2.89,1.15-6.35,2.27-9.63l-5.1-10.91ZM96.93,319.69l8.89-3.1c.55.45,1.85,2.03,1.33,2.31l-2.48,1.34-2.29,1.26c-.3.16-.13.53.21.67l2.71,1.15c4.61-4.5,11.7-10.88,11.97-18-1.39-6.99-5.75-13.06-8.86-19.07l-5.66,8.36c3.44,12.17-10.17,13.05-6.04,20.43l6.18-6.71,1.55-1.66c.37-.39,2.23,1.13,1.89,1.54l-1.57,1.91-7.84,9.56ZM249.88,318c-4.67,1.36-5.67,1.26-8.06-.06l-4.14-2.3-9.31,15.7c-1.74,2.93-3.97,5.58-7.13,8.47l13.23-24.93c-2.13-.33-4.61-.4-4.95-1.39s-.39-3.55-.24-4.7l.44-3.49c.07-.57-2.44-1.1-2.53-1.01l.77,10.3c-4.67-1.8-1.46-7.83-4.39-12.45-2.51,4.73-.18,15.22-1.98,13.54l-1.69-1.58-.03-12.2c0-.94-3.24-2.66-3.53-2.56.1,4.91.51,8.58-1.35,13.16l-2.33-16.35c-1.57,6.48,2.29,11.96-2.16,17.62-1.44-7.56,1.45-14.13-2.93-20.65l-1.22,20.12c-5.03-3.16,1.63-15.1-2.83-23.02-.88,9.11-.26,17.92.61,27.31l2.36,25.76,3.4,21.84,16.21-9.45,18.67-13.43,16.85-12.15,11.94-9.97,21.33-20.07c-3.6-4.47-6.18,4.42-13.37,7.73-7.93,3.65-8.82,9.59-13.76,7.14l-7.56,6.89c-.66.6-2.76.49-3.96-.08l8.23-7.95c-7.65,2.08-14.24,15.57-15.71,14.56l-2.43-1.68-4.33,5.45c1.95,3.2,4,5.15,2.98,9.41-2.85-2.44-4.11-5.26-5.55-8.28l1.5-4.76,8.98-10.46ZM350.23,306.67c-.91,1.23-1.41,5.48.34,5.77,3.51-3.56,2.22-9.13.49-12.87l.64-5.03-5.14,11.97c-.17.4.64,2.1.89,1.75l.94-1.29,1.27-1.76c.25-.34.84,1.08.57,1.44ZM399.46,318.49l2.35-13.17c-3.69-2.17-4.1-5.4-4.09-10.28-1.74.96-2.54,3.31-2.11,5.7l-1.88.47c3.87,5.95,4.61,11.07,5.74,17.28ZM394.04,306.42l-5.65-8.15c-.48.81-1.05,2.46-.79,2.89l7.57,12.7c.75-1.9.12-5.63-1.13-7.44ZM388.35,313.51c.51-6.79-2.64-11.09-7.46-14.43.82,6.14,3.29,10.74,7.46,14.43ZM409.27,307.6l-1.86,18.17,1.33,13.81,11.66,14.02-2.2,3.08,4.77,4.64c.45.44,1.35,1.99,1.58,2.52s-1.41,1.6-1.97,1.45-1.58-.83-2.01-1.31l-15.68-17.9,1,20.49,19.18,23.7c.47.58,2.36,2.22,1.8,2.58l-2.36,1.51c-.42.27-1.28-1.3-1.69-1.77l-13.84-16.11-13.24-12.01,12.9,24.39,12.41,21.59,24.75-18.42c.99-.73,3.61-1.02,5.19-.95l-3.92-10.61-14.36-35.5c-3.14-7.77-8.24-14.72-15.06-18.78l-2.17,2.97-2.1-8.59c-1.22,4.32-1.1,4.92-2.66,8.75-.99-6.12-.6-10.47-.02-15.5,1.44.14,2.24.22,2.27.17.04-.07-.23,2.77.05,3l10.24,8.73-10.88-25.4-2.52,6.49-.6.78ZM376.58,306.51c-.27-.74-.72-2.29-1.15-2.19l-2.45.58,8.31,10.43c.7-4.22-1.44-6.42-4.71-8.82ZM94.15,319.82c-1.19-4-.53-8.32-4.66-10.6l6.17,21.38c.52-3.71-.34-6.82-1.51-10.78ZM388.4,320.83c-.12-.37-.91-1.46-.68-1.77l1.31-1.8-3.71-3.98c-2.05,3.81-1.22,6.22,1.14,8.69l1.22,1.27c.27.28,1.55.14,1.43-.23l-.7-2.19ZM396.16,324.29c1.13-5.23-1.16-8.04-4.15-10.81-.79,4.41.98,8.27,4.15,10.81ZM293.58,347.39l-1.61-1.31c2.06-1.19,4.28-2.77,5.13-4.34l11.18-20.84c.32-.6,1.83-2.11,1.32-2.52l-2.22-1.79c-3.2,7.14-6.59,13.13-10.88,19.38-3.02,4.4-4.77,9.25-6.99,14.09l-6.2,13.54c5.09-4.27,10.8-15.78,10.27-16.21ZM333.71,319.9l-1.41-1.63-4.36,14.54c4.23-3.41,3.81-6.63,5.77-12.91ZM325.74,334.35l4.06-15.19c-5.39,6.03-6.19,12.45-8.39,19.59,1.53-.45,3.89-2.75,4.33-4.4ZM308.39,373.33l9.06-9.76-2.39-8.01c-1.15.22-2.81.75-2.67,1.41l.71,3.4.74,3.56c.15.72-2.07,1.6-2.77,1.6l-1.6-7.99-10.49,4.08-1.07,5.64c-8.03,6.6-6.22,16.22-11.73,23.59l2.96-13.37c.97-4.39,2.32-9.92,4.38-9.54l2.44.45-1.11-5.59-22.44,9.39c-4.84-.64-10.55,1.46-12.04,6.27l3.38-1.78c.61-.32,1.94.89,2.32,1.45l-11.88,7.98c-3.05-5.67,2.18-8.36,5.58-10.74l7.87-12.84c.64,4.45-1.64,5.42-2.35,9.51l8.34-12.86-2.51,9.65c6.11-4.06,5.26-12.78,10.93-15.49l-4.75,12.68c9.68-8.27,9.57-19.01,11.52-22.65,3.39-6.33,5.56-12.27,7.18-18.71-4.12,2.15-4.12,4.52-4.56,7.86-.73,5.55-4.36,11.84-9.65,14.56l8.67-16.65-14.41,10.15-22.03,18.02c-9.17,7.5-18.39,14.7-28.98,19.85l-13.71,6.68,18.31,6.56c1.61-3.26,3.64-6.57,7.56-4.49l-4.65,4.82c6.3,2.1,14.12,6.31,20.58,5.8l17.09-8.47c2.11-1.05,5.16-4.72,7.11-6.58.54-.12,2.45,1.46,2.04,2.15l-1.42,2.41-8.26,14.01,4.1.02,10.94-4.47,10.32-18.31c.36-.63,1.83-1.33,2.53-1.29s.58,2.31.15,3.06l-9.53,16.85,6.61,2.42,5.41,1.99c3-1.98,7.27-5.14,9.65-8.05l10.07-12.32c2.27-2.77,2.52-8.69,3.01-13.1l-4.4,4.53c-2.75-.25-5.83,2.07-7.4,5.22l-2.75-4.58ZM321.82,327.34l-5.59,15.9c3.65-1.57,5.28-10,5.59-15.9ZM93.46,351.49l.67-2.57-4.61-16.39-.9,1.7,4.84,17.26ZM406.89,343.14l-7.79-10.62c-.73,5.83,5.07,7.87,7.79,10.62ZM399.18,352.79c.11.6,2.78,1.83,2.83,1.24l.2-2.81c.17-2.44.47-4.44,1.54-6.62l-10.4-5.5,1.8,11.54.22-3.62c.04-.69,1.63-1.26,2.45-1.32l1.37,7.09ZM301.45,344.4l-3.12,10.03c10.49-12.12,4.44-14.28,3.12-10.03ZM345.99,358.8l4-13.35-5.62,10.22c-.43.79,1.01,3.21,1.62,3.13ZM296.72,355.08l.57-9.54-7.85,14.2,7.28-4.66ZM332.44,367.6l.25-2.85c.85-1.03,2.41-2.61,2.51-3.72.08-.92-1.24-2.61-2.49-4.04l-9.24,16.71c3.82-1.01,8.99-6.28,8.97-6.1ZM343.89,391.54c3.53-5.95,2.91-9.72,2.21-15.55l-4.2,4.4,1.98,11.16ZM323.65,395.87c-.65-1.54-1.26-3.93-.97-5.15.25-1.05,2.57-2.2,3.96-2.91,1.67-.85,1.64-5.49.13-7.61l-4.33,6.86-4.98,10.16,6.18-1.35ZM429.66,415.68l23.15-20.28-1.15-2.8-4.99,2.72-20.63,15.23c-1.1.81-3.02,2.32-2.8,3.34s1.49,3.07,2.38,3.6c.74.45,3.19-1.08,4.03-1.81ZM256.47,510.92l2.47-9.31-5-10.59c4.55-9.64,10.2-18.3,16.86-26.74l12.98-16.43c.84-.4,2.47.85,3.92,2.45.26-.06,1.44-2.89.77-3.7l-2.67-3.21,4.52.94c.84.17,1.47-2.37,1.11-3.14l-1.07-2.29c1.67-.34,4.94-3.05,5.06-4.87l.99-14.74c.05-.8-.8-3.05-1.54-2.89l-2.59.56c-.59.13.05,1.56.39,2.77-2.84,1.71-6.96,3.03-10.58,3.02-8.94,0-7.72-10.41-20.71-9.15-16.19,11.62-32.18,21.35-49.41,31.03l-3.58-.87c-3.75-.91,3.37-1.9,8.98-6.68l9.31-7.93,19.1-17.09c-3.48-.33-3.27-1.5-.87-3.19l-12.16-1.8c-.88-.38-3.46-2.14-3.94-1.37l-1.81,2.85-15.4,16.64c-.29-5.18,3.71-9.31,7.32-12.76l8.28-7.92-19.78-5.34c-4.62-1.25-8.16,3.02-9.77,6.95l-11.04,26.84-13.3,28.8-10.7,21.69c7.98-.45,14.7-1.85,21.27-4.82l4-8.82c.18-.39,1.31-1.37,1.64-1.64s1.88,1.07,1.71,1.47l-3.3,7.45,4.42,8.49,8.37-10.97c.38-.5,3.69-.3,3.42.27s-.87,1.88-1.33,2.37l-9.79,10.4,3.22,6.36,5.53-3.48-2.54,5.8c.56,4.78,2.03,9.97,4.18,15.29l16.04-8.55c7.93-4.22,15.98-7.3,22.44-13.81.11-3.24-.08-7.91-.59-10.51-3.92-2.12-5.84-5.99-2.76-8.41,1.66,3.43,3.22,5.74,6.06,8.03l1.15,15.48,5.82,10.62.1-12.05c4.73,6.22,1.06,12.03,4.79,18.48ZM430.27,425.44l22.08-12.65c2.13-1.22,3.34-1.72,5.79-2.09l-4.68-11.65-24.56,21.08-3.02-.58,4.38,5.9ZM286.68,419.12c-5.39-.96-8.43-4.31-9.37-8.49-.78-3.48,2.08-7.13,4.66-10.12-6.92,2.19-9.99,11.5-5.3,17.34,2.29,2.86,7.69,2.59,10.01,1.27ZM326.54,430.18l2.2-18.11c.07-.55.31-2.63-.21-2.49l-1.61.42c-.35.09-.31.95-.42,1.54l-2.17,12.34c-.38,2.17-.23,4.19,2.22,6.3ZM252.75,411.12c-4.99,2.34-7.83,5.63-10.93,9.56,4.72-2.09,8.53-5,10.93-9.56ZM311.55,440.94c-.23,2.38-.4,3.8.96,5.86l4.14-23.22,1.99-11.15c-5.22.57-2.15,10.29-6.36,21.12l-.72,7.39ZM437.69,435.68c7.82-6.32,15.64-10.97,24.15-15.14l-3.15-7.87-26.9,15.41,5.9,7.59ZM347.14,442.8l2.15.3c-.2-8.02-4.63-9.71.37-16.14l-4.81-4.42c-2.15,3.24,4.73,7.19,1.94,7.94l-2.35.63c-.96-2.33-1.33-.98-1.21.24,5.41,4.99,1.75,11.13,3.9,11.43ZM332.57,435.71l1.57-7.15c.28-1.29-2.03-1.28-2.26,0-.37,1.7-.79,3.58-1.53,3.6l-3.74.09c1.11,1.34,3.01,2.34,5.96,3.44ZM461.2,480.45c-5.52,5.34-4.4,11.65-2.83,17.81l-3.35,14.41c-.23.99-2.28,3.19-1.62,3.99l3.2,3.9,13.11-28.37,10.48-21.45c-8.19-12.89-13.68-25.53-18.74-39.78l-18.63,13.27,6.08,9.41-4.1,2.65,1.71,11.03c.88,5.68,4,12.37,10.03,12.8l4.68.33ZM323.4,451.42c2.68-4.81,1.9-8.11-.94-10.04l-3.41,5.53,4.36,4.51ZM287.19,489.66l5.41,11.77c.21.46,2.09.98,2.22.48l.54-2.13c.25-1,1.36-3.31,2.36-3.23l3.35.28c-3.14,3.88-4.23,6.92-1.79,10.51l5.24-2.73,1.51-21.23-8.38,7.63-2.55-7.69-.35-41.3-10,20.97c.88,1.65,1.59,5.01,1.31,7.26l-.4,3.16c-.05.4-1.8-.46-1.96-.72l-1.14-6.59-16.35,35.65-6.89,18.38c3.76-1.62,4.4-3.4,6.76-5.71l7.86-7.71,4.59-6.63,8.66-10.4ZM300.85,466.04l-1.28-12.4c-.31-3.03.28-5.51-1.38-8.33l-.37,21.08,3.03-.35ZM369.52,457.02l-.94-11.22c-1.07.1-3.43.71-3.28,1.53l.57,3,3.65,6.68ZM318.76,492.11c-.53-.22-2.82.45-2.76-.02l.27-2.24,3.24-13.78c-.73-.39-2.63-1.28-2.44-2.16l1.1-5.02-7.36-7.18c.69-.99,1.8-2.32,2.29-1.87l2.42,2.2c.73.66,2.04,3.52,2.93,3.11s3.02-1.85,3.51-2.28l-5.31-5.84-3.35-.16c-.2-5,4.33-10.56,1.93-9.92l-3.64.97-2.15,17.23c2.12.09,7.05,4.17,6.62,7.18l-4.9,35c.43.06,2.3-.09,2.31-.59l.04-2.29c.01-.56.75-1.66,1.11-2.11.99-1.23,2.39,5.79,3.64,4.35l2.29-2.65-5.03-5.89c-.35-.41-.46-2.28-.29-2.79s1.74-.52,2.08-.11l4.92,5.83c1.57-3.14-1.04-7.92-3.48-8.95ZM364.57,464.78l-4.83-7.95.2,12.83,4.63-4.88ZM349.11,489.51l.14-27.12c-.77-.6-3.2-.83-3.08-.14l-.35,7.87-.6,13.55c-.13,2.93,1.66,5.5,3.89,5.83ZM337.41,475.99l-.19-10.01-1.12-.52-2,10.37-1.06,4.8c-.2.91,1.77,2.08,2.6,2.66l1.44-6.81.33-.49ZM338.16,477.18c-.07,1.81.04,3.04,1.74.08.4,1.81.17,4.63-.48,6.92l1.36,1.62c.4.48,1.28-1.47,1.34-2.3l1.27-16.72c-.48-.17-2.68-.33-2.68.07l-.03,2.82c-.03,2.29-.47,5.43-1.71,6.65l-.8.86ZM311.69,483.71l2.05-11.15-5.18-5.63.03,15.47c0,.74.58,2.38.89,2.83s2.07-.82,2.2-1.52ZM377.72,475.48c-.83-1.2-5.55-.95-7.22.66l-3.05-3.1-.84-3.73c-.16-.7-2.81-.72-3.26-.56.35,3.15.84,7.46,2.63,9.91,1.53,1.71,6.8,3.79,7.9,4.06l3.85-7.24ZM271.73,481.96c-1.11.72.38-.25.8-.52.28-.18,1.06-2.07.89-2.36l-4.39-7.86c-2.23,1.61-3.08,4.23-2.17,5.97,1-.25,3.38-1.21,3.56-.45l1.29,5.23ZM327.85,480.11l-5.6,2.8,2.1-8.79-1.83-.58-3.41,12.8,4.61,6.43,4.13-12.66ZM263.28,501.43l5.45-12.03-1.9-6.75c-.31-1.12-1.79-3.09-2.82-4.22-5.91,5.7,3.62,8.91,1.78,15.25l-6.43-7.98c-4.3,3.66-.78,10.97,3.92,15.72ZM359.83,494.53l-1.73-13.83-1.9.15.21,12.23c.02.91,3,2.04,3.42,1.44ZM186.13,482.03l-.63,2.17-3.86,12.71c8.94-12.07,5.34-17.84,4.49-14.88ZM451.68,496.53l3.16.88c-3.41-8.87,2.86-15.6-3.79-15.47-2.17,5.95-3.63,11.64-3.51,17.64l3.31,5.41.82-8.46ZM306.55,516.09l4.35-27.75c-3.58,6.69-4.48,13.43-4.54,21.28-.43,2.08-2.07,4.63.19,6.47ZM173.69,493.48l-5.41,14.17c5.15-4.66,8.07-8.68,5.41-14.17ZM193.96,523.96l1.02-.02,4.12,4,1.04-1.16-8.18-10.1-12.84-12.96,4.81.37,3.32-8.01-11.79,10.06,5.83,4.73-.85.87c-2.32-1.44-3.95-2.78-7.45-3.97l24.63,22.19-3.66-6ZM164.56,505.75l1.98-3.51-12.02-2.61c-.43-.09-2.51,1.45-2.1,1.61l1.7.63,10.43,3.88ZM161.41,510.45l2.17-3.35-9.17-3.03c-.98-.32-3.54-.63-3.93.18s-1.07,2.68-1.01,2.7l11.95,3.5ZM481.01,541.94l9.32,16.32c.78,1.37,3.65,3.37,5.09,3.13,1.27-.21,3.66-1.7,4.56-2.58l-10.43-20.8-15.91-34-5.79,12.95,1.83,4.25,8.45,15.41,3.09-1.86-1.76,4.19c-.27.63.96,1.95,1.55,2.98ZM159.1,511.39l-11.69-3.02-.44,1.74,9.12,3.33,2.96.76c.52.13.59-2.65.05-2.79ZM314.3,517.21l2.37-6.86-6.07-1.78-.02,10.59c.37.3,3.4-1.03,3.72-1.95ZM395.97,513.07l-2.75,16.6c2.15-1.52,1.82-3.33,2.5-5.67l2.89-9.96c.62-.75,1.87-2.54,2.25-3.32-3.17-.19-6.58.85-8.92,2.52l-6.15,4.39-3.63,14.15c5.24-5.67,6.34-11.56,9.53-17.71l.66,4.47,3.63-5.47ZM162.95,515.53c3.58.78,5.45,4.48,6.85,5.91.83.84,3.71.23,4.11-.42l-6.79-5.42c-.42-.33.81-2.35,1.23-2.01l2.04,1.67,6.28,5.08c2.57,1.37,4.4,2.33,6.34,4.02l10.58,9.2c-1.21-1.95-3-4.98-4.32-6.07l-5.61-4.59-14.83-12.12-9.88,6.63-3.87-3-9.16-2.62-9.01,15.73c-1.51,2.63-2.08,4.6-.13,7.22l5.05-3.11-1.64-3.17c2.34,1.12,4.44,2.33,5.4,1.66l3.25-2.26c-2.89-1.69-3.61-1.81-5.13-4.04l12.1,4.22,6.24-5.49-9.66-3.35c-2.49-.86-4.09-.75-5.84-3.16l14.75,3.45c1.68,1.49,4.13,3.72,6.6,3.35l-4.98-7.28ZM404.13,519.85l-2.69-6.61c-2,3.6-2.19,7.68-1.16,11.48l2.97-4.14.88-.73ZM329.68,526.29l2.53.88c.52.18,1.5-1.86,1.03-2.14l-2.14-1.27c-2.7-.32-7.48-1.72-8.21-6.66-4.05,2.93,2.36,9.31,3.65,9.28l3.14-.09ZM376.11,536.61c2.98-2.52,3.84-5.13,4.81-8.21l3.1-9.83-6.6,4.67c-.63.45-1.61,1.3-1.06,1.3h3.22s-3.48,12.08-3.48,12.08ZM404.45,520.37l-.52.71-1.74,8.79c-.06.33,1.18,2.04,1.34,1.75l.95-1.62,1.01-1.72c.21-.35,1.74.38,1.58.75l-.89,2.1c-.64,1.5-.99,5.63.87,5.8,2.75.25,2.86-3.33,2.06-5.28l-4.65-11.28ZM163.59,541.73c2.64-7.31,9.75-10.1,12.51-17.09l-14.85,2.87-3.94,4.11c-.79.82-4.52-1.72-5.52-1.15l-16.85,9.62c-5.43,3.1-8.39,3.21-7.64,12.74l7.82-5.35,7.98-4.53-4.28,4.34c3.48-.33,5.6-.36,8.67,1.17l8.6-12.62,1.74.59-7.91,10.9,3.63-2.13,7.38-6.77c-.07.54-1.08,2.98-.42,3.17l2.88.83.2-.72ZM163.97,543.42l-5.12,8.31,3.98,3.81,9.59-14.94,4.54.45,3.77-4.89-1.23-10.25-9.97,14.64-2.13-2.08-2.86,4.06-.57.87ZM366.89,534.64l2.83,4,1.31-6.6c.84.45,1.81,1.24,1.94,1.88l.55,2.89,2.68-7.28c.37-1-1.8-3.92-2.62-3.37l-2.9,1.94-8.27,7.92c-.99.95-3.53,3.31-3.02,4.54l2.02,4.9c.71-3.61.71-4.23,2.77-5.97l.25,6.84,1.09.05,1.37-11.73ZM451.14,546.8l8.73-20.32c-2.31-.63-4.06.66-5.06,2.82l-7.08,15.27c-.38.82-.18,2.88.5,3.35s2.56-.32,2.9-1.12ZM391.14,601.35c9.19-7.92,13.3-17.7,14.63-29.13.36-3.07,1.93-7.98,1.45-10.97-.69-4.26-2.62-9.53-4.64-13.39-3.54-6.75-11.56-8.11-17.93-9.19-2.68-.46-3.2-.65-5.82.89-5.45,3.19-12.72,8.77-14.42,14.75-.22.76.33,2.88.36,3.58s-2.75,1.29-2.95,2.03c-1.45,5.35-2.9,15.91.07,21.55l5.22,9.88c4.53,8.58,14.37,13.18,24.05,10.01ZM408.66,554.4l3.1-10.58c.46-1.58-.42-4.75-1.98-7.06l-1.25,10.82.13,6.82ZM181.45,547.56l-.15-7.95c-3.55,3.19-5.19,6.63-5.43,10.9l5.58-2.95ZM337.25,552.79l-5.53.48,5.14-2.97c-2.55-2.79-5.78-2.13-9.54-.72-.14,7.03,9.88,9.48,14.85,7.62.42-.16,1.34-1.95.99-2.14s-.7-.37-1.02-.11l-2.27,1.86-2.62-4.01ZM158.14,594.18c7.23-10.48,10.06-30.88,6.99-30.94l-2.85-.06c.81-1.96.8-4.98-.98-6.25-1.15-.82-3.23-1.75-4.68-2.38-1.32-1.38-3.75-3.52-5.7-3.77l-7.97-1c-4.36-.54-9.24.88-12.15,4.45l-11.69,14.35c-2.88,3.54-4.57,8.77-6.02,12.95-2.85,8.29-.31,16.56,6.66,21.39,5.04,3.5,9.48,6.65,16.29,4.47,7.62-2.44,16.93-5.73,22.1-13.22ZM167.82,578.42c5.61-2.37,7.48-5.94,8.28-10.86.55-3.39,6.86-5.45,4.66-18.32l-5.34,7.48.13,11.65-6.5,2.42-1.23,7.63ZM528.01,619.91c2.78,4.59,5.2,8.37,9.01,11.84-1.47-6.47-5.18-10.78-7.8-16.34l-6.45-13.64-7.94-16.04-14.04-25.25-4.92,3.72c.93,3.31,2.52,6.64,4.47,9.92l13.03,21.92,5.67.85c.08.14-.14,1.49-.56,1.59l-3.01.67,12.54,20.75ZM340.24,579.11l.55-6.59-1.22.43-2.55,16.76c2.19-3.16,2.86-6.41,3.21-10.6ZM355.79,592.81l3.21,8.65,2.44-10.38c1.9,4.05-1.33,9.08-1.13,13.14,1.25,5.34,3.83,10.55,6.1,14.98l.46-1.31-4.89-11.71c1.4-5.09,3.43-11.45,1.28-15.9l-4.69-9.67c-3.36,2.56-6.5,4.56-8.86,7.87-1.54,2.16,1.47,7.18,2.24,9.45l2.64,7.76c3,8.8,5.42,17.39,12.65,24.05l-13.2-34.65c-.95-2.49.73-6.99,2.88-8.85l-1.14,6.59ZM101.09,612.66c-.68,1.08.72,5.25,1.35,4.43l7.87-12.85-4.46-13.3,3.91.47-1.21-5.48-2.5,3.2c-3.11-1.42-9.58,1.06-9.55,5.48l.06,7.09c1.46.86,3.68,2.12,3.55,3.3l-.7,6.22,7.97-10.77.89.72-7.17,11.48ZM338.44,604.75l-.05-8.34-4.58-.64-1.51,11.91c2.01-.5,5.48-1.99,6.15-2.93ZM394.13,613.44c3.91-4.36,3.69-7.78.5-11.44-1.43,4.25-1.32,7.93-.5,11.44ZM84.87,623.97l13.18,12.79-.68-23.35c-3.36-1.35-3.68-4.03-2.31-6.74l.88-1.75c.19-.38-1.32-1.27-1.58-.95s-1.01,1.33-1.17,1.74l-3.01,7.36c.67,3.41.94,5.77.12,9.17l-1.66-5.84-3.77,7.59ZM149.24,603.56l-2.32,15.64c5.01.4,6.37-11.25,2.32-15.64ZM119.54,612.14c.13-.94,1.32-2.43,2.69-3.02l-2.23,7.37,6.99-6.68-7.13-3.23-7.81,9.17-5.96,7.96c-.91,1.21-1.84,2.57-1.56,3.49.23.76,2.34,2.24,2.63,1.77l7.79-11.12c.45-.64,3.86-.31,3.97-1.1l.63-4.61ZM371.3,621.12l2.9-13.88-2.97,5.57c-1.42,2.67-2.74,5.28.07,8.31ZM336.78,618.5c.49,2.26,2.56,4.89,4.35,4.73l-3.55-11.6-5.67-2.04-.47,9.91c-.03.55,2.53,1.05,3.06,1.18s-.18-1.73-.36-2.26l.3-2.69c.04-.39,1.69-.21,1.77.17l.56,2.59ZM349.37,625.96l-5.02-14.03-3.65-.03,3.18,9.89c.8,2.49,2.97,4.62,5.48,4.17ZM103.25,624.57c3.6-3.4,5.97-7.63,5.15-12.71-3.7,3.9-5.8,7.82-5.15,12.71ZM353.32,628.55l1.52-.12-5.45-16.3-1.61.95,5.55,15.47ZM388.77,622.03c4.26-2.99,3.41-6.2,1.71-9.7-2.46,2.35-2.59,6.06-1.71,9.7ZM334.2,630.55l3.66,10.48,5.13,1.17-6.07-16.11c-.44-1.16-4-2.64-4.09-2.26l-3.47,3.85-1.66,10.37,7.07,2.15c-1.26-4.46-2.8-5.97-.57-9.63ZM375.5,629.15l1.88,7.61c2.4-1.7,3.75-4.24,3.29-7.52-.34-2.4-1.6-4.72-3.29-5.16l1.78,5.14-3.66-.07ZM342.89,626.82l-2.78-.08,6.01,16.51,2.5-.08-5.74-16.35ZM78.19,647.26l18.63,5.61,1.02-12.33-12.51-13.27-1.28,3.56c-.2.56-1.47.19-2.87.02l-2.99,8.41c.69,3.23.76,4.96-.01,7.99ZM355.84,646.52l-4.11-14c-.56-1.92-3.32-3.78-5.4-4.02l4.21,13.6c.73,2.37,2.6,3.93,5.3,4.42ZM374.61,640.63c-.39-13.93-6.08-13.4-5.39-11.83l1.09,2.48,1.18,2.69c.24.54-.6,1.35-1.32,2.31l4.43,4.34ZM360.94,648.77l-5.38-16.56c-.1,5.94,1.13,12.02,5.38,16.56ZM331.15,655.61c.34,1.4,2.72,3.1,5.19,2.84l-4.93-12.14-.83-3.9c-.18-.83-2.64-1.04-3.44-.93l-2.04,11.22c-.14.75.28,2.93.99,3.1.55.13,2.07.49,1.71.41l.54-3.68c.06-.42,1.99-.33,2.09.09l.73,3ZM337.5,646.29c-.35-1.12-2.31-2.71-3.76-3.11,2.45,6.9,3.82,12.29,8.28,17.71l-4.52-14.6ZM349.49,662.19l-4.85-15.29c-.47-1.48-3.85-2.31-5.09-1.93l5,14.13c.58,1.63,2.48,3.15,4.94,3.09ZM355.24,664.59l-4.82-15.8-3.28-2.53,4.31,13.87c.77,1.69,1.92,3.27,3.79,4.46ZM361.17,666.5l-3.81-14.72c-.38-1.46-2.46-3.1-4.63-3.51l4.82,14.67c.42,1.28,2.07,2.81,3.62,3.56ZM97.77,664.04l-1.3-8.88-12.85-2.63c-.92-.94-3.94-2.7-5.08-1.66-1.61,2.84.65,6.76,3.04,8.94l17.87,16.28c1.71-1.01,2.95-4.36,2.27-6.75-.42-1.5-2.11-3.18-3.94-5.31ZM366.77,667.82c-1.37-6.08-1.48-12.81-7.07-17.72l3.39,15.15c.19.84,1.97,2.03,3.67,2.57ZM70.28,671.01l1.74,6.09,25.86,3.34c-3.89-6.72-10.57-10.81-15.58-16.09l-11.12-11.7-.98,12.45-1.94-5.01c-2.42,5.05-4.08,9.99-5.18,15.66l7.03,1.42.18-6.16ZM325.51,664.04l1.99-.58,6.35,14.04,1.66-.75-5.42-15.32c-.56-1.57-4.25-2.94-5.74-3.01l-1.89,11.01c2.03,3.35,3.26,5.49,7.27,6.64l-4.22-12.03ZM343.8,678.64l-4.46-13.59c-.89-2.72-4.06-4.57-6.19-3.35l4.94,15.77,5.71,1.17ZM347.22,679.63l1.97-.64-5.97-15.83-1.6,1,5.61,15.47ZM355.33,680.97l-3.96-12.89c-.62-2.01-1.89-3.4-4.72-3.63l4.88,14.7c.36,1.09,2.8,2.24,3.8,1.82ZM361.03,682.85l-4.27-14.74c-.18-.61-1.07-1.86-1.4-1.64l-1.76,1.16c2.82,4.46,1.38,11.71,7.43,15.21ZM364.58,674.69l-.82-2.03c-.84-2.07-1.77-3.7-3.92-4.61l3.99,15.75c2.19-4.61,3.53-9.46,3.18-14.11-2.15-.48-1.27,7.86-2.43,5.01ZM326.85,687.45l-4.41-12.03c-2.13,2.46-2.02,6.43-.78,8.37.97,1.51,3.16,3,5.19,3.66ZM336.12,692.91l-4.5-13.4-5.18-2.08,3.64,12.28,6.04,3.21ZM88.97,687.17l2.88-.27c.34-.03,1.02-1.43.99-1.77l-.21-2.96c-.05-.67-2.09.31-2.28.95l-.89,2.85-1.13-4.29-15.57-1.3-1.23,4.55-1.13-4.89-6.87-.97.08,6.64,7.72,10.91,1.04-3.58,1.59,8.16,5.77-4.56,4.73-2.52,4-2.79c.8-.56.52-3.73.51-4.16ZM337.26,681.01l-3.15-1.64,5.38,14.87,1.87-.29-4.1-12.95ZM348.82,693.25l-3.55-10.84c-.49-1.49-3.73-2.3-5.72-1.98l3.89,11.65,5.39,1.18ZM353.69,691.31c-1.46-3.79-2.36-7.34-5.52-9.79l3.63,12.43c.14.49,3.16.66,2.98.19l-1.09-2.83ZM360.32,693.75l-3.09-8.47c-.25-.69-1.25-1.71-1.73-2.12-.31-.27-1.85,1.23-1.7,1.61l3.48,9.37,3.03-.4ZM61.45,691.43c.5-2.6.97-3.69-2-6.05l-2.63,24.6.91.57,3.72-19.12ZM333.29,705.81l-5.71-15.01-1.36,15.48,7.07-.47ZM338.44,696.19l-7.24-2.98,3.2,8.55,4.04-5.57ZM52.13,712.48c2.89-5.7,3.33-11.52,2.39-17.08l-2.39,17.08ZM331.95,708.99l-4.05.19c-.88.04-1.22,3.33-.85,4.14l1.74,3.81,3.16-8.14ZM54.5,720.5l-12.5,12.5,1,1,12.5-12.5-1-1ZM311.63,746.4l2.81-21.06c-3.24,1.27-3.41,3.97-1.91,5.87-1.49,5.31-2.14,10.25-.9,15.19ZM23.36,747.95l10.37-10.95c2.11-2.22,3.87-6.26,5.23-9.6l-6.82,7.26c-3.78,4.03-7.54,7.93-8.78,13.29Z"/>
  <path d="M101.86,57.31c-11.51,10.56-21.22,14.7-27.63,19.64-7.62,5.87-12.51,15.71-15.87,24.75-2.23,5.99-2.61,12.69-4.15,18.95-1.27,1.53-4.52,4.26-6.4,4.88-3.32,1.08-7.01-3.68-6-7.02l4.02-13.23c-5.84-1.32-12.69,10.76-16.4,18.68-2.15,4.59-2.13,10.41-2.68,15.51-1.8,16.63-.32,32.9,14.17,41.21l2.36,13.38,13.8,13.73c-8.84-.95-13.62-8.61-17.67-14.66l-1.09-10.79c-4.69-3.46-9.39-7.26-11.33-12.8-3.06-8.73-4.31-18.08-3.5-27.25.5-5.61.64-11.73,2.46-16.93,2.67-7.66,7.13-14.52,12.4-20.42,2.08-2.33,7.81-2.88,10.03-.61,1.65,5.29-5.72,11.33-2.53,18.26,4.01-.25,6.41-4.38,6.56-7.86.52-12.37,5.63-22.66,12.23-32.48s18.29-13.05,28.29-21.73l15.06-13.07,15.95-13.2c10.01-8.28,45.72-21.38,48.8-10.96.41,1.4-1.27,4.33-2.66,5.17-9.27,5.52-15.95,13.11-20.2,23.08,9.74-2.95,11.97,3.18,21.02-3.22,7.08-5,15.29-7.95,22.97-12.07l9.05-4.85c28.5-11.95,56.38-23.13,87.87-21.69l15.28.7c1.7.08,5.6,3.31,4.98,4.92-5.09,9.23-13.52,15.09-23.07,19.21-26.07,11.26-50.22,24.86-72.81,42.06l-18.84,13.15c-10.01,6.99-19.5,13.3-27.88,22.28-9.32,9.99-22.74,18.33-24.91,23.41-1.3,3.03,9.48,6.97,1.88,16.53-2.57,3.24-4.96,7.91-8.27,10.6-9.18,7.48-19.06,12.85-29.08,19.07-5.62,3.49-7.76,10.59-10.76,16.14s-8.71,9.17-13.86,13.23c-1.75,1.38-4.39,1.41-5.47-.06,5.68-5.01,12.04-8.48,15.89-14.6,3.59-5.71,5.51-13.52,11.63-17.36l23.38-14.68c6.08-3.82,10.34-9.71,14.43-15.53,4.59-6.54-3.14-8-3.18-13.79-.01-1.85,2.27-4.89,4.06-6.33,9.42-7.57,17.86-15.13,26.35-23.65,5.44-5.45,11.51-9.85,17.83-14.17l15.43-10.54,14.08-10.02c22.76-16.2,46.8-29.3,72.23-40.6,7.75-3.44,13.27-8.6,18.06-15.76l-28.22-1c-22.61-.8-66.11,15.91-88.29,27.15-8.06,4.09-15.17,8.23-22.74,13.39-3.02,2.06-8.43,0-11.56.38-4.27.51-7.05,1.59-11.18.01,3.67-13.23,11.95-22.47,23.76-29.72-3.65-2-6.56-2.1-9.62-1.27-10.92,2.97-22.09,5.96-31.64,12.35s-18.26,14.24-26.81,22.08Z"/>
  <path d="M177.04,126.21c-4.5,2.59-8.49,7.03-12.39,9.78-13.16-5.09,7.37-23.71,19.82-30.93l11.94-5.37c3.79-1.7,10.93-1.72,12.26,2.62-.52,5.76-6.48,9.41-10.87,11.94l-20.75,11.96ZM171.68,125.73c8.5-5.92,16.75-10.45,25.5-15.12,3.54-1.89,6.03-4.48,8.77-8.37-4.75-1.08-7.81-.18-11.72,1.32-8.09,3.09-14.52,7.54-20.7,13.44-4.76,4.54-10.51,8.57-10.09,15.71l8.24-6.98Z"/>
  <path d="M180.06,750.51l-15.98.6c-.44-1.69,1.69-3.77,3.79-3.78l22.2-.18c17.27-.14,43.96-5.6,55.57,4.14-6.24.41-11.16-2.33-16.75-2.58-16.39-.73-32.44,1.2-48.82,1.81Z"/>
  <path d="M209.96,18.01c-5.39,1.52-10.79,2.06-13.53-4.13,7.7-7.74,22.52-15.7,24.48-9.52,2.34,7.4-4.5,11.84-10.95,13.66ZM218.66,4.82c-7.68.61-13.39,4.19-18.03,10.79,6.81,1.35,17.74-3.16,18.03-10.79Z"/>
  <path d="M350.93,770.15c-9.66-.59-18.58-.75-27.85.21l-2.26-.5c-.57-.13,1.15-2.02,1.73-2.1l10.32-1.35,31.15.78c3.48.09,7.41-1.55,10.02,3.33l-23.1-.37Z"/>
  <path d="M154.49,773.62l-27.52,1.27-10.5-.14c4.56-4.02,9.45-2.07,14.5-2.43l23.08-1.64,16.88.62c4.54.17,8.42.3,12.24,1.82l-28.69.5Z"/>
  <path d="M204.62,770.24c-7.99-1.37-14.03-5.84-21.18-8.23-4.75-1.59-10.3-1.05-12.91-6.93l8.15,2.62c8.9,2.87,18.91,4.56,25.95,12.53Z"/>
  <path d="M309.19,771.7c-3.45,1.76-6.84.16-10.14-1.3l-18.1-8.01c-1.77-.78-3.05-2.84-2.52-4.38l15.72,6.43,15.04,7.26Z"/>
  <path d="M272.38,766.48c-6.3-4.64-13.89-4.87-21.58-8.79,11.47-2.43,21.71,4.91,30.84,11.32-4.03,1.9-6.4-.42-9.26-2.53Z"/>
  <path d="M86.61,178.21c-1.27.58-4.5-2.75-3.93-3.74l3.83-6.65c4.23,3.04,3.32,8.94.1,10.39Z"/>
  <path d="M490.98,760.44c-5.15,1.27-10.27.61-15.55-1.54,4.6-2.62,10.52-2.48,15.55,1.54Z"/>
  <path d="M93.81,169.39l-1.99-1.43c-.44-.32.86-2.12,1.33-2.49l6.81-5.52c-.62,4.61-3.34,6.75-6.15,9.45Z"/>
  <path class="st0" d="M199.85,285.16c-5.61-3.6-11.19-6.44-15.87-10.78l-.16-7.75c-.42-.2-2.56-.14-2.71.5l-.9,3.86c-6.07-4.14-10.86-9.81-15.61-16.6l-8.03.67c-2.08-4.25,2.4-7.57,5.55-9.41,4.54-2.64,7.86-2.03,12.23.59l18.69,11.18c4.19,2.51,8.59,5.38,13.76,4.44l-14.31-7.85-18.19-10.62,21.48-15.04,7.24-4.84,4.99-4.02,25.06-17.79,11.76,2.32.21-2.38-8.75-1.76c-.87-7.37,4.43-14.65,12.55-14.23l8.87,10.83c.35.43,3.43-.39,3.09-.83l-1.79-2.3c-13.73-12.28-16.94-29.31-16.04-47.8l4.68-11.49c-4.69,2.32-7.43,6.95-7.51,11.41l-.29,15.98c-3.24,1.93-10.49,3.26-13.49,1.03l-8.86-6.58c-4.44-3.3-8.77-5.24-15.03-6.65,5.69-3.43,12.14-3.68,18.64-1.96,4.56-10.45,9.02-22.06,17.9-29.64,3.61-3.08,7.21-5.26,9.91-9.28s6.81-6.64,10.89-9.09c15.56-9.35,33.56-7.45,47.34,3.73l31.24,15c10.63,5.76,20.78,12.4,24.65,24.88l-6.16-5.35-3.65,2.34-19.81,9.34-5.77-2.29,2.12,5.05-5.38,3.44c-2.43-3.13-2.28-8.15-8.63-8.38l6.16,9.96-13.59,9.9-6.44,3.66-7.21-1.32-.36,9.4-9.31,8.33c1.96,2.77,2.59,3.74,3.51,6.05,4.75,11.99,11.83,22.15,19.48,32.41l8.65,11.61c1.58,12.6-6.62,13.68-8.81,19.38l6.43-1.8c1.43-.4,5.45,2.43,4.58,3.6l-5.32,5.71-5.14,7.11c-5.23,7.23-12.73,12.46-19.54,18.33-5.41,4.67-11.46,7.93-17.7,11.37-7.31,4.02-14.65,6.74-23.16,7.07-1.29.05-3.12.51-3.62-.2l-2.45-3.5c-.38-.54-1.99,2.06-2.59,1.85l-2.73-.96c-4.06-1.42-5.53-4-5.56-9.02-.47-.12-3.03.31-2.92,1.13l.64,4.7c-10.43-4.13-19.13-10.39-28.92-16.67ZM293.33,220.78c-3.5-2.76-5.1-3.62-9.39-2.54-3.89.98-7.52,2.24-11,4.26l-24.85-5.93c-.64-.15-2.97.79-2.47,1.22l1.7,1.5,52.88,12.75c1.37-6.02-3.13-8.33-6.87-11.28ZM243.37,233.74c-3.39-3.04-6.03-4.64-9.55-5.51,1.07,4.53,5.77,6.38,9.55,5.51ZM306.08,244.44c-.49-2.38-1.44-4.57-2.33-5.57l-11.53-.17c-.65,0-2.03.92-2.38,1.43-.23.34.31,1.62.72,1.61l2.4-.04c5.21-.09,8.36.63,13.12,2.73ZM271.29,247c-1.38-2.4-2.58-2.33-4.29-2.23-11.05.66-21.62,1.36-32.4.21l-36.13-3.87c-.11.71.15,2.45.84,2.62l2.72.68,30.99,2.28,15.93.91,22.34-.61ZM238.79,269.96l38.5-5.89,19.58-9.41-1.7-5.13-15.62,6.51-12.19,5.02c-1.92,1.65-4.67,2.83-7.54,3.19l-19.79,2.54-2.3.26c-.49.05.34,1.65,1.06,2.9ZM220.77,284.11c3.06,5.33,7.92,3.94,12.15,5.59,11.57,4.5,25.65,6.8,36.68.37l12.59-7.33,20.64-20.85c-1.37-1.62-3.17-2.67-3.66-1.95l-1.99,2.95-24.39,16.39c-4.63,4.3-9.9,7.14-15.55,8.65l1.31,1.84c.22.31.27.61-.09.65l-2.37.26c-7.6.84-13.62-.46-20.59-2.42l-14.73-4.15Z"/>
  <path class="st0" d="M256.47,510.92c-3.73-6.45-.06-12.26-4.79-18.48l-.1,12.05-5.82-10.62-1.15-15.48c-2.84-2.28-4.4-4.6-6.06-8.03-3.08,2.42-1.16,6.29,2.76,8.41.51,2.6.7,7.27.59,10.51-6.46,6.51-14.51,9.59-22.44,13.81l-16.04,8.55c-2.15-5.33-3.62-10.52-4.18-15.29l2.54-5.8-5.53,3.48-3.22-6.36,9.79-10.4c.46-.49,1.07-1.8,1.33-2.37s-3.05-.76-3.42-.27l-8.37,10.97-4.42-8.49,3.3-7.45c.18-.4-1.37-1.75-1.71-1.47s-1.46,1.25-1.64,1.64l-4,8.82c-6.57,2.97-13.29,4.37-21.27,4.82l10.7-21.69,13.3-28.8,11.04-26.84c1.62-3.93,5.15-8.2,9.77-6.95l19.78,5.34-8.28,7.92c-3.62,3.46-7.61,7.58-7.32,12.76l15.4-16.64,1.81-2.85c.49-.77,3.06,1,3.94,1.37l12.16,1.8c-2.4,1.69-2.61,2.86.87,3.19l-19.1,17.09-9.31,7.93c-5.62,4.79-12.73,5.77-8.98,6.68l3.58.87c17.23-9.67,33.22-19.41,49.41-31.03,12.99-1.26,11.76,9.14,20.71,9.15,3.62,0,7.74-1.31,10.58-3.02-.34-1.21-.98-2.64-.39-2.77l2.59-.56c.74-.16,1.59,2.08,1.54,2.89l-.99,14.74c-.12,1.82-3.39,4.54-5.06,4.87l1.07,2.29c.36.77-.28,3.31-1.11,3.14l-4.52-.94,2.67,3.21c.67.81-.51,3.63-.77,3.7-1.45-1.6-3.08-2.85-3.92-2.45l-12.98,16.43c-6.67,8.44-12.31,17.1-16.86,26.74l5,10.59-2.47,9.31ZM199.12,434.77l.75-4.41c-4.21,3.83-7.98,7.5-9.05,13.73,3.62-2.63,5.41-5.61,8.3-9.32ZM256.02,459.63c-1.39,1.48-2.35,2.57-2.56,2.22l-1.07-1.76-1.33-2.2c-.28-.46-2.64.2-2.44.67l2.52,6.11,1.24,5.06,10.68-9,3.1.22c1.26.09,1.13-6.13,5.59-11.03l-1.4-3.13,2.47-14.51-2.32-1.63c-.4-.28-1.64,1.17-1.83,1.66l-2.49,6.7-3.42-4.39c-.33.03-2.09,1.01-1.81,1.44l1.39,2.14c1.92,2.96,2.29,5.81-.22,8.68l-5.61-5.63c-.85,3.99,1.48,5.44,3.93,8.35l-3.34,6.73-4.8-6.99c-.98,1.26-1.41,3.47-.76,4.34l4.48,5.94ZM253.91,439.1l1.24-1.95c.22-.35-2.24-.89-2.5-.56-1.96,2.58-7.06,7.35-6,11.67,2.82-2.69,5.18-5.86,7.26-9.16ZM218.33,480.25l10.46-16.96c4.31-6.99,10.05-13.56,10.98-22.61-7.1,7.1-10.19,16.34-15,24.47l-16.22,27.43c5.09-2.74,6.9-7.67,9.78-12.33ZM199.17,449.09c-3.15-2.58-12.89,5.38-13.07,10.22l13.07-10.22Z"/>
  <path class="st0" d="M308.39,373.33l2.75,4.58c1.58-3.15,4.65-5.48,7.4-5.22l4.4-4.53c-.49,4.41-.75,10.33-3.01,13.1l-10.07,12.32c-2.38,2.91-6.65,6.07-9.65,8.05l-5.41-1.99-6.61-2.42,9.53-16.85c.42-.75.55-3.02-.15-3.06s-2.17.66-2.53,1.29l-10.32,18.31-10.94,4.47-4.1-.02,8.26-14.01,1.42-2.41c.41-.69-1.5-2.27-2.04-2.15-1.95,1.86-5,5.53-7.11,6.58l-17.09,8.47c-6.46.51-14.28-3.7-20.58-5.8l4.65-4.82c-3.93-2.09-5.96,1.23-7.56,4.49l-18.31-6.56,13.71-6.68c10.58-5.16,19.81-12.36,28.98-19.85l22.03-18.02,14.41-10.15-8.67,16.65c5.29-2.71,8.92-9.01,9.65-14.56.44-3.34.44-5.71,4.56-7.86-1.62,6.45-3.8,12.39-7.18,18.71-1.95,3.64-1.84,14.38-11.52,22.65l4.75-12.68c-5.67,2.71-4.82,11.43-10.93,15.49l2.51-9.65-8.34,12.86c.72-4.09,2.99-5.06,2.35-9.51l-7.87,12.84c-3.39,2.38-8.62,5.07-5.58,10.74l11.88-7.98c-.38-.56-1.71-1.77-2.32-1.45l-3.38,1.78c1.49-4.81,7.2-6.91,12.04-6.27l22.44-9.39,1.11,5.59-2.44-.45c-2.06-.38-3.4,5.16-4.38,9.54l-2.96,13.37c5.51-7.38,3.7-17,11.73-23.59l1.07-5.64,10.49-4.08,1.6,7.99c.7,0,2.92-.88,2.77-1.6l-.74-3.56-.71-3.4c-.14-.66,1.52-1.19,2.67-1.41l2.39,8.01-9.06,9.76ZM267,355.33c3.54-.87,4.73-3.08,6.33-5.49l3.17.07c2.89-3.77,6.72-7.11,6.37-12.92l-7.38,10.62-1.31-3.59-7.18,11.3ZM264.17,362.61l1.41-2.63c.23-.43-1.67-1.1-2.1-.89l-1.96.97-20.07,20.6,1.18.98,21.54-19.03Z"/>
  <path class="st0" d="M404.1,285.06c-.87.35-2.37,2.46-2.57,3.69l-.52,3.21c-.11.69-2.04-.11-2.92-.5l4.1-15.39,3.19,8.77.17.52,5.1,10.91c-1.11,3.27-1.99,6.74-2.27,9.63l1.48.9,2.52-6.49,10.88,25.4-10.24-8.73c-.27-.23,0-3.07-.05-3-.03.05-.83-.03-2.27-.17-.59,5.03-.98,9.38.02,15.5,1.56-3.83,1.45-4.43,2.66-8.75l2.1,8.59,2.17-2.97c6.83,4.06,11.92,11.01,15.06,18.78l14.36,35.5,3.92,10.61c-1.58-.07-4.21.22-5.19.95l-24.75,18.42-12.41-21.59-12.9-24.39,13.24,12.01,13.84,16.11c.4.47,1.26,2.04,1.69,1.77l2.36-1.51c.56-.36-1.33-2-1.8-2.58l-19.18-23.7-1-20.49,15.68,17.9c.42.48,1.46,1.16,2.01,1.31s2.19-.93,1.97-1.45-1.13-2.08-1.58-2.52l-4.77-4.64,2.2-3.08-11.66-14.02-1.33-13.81,1.86-18.17-.81-1.24-1.83,1.09c-.46.27.03,1.91,0,2.48l-.71,9.41c-.56.54-2.5,1.36-2.48,2.06l.18,4.89c-1.55-1.22-2.46-4.42-1.94-6.87l2.18-10.22,4.29-16.55c-5.29,1.21-3.29,4.74-4.55,7.92-.5-.63-1.45-3.56-1.14-4.73l2.56-9.66-.92-1.12ZM415.6,339.32l-4.3-9.57c-1.71,5.3.18,9.23,2.32,13.03,1.37-.33,2.21-.45,2.18-.86l-.2-2.59ZM422.59,343.61c-.68-3.9-.94-6.95-3.46-9.44-1.7,12.34,4.32,14.39,3.87,11.81l-.41-2.37ZM409.86,354.05l1.26,16.27c4.53,1.16,2.93-12.76-1.26-16.27ZM421.01,373.17l-3.96-8.47c-2.46,3.72.29,9.16,1.92,11.49.31.44,2.79.03,2.67-.49l-.62-2.53Z"/>
  <path class="st0" d="M126.36,278.57c8.86,4.11,16.12,8.22,21.48,15.11,1.92,2.46,1.72,6.95,5.87,8.61,1.12-6.35-3.9-11.4-7.21-16.1l-3.84-5.45c-1.16-1.65-2.54-4.05-2.55-5.42l11.86-.24-9.07-5.13c5.98-5.54,11.7-10.44,18.89-13.65l20.9,27.48,8.07,8.28c-6.16,6.63-13.39,12.76-20.88,18.3l-15.57,11.52c-6.61,4.89-13.56,7.33-22.97,5.32,7.28-17.18,3.25-24.54-3.51-40.54-.87-2.05-1.3-4.75-1.46-8.1ZM167.28,295.21c-.74-2.98-4.84-7.01-7.64-8.88l2.07,16.96c2.85.26,6.53-4.21,5.57-8.08ZM154.65,309.43l-6.29-3.35-8-13.03-2.19,1.42c4.86,5.99,6.28,10.83,5.82,18.19-.12,1.91,2.64,6.01,4.52,4.68,2.78-1.98,4.38-4.81,6.14-7.92Z"/>
  <path class="st0" d="M249.88,318l-8.98,10.46-1.5,4.76c1.44,3.02,2.7,5.84,5.55,8.28,1.02-4.25-1.03-6.2-2.98-9.41l4.33-5.45,2.43,1.68c1.47,1.01,8.05-12.47,15.71-14.56l-8.23,7.95c1.2.57,3.3.68,3.96.08l7.56-6.89c4.95,2.45,5.83-3.49,13.76-7.14,7.19-3.31,9.78-12.2,13.37-7.73l-21.33,20.07-11.94,9.97-16.85,12.15-18.67,13.43-16.21,9.45-3.4-21.84-2.36-25.76c-.86-9.38-1.48-18.19-.61-27.31,4.46,7.92-2.2,19.86,2.83,23.02l1.22-20.12c4.39,6.52,1.49,13.09,2.93,20.65,4.45-5.66.59-11.14,2.16-17.62l2.33,16.35c1.86-4.58,1.44-8.26,1.35-13.16.29-.1,3.53,1.62,3.53,2.56l.03,12.2,1.69,1.58c1.8,1.68-.53-8.81,1.98-13.54,2.93,4.63-.28,10.66,4.39,12.45l-.77-10.3c.09-.09,2.6.44,2.53,1.01l-.44,3.49c-.14,1.15-.1,3.71.24,4.7s2.82,1.06,4.95,1.39l-13.23,24.93c3.17-2.89,5.39-5.54,7.13-8.47l9.31-15.7,4.14,2.3c2.39,1.33,3.39,1.43,8.06.06ZM237.59,338.62l-1.3-3.04c-.25-.59-2.27-.1-2.47.51-.13.41-.19,2.24.03,2.61l4.05,6.56c1.99-2.43.78-4.1-.31-6.63Z"/>
  <path class="st0" d="M101.17,290.36c-2.87-1.23-6.34-2.22-9.31-1.34l-15.79,4.63.49,1.83c.45,1.69,10.21-3.26,19.39-4.4,2.49-.31,4.56,4.02,4.56,6.03,0,2.79-1.42,6.33-3.57,8.08l-2.44,1.98c-.5.41-2.33-1.11-2-1.14l1.51-7.91-3.85,5.6c-4.25.95-9.19,2.55-12.98,4.59l.98,6.11-8.95-5.71.83-8.62c-2.1-1.29-4.14-2.39-4.61-3.62-1.83-4.79,5.63-7.19-.34-11.84l-2.7-2.11c-1.82-1.42,4.76-6.39-.29-10.41-1.06-.85-1.06-4.2-.05-5.26l12.3-13.02,5.55-5.97,6.23,2.27,13.5,4,.08,6.08-11.82-1.56c-3.18-.42-5.01-.97-8.01-2.67-.72.37-.27,2.02,1.17,4.16l-13.23,10.17-1.67,1.17c-.39.27,2.01,1.72,2.56,1.33l17.27-12.34,14.18,1.92c1.35,2.32,3.25,6.82,2.3,9.77-.7,2.17-6.62,3.8-8.49,2.49-1.55-1.08-4.17-3.22-5.71-3.07-3.39.32-5.47,5.1-7.49,6.42l-11.55,7.56c3.47,2.67,7-3.73,21.53-6.39l11.21-2.06c4.44,3.1,3.57,10.49-.8,13.25Z"/>
  <path class="st0" d="M461.2,480.45l-4.68-.33c-6.02-.43-9.15-7.12-10.03-12.8l-1.71-11.03,4.1-2.65-6.08-9.41,18.63-13.27c5.07,14.25,10.55,26.89,18.74,39.78l-10.48,21.45-13.11,28.37-3.2-3.9c-.66-.8,1.39-3,1.62-3.99l3.35-14.41c-1.56-6.16-2.69-12.47,2.83-17.81Z"/>
  <path class="st0" d="M299.19,203.81c-2.48-1.13-5.17-3.67-4.91-5.84l15.81-17.34,10.3-2.32-4.08-7.44,8.48-6.88,8.16,13.83-11.74,6.9c-3.28,1.93-4.9,2.73-9.45,2.56.13.98,2.62,2.66,4.19,2.8l10.94.99c2.08-1.13,5.54-3.29,7.64-5.21,1.75-1.61,1.99-7.62.83-9.7l-6.06-10.91,7.94-3.28c.13,4.32-.57,7.65-1.8,10.61l9.06,13.21c-8.98.13-25.64,10.29-25.03,17.89,5.01-4.77,8.33-8.85,13.65-11.05l12.18-5.02c2.75,4.71,5.34,9.8,6.34,14.16.48,2.09-4.82,9.48-8.75,8.31l-2.29-.68c-.35-.1-.58,1.42-.24,1.54l2.44.84c-6.51,6.94-14.61,5.28-22.58,1.64l-21.05-9.6Z"/>
  <path class="st0" d="M158.14,594.18c-5.17,7.49-14.48,10.78-22.1,13.22-6.81,2.18-11.25-.98-16.29-4.47-6.97-4.83-9.51-13.1-6.66-21.39,1.44-4.18,3.13-9.41,6.02-12.95l11.69-14.35c2.91-3.57,7.79-5,12.15-4.45l7.97,1c1.96.24,4.38,2.39,5.7,3.77,1.45.63,3.53,1.56,4.68,2.38,1.78,1.27,1.79,4.29.98,6.25l2.85.06c3.07.06.24,20.47-6.99,30.94ZM153.96,567.58c1.11-1.38,2.34-3.31,1.66-4.17-.64-.81-2.31-2-3.23-2.03s-2.33,1.38-3.26,2.65c-.75,1.02-.69,3.91.23,4.7,1.14.98,3.52.2,4.61-1.15ZM150.36,578.55c-1.62-1.22-1.99-1.58-2.23-1.36-.38.34-1.73,1.52-1.57,1.52s-1.31-1.09-2.16-1.75l4.89-7.09c-6.23-.91-6.01,13.56-14.23,16.96l8.11-15.1c-5.92-.16-4.91,13.17-12.99,14.09l8.46-14.77c.41-.28,1.21-.79.98-.96l-1.73-1.26,8.24-4.63-.81-1.05-7.73,3.98-6.13,3.2-6.41,9.56-1.87-.51,5.67-10.26c-6.13,3.36-6.39,9.64-10.04,14.12-2.72,3.33-4.12,7.64-3.09,12.01.77,3.27,4.41,5.94,8,7.63,7.54,3.55,17.67.73,24.41-5.44,10.05-9.19,16.68-26.74,12.16-28.82-.84-.39-2.6.94-3.24,1.71l-6.69,8.2Z"/>
  <path class="st0" d="M391.14,601.35c-9.67,3.17-19.52-1.43-24.05-10.01l-5.22-9.88c-2.98-5.64-1.52-16.19-.07-21.55.2-.74,2.98-1.32,2.95-2.03s-.57-2.82-.36-3.58c1.7-5.98,8.97-11.56,14.42-14.75,2.63-1.54,3.14-1.34,5.82-.89,6.37,1.08,14.4,2.44,17.93,9.19,2.02,3.86,3.95,9.14,4.64,13.39.48,3-1.09,7.9-1.45,10.97-1.33,11.43-5.44,21.21-14.63,29.13ZM375.11,595.09l6.52.49-.06,2.97c-.03,1.25,5.29,2.54,8.59.26,8.46-5.86,10.6-15.54,11.31-25.27.46-6.41,3.86-13.04.79-19.06-1.27-.4-3.53-1.32-3.34-2.26l.73-3.78c-.12-.23-2.11.37-2.15.98l-.13,2.21c-.23,3.71-1.14,7.13-3.96,9.37.32-5.89,1.2-8.85-1.52-13.91l-6.59,4.07.06-2.22c0-.38-1.13-.3-1.24.06l-.57,1.96c-1.09,3.74-2.3,6.66-4.26,10.06l1.4-10.24-6.52,16.81-.33,11.57-4.35,5.18-.12-14.62c-2.63,5.96-2.02,12.96-1.08,18.28,3.1,1.18,5.32,3.41,6.84,7.08Z"/>
  <path class="st0" d="M287.19,489.66l-8.66,10.4-4.59,6.63-7.86,7.71c-2.35,2.31-3,4.1-6.76,5.71l6.89-18.38,16.35-35.65,1.14,6.59c.16.26,1.91,1.12,1.96.72l.4-3.16c.29-2.25-.42-5.62-1.31-7.26l10-20.97.35,41.3,2.55,7.69,8.38-7.63-1.51,21.23-5.24,2.73c-2.44-3.6-1.35-6.63,1.79-10.51l-3.35-.28c-1-.08-2.11,2.23-2.36,3.23l-.54,2.13c-.13.5-2-.01-2.22-.48l-5.41-11.77Z"/>
  <path class="st0" d="M481.01,541.94c-.59-1.03-1.82-2.35-1.55-2.98l1.76-4.19-3.09,1.86-8.45-15.41-1.83-4.25,5.79-12.95,15.91,34,10.43,20.8c-.9.88-3.29,2.38-4.56,2.58-1.45.24-4.31-1.77-5.09-3.13l-9.32-16.32Z"/>
  <path class="st0" d="M163.39,542.45l-2.88-.83c-.66-.19.35-2.63.42-3.17l-7.38,6.77-3.63,2.13,7.91-10.9-1.74-.59-8.6,12.62c-3.07-1.54-5.19-1.51-8.67-1.17l4.28-4.34-7.98,4.53-7.82,5.35c-.76-9.53,2.21-9.64,7.64-12.74l16.85-9.62c1-.57,4.74,1.97,5.52,1.15l3.94-4.11,14.85-2.87c-2.76,6.99-9.87,9.77-12.51,17.09l.95.82,2.86-4.06,2.13,2.08,9.97-14.64,1.23,10.25-3.77,4.89-4.54-.45-9.59,14.94-3.98-3.81,5.12-8.31-.58-.97Z"/>
  <path class="st0" d="M70.28,671.01l-.18,6.16-7.03-1.42c1.1-5.66,2.75-10.61,5.18-15.66l1.94,5.01.98-12.45,11.12,11.7c5.01,5.27,11.69,9.37,15.58,16.09l-25.86-3.34-1.74-6.09Z"/>
  <path class="st0" d="M528.01,619.91l-12.54-20.75,3.01-.67c.42-.09.64-1.45.56-1.59l-5.67-.85-13.03-21.92c-1.95-3.28-3.54-6.61-4.47-9.92l4.92-3.72,14.04,25.25,7.94,16.04,6.45,13.64c2.63,5.56,6.34,9.87,7.8,16.34-3.81-3.47-6.23-7.25-9.01-11.84Z"/>
  <path class="st0" d="M96.93,319.69l7.84-9.56,1.57-1.91c.34-.42-1.52-1.94-1.89-1.54l-1.55,1.66-6.18,6.71c-4.13-7.37,9.48-8.25,6.04-20.43l5.66-8.36c3.12,6.01,7.47,12.09,8.86,19.07-.27,7.12-7.36,13.5-11.97,18l-2.71-1.15c-.34-.14-.5-.51-.21-.67l2.29-1.26,2.48-1.34c.52-.28-.78-1.86-1.33-2.31l-8.89,3.1Z"/>
  <path class="st0" d="M162.95,515.53l4.98,7.28c-2.47.37-4.93-1.86-6.6-3.35l-14.75-3.45c1.75,2.42,3.36,2.3,5.84,3.16l9.66,3.35-6.24,5.49-12.1-4.22c1.52,2.22,2.23,2.35,5.13,4.04l-3.25,2.26c-.96.67-3.06-.54-5.4-1.66l1.64,3.17-5.05,3.11c-1.95-2.62-1.38-4.59.13-7.22l9.01-15.73,9.16,2.62,3.87,3,9.88-6.63,14.83,12.12,5.61,4.59c1.32,1.08,3.11,4.12,4.32,6.07l-10.58-9.2c-1.93-1.68-3.76-2.65-6.34-4.02l-6.28-5.08-2.04-1.67c-.42-.34-1.65,1.68-1.23,2.01l6.79,5.42c-.39.65-3.28,1.26-4.11.42-1.4-1.43-3.27-5.13-6.85-5.91Z"/>
  <path class="st0" d="M88.97,687.17c.01.43.29,3.6-.51,4.16l-4,2.79-4.73,2.52-5.77,4.56-1.59-8.16-1.04,3.58-7.72-10.91-.08-6.64,6.87.97,1.13,4.89,1.23-4.55,15.57,1.3,1.13,4.29.89-2.85c.2-.64,2.24-1.62,2.28-.95l.21,2.96c.02.33-.66,1.73-.99,1.77l-2.88.27Z"/>
  <path class="st0" d="M78.19,647.26c.77-3.03.71-4.76.01-7.99l2.99-8.41c1.4.17,2.67.54,2.87-.02l1.28-3.56,12.51,13.27-1.02,12.33-18.63-5.61Z"/>
  <path class="st0" d="M430.27,425.44l-4.38-5.9,3.02.58,24.56-21.08,4.68,11.65c-2.45.37-3.66.87-5.79,2.09l-22.08,12.65Z"/>
  <path class="st0" d="M97.77,664.04c1.83,2.13,3.52,3.82,3.94,5.31.67,2.39-.56,5.73-2.27,6.75l-17.87-16.28c-2.39-2.18-4.65-6.1-3.04-8.94,1.14-1.04,4.16.73,5.08,1.66l12.85,2.63,1.3,8.88Z"/>
  <path class="st0" d="M318.76,492.11c2.45,1.03,5.05,5.81,3.48,8.95l-4.92-5.83c-.34-.41-1.91-.41-2.08.11s-.06,2.38.29,2.79l5.03,5.89-2.29,2.65c-1.24,1.44-2.65-5.57-3.64-4.35-.36.45-1.1,1.55-1.11,2.11l-.04,2.29c0,.5-1.88.65-2.31.59l4.9-35c.42-3.01-4.5-7.08-6.62-7.18l2.15-17.23,3.64-.97c2.4-.64-2.13,4.91-1.93,9.92l3.35.16,5.31,5.84c-.48.43-2.61,1.87-3.51,2.28s-2.2-2.44-2.93-3.11l-2.42-2.2c-.49-.45-1.6.88-2.29,1.87l7.36,7.18-1.1,5.02c-.19.88,1.71,1.77,2.44,2.16l-3.24,13.78-.27,2.24c-.06.48,2.23-.2,2.76.02Z"/>
  <path class="st0" d="M437.69,435.68l-5.9-7.59,26.9-15.41,3.15,7.87c-8.51,4.17-16.33,8.82-24.15,15.14Z"/>
  <path class="st0" d="M355.79,592.81l1.14-6.59c-2.15,1.85-3.83,6.36-2.88,8.85l13.2,34.65c-7.22-6.66-9.65-15.26-12.65-24.05l-2.64-7.76c-.77-2.27-3.79-7.29-2.24-9.45,2.36-3.3,5.49-5.31,8.86-7.87l4.69,9.67c2.15,4.45.12,10.81-1.28,15.9l4.89,11.71-.46,1.31c-2.28-4.42-4.85-9.63-6.1-14.98-.19-4.06,3.03-9.09,1.13-13.14l-2.44,10.38-3.21-8.65Z"/>
  <path class="st0" d="M101.09,612.66l7.17-11.48-.89-.72-7.97,10.77.7-6.22c.13-1.19-2.08-2.44-3.55-3.3l-.06-7.09c-.03-4.42,6.44-6.9,9.55-5.48l2.5-3.2,1.21,5.48-3.91-.47,4.46,13.3-7.87,12.85c-.63.82-2.02-3.35-1.35-4.43Z"/>
  <path class="st0" d="M84.87,623.97l3.77-7.59,1.66,5.84c.83-3.4.55-5.76-.12-9.17l3.01-7.36c.16-.4.91-1.41,1.17-1.74s1.77.57,1.58.95l-.88,1.75c-1.38,2.72-1.05,5.39,2.31,6.74l.68,23.35-13.18-12.79Z"/>
  <path class="st0" d="M429.66,415.68c-.83.73-3.28,2.25-4.03,1.81-.89-.54-2.16-2.59-2.38-3.6s1.7-2.53,2.8-3.34l20.63-15.23,4.99-2.72,1.15,2.8-23.15,20.28Z"/>
  <path class="st0" d="M334.2,630.55c-2.24,3.66-.69,5.18.57,9.63l-7.07-2.15,1.66-10.37,3.47-3.85c.09-.38,3.65,1.1,4.09,2.26l6.07,16.11-5.13-1.17-3.66-10.48Z"/>
  <path class="st0" d="M293.58,347.39c.53.43-5.18,11.94-10.27,16.21l6.2-13.54c2.22-4.85,3.96-9.69,6.99-14.09,4.29-6.24,7.69-12.24,10.88-19.38l2.22,1.79c.51.41-1,1.92-1.32,2.52l-11.18,20.84c-.84,1.57-3.07,3.15-5.13,4.34l1.61,1.31Z"/>
  <path class="st0" d="M193.96,523.96l3.66,6-24.63-22.19c3.49,1.19,5.13,2.53,7.45,3.97l.85-.87-5.83-4.73,11.79-10.06-3.32,8.01-4.81-.37,12.84,12.96,8.18,10.1-1.04,1.16-4.12-4-1.02.02Z"/>
  <path class="st0" d="M263.28,501.43c-4.7-4.75-8.22-12.06-3.92-15.72l6.43,7.98c1.84-6.34-7.69-9.55-1.78-15.25,1.03,1.12,2.5,3.1,2.82,4.22l1.9,6.75-5.45,12.03Z"/>
  <path class="st0" d="M119.54,612.14l-.63,4.61c-.11.79-3.52.46-3.97,1.1l-7.79,11.12c-.28.47-2.4-1.01-2.63-1.77-.27-.91.66-2.28,1.56-3.49l5.96-7.96,7.81-9.17,7.13,3.23-6.99,6.68,2.23-7.37c-1.38.59-2.57,2.08-2.69,3.02Z"/>
  <path class="st0" d="M366.89,534.64l-1.37,11.73-1.09-.05-.25-6.84c-2.06,1.74-2.06,2.36-2.77,5.97l-2.02-4.9c-.51-1.23,2.03-3.59,3.02-4.54l8.27-7.92,2.9-1.94c.82-.55,2.99,2.37,2.62,3.37l-2.68,7.28-.55-2.89c-.12-.64-1.09-1.43-1.94-1.88l-1.31,6.6-2.83-4Z"/>
  <path class="st0" d="M325.51,664.04l4.22,12.03c-4.02-1.15-5.25-3.29-7.27-6.64l1.89-11.01c1.49.07,5.18,1.44,5.74,3.01l5.42,15.32-1.66.75-6.35-14.04-1.99.58Z"/>
  <path class="st0" d="M111.21,273.44l-4.8-1.31-4.01-14.1c2.27-.48,7.04.19,7.86,1.95,2.02,4.36,1.62,7.94.95,13.46Z"/>
  <path class="st0" d="M451.68,496.53l-.82,8.46-3.31-5.41c-.12-6,1.34-11.7,3.51-17.64,6.65-.13.37,6.61,3.79,15.47l-3.16-.88Z"/>
  <path class="st0" d="M349.11,489.51c-2.24-.33-4.02-2.91-3.89-5.83l.6-13.55.35-7.87c-.12-.69,2.31-.47,3.08.14l-.14,27.12Z"/>
  <path class="st0" d="M331.15,655.61l-.73-3c-.1-.41-2.03-.51-2.09-.09l-.54,3.68c.36.09-1.16-.27-1.71-.41-.71-.17-1.12-2.35-.99-3.1l2.04-11.22c.8-.1,3.26.11,3.44.93l.83,3.9,4.93,12.14c-2.47.26-4.85-1.44-5.19-2.84Z"/>
  <path class="st0" d="M377.72,475.48l-3.85,7.24c-1.1-.27-6.37-2.36-7.9-4.06-1.79-2.45-2.27-6.76-2.63-9.91.45-.16,3.11-.14,3.26.56l.84,3.73,3.05,3.1c1.67-1.6,6.39-1.85,7.22-.66Z"/>
  <path class="st0" d="M343.8,678.64l-5.71-1.17-4.94-15.77c2.14-1.22,5.3.63,6.19,3.35l4.46,13.59Z"/>
  <path class="st0" d="M451.14,546.8c-.34.8-2.22,1.6-2.9,1.12s-.88-2.54-.5-3.35l7.08-15.27c1-2.16,2.75-3.45,5.06-2.82l-8.73,20.32Z"/>
  <path class="st0" d="M64.48,198.12c-.74-.26-3.35.61-3.13.95,2.96,7.82,6.45,15.92,7.87,24.06l4.78,27.37-1.51-.43-2.34-13.62c-2.16-12.6-5.39-24.16-9.8-36.02-.5-1.34.2-4.98,1.36-5.81,1.33-.94,5.45-1.4,6.1-.84l.91,10.45,3.21-2.98-.41,6.02-1.23,6.37-5.8-15.51Z"/>
  <path class="st0" d="M311.55,440.94l.72-7.39c4.21-10.82,1.13-20.55,6.36-21.12l-1.99,11.15-4.14,23.22c-1.36-2.06-1.19-3.48-.96-5.86Z"/>
  <path class="st0" d="M369.95,221.07c10.98,11.52,9.84,18.48,6.25,14.2l-9.31-11.11,2.33-6.34,2.44,1.76c.38.27-.78.9-1.71,1.49Z"/>
  <path class="st0" d="M399.18,352.79l-1.37-7.09c-.82.06-2.41.62-2.45,1.32l-.22,3.62-1.8-11.54,10.4,5.5c-1.07,2.18-1.37,4.19-1.54,6.62l-.2,2.81c-.04.59-2.71-.65-2.83-1.24Z"/>
  <polygon class="st0" points="327.85 480.11 323.72 492.77 319.11 486.34 322.52 473.53 324.35 474.12 322.25 482.91 327.85 480.11"/>
  <path class="st0" d="M337.25,552.79l2.62,4.01,2.27-1.86c.32-.26.68-.07,1.02.11s-.57,1.98-.99,2.14c-4.97,1.87-14.99-.59-14.85-7.62,3.76-1.41,6.99-2.07,9.54.72l-5.14,2.97,5.53-.48Z"/>
  <path class="st0" d="M349.49,662.19c-2.45.06-4.36-1.46-4.94-3.09l-5-14.13c1.24-.38,4.62.45,5.09,1.93l4.85,15.29Z"/>
  <path class="st0" d="M399.46,318.49c-1.13-6.21-1.87-11.33-5.74-17.28l1.88-.47c-.43-2.4.37-4.75,2.11-5.7,0,4.88.4,8.11,4.09,10.28l-2.35,13.17Z"/>
  <path class="st0" d="M332.44,367.6c.02-.19-5.15,5.08-8.97,6.1l9.24-16.71c1.25,1.44,2.57,3.12,2.49,4.04-.09,1.11-1.66,2.68-2.51,3.72l-.25,2.85Z"/>
  <path class="st0" d="M336.78,618.5l-.56-2.59c-.08-.38-1.73-.56-1.77-.17l-.3,2.69c.18.53.89,2.39.36,2.26s-3.09-.63-3.06-1.18l.47-9.91,5.67,2.04,3.55,11.6c-1.79.16-3.86-2.47-4.35-4.73Z"/>
  <path class="st0" d="M355.84,646.52c-2.7-.5-4.57-2.05-5.3-4.42l-4.21-13.6c2.08.24,4.84,2.1,5.4,4.02l4.11,14Z"/>
  <path class="st0" d="M379.45,264.92l1.97-12.81c.2-1.3,2.88-3.9,3.72-4.58l-1.53,16.79c-.06.64-1.74,2.47-2.13,2.9s-2.12-1.72-2.03-2.3Z"/>
  <path class="st0" d="M286.68,419.12c-2.33,1.32-7.72,1.59-10.01-1.27-4.68-5.85-1.62-15.15,5.3-17.34-2.58,3-5.44,6.65-4.66,10.12.94,4.18,3.98,7.54,9.37,8.49Z"/>
  <path class="st0" d="M385.73,268.56l1.74-21.07-1.14-2.46c-.27-.58,2.17-1.56,2.59-1.38,1.23,3.06,1.63,7.06.73,10.11-1.45,4.91.8,9.98-3.91,14.8Z"/>
  <path class="st0" d="M167.82,578.42l1.23-7.63,6.5-2.42-.13-11.65,5.34-7.48c2.2,12.87-4.11,14.93-4.66,18.32-.8,4.92-2.67,8.49-8.28,10.86Z"/>
  <polygon class="st0" points="333.29 705.81 326.22 706.28 327.58 690.8 333.29 705.81"/>
  <polygon class="st0" points="336.12 692.91 330.08 689.71 326.44 677.43 331.62 679.51 336.12 692.91"/>
  <path class="st0" d="M348.82,693.25l-5.39-1.18-3.89-11.65c2-.31,5.23.49,5.72,1.98l3.55,10.84Z"/>
  <path class="st0" d="M311.69,483.71c-.13.7-1.88,1.98-2.2,1.52s-.89-2.1-.89-2.83l-.03-15.47,5.18,5.63-2.05,11.15Z"/>
  <path class="st0" d="M374.93,236.26l-5.32,1.34c-1.3.33-3.22-2.45-3.83-3.67l-2-3.94c-.53-1.04,3.05-3.15,3.88-2.19l7.27,8.47Z"/>
  <path class="st0" d="M338.44,604.75c-.67.94-4.14,2.43-6.15,2.93l1.51-11.91,4.58.64.05,8.34Z"/>
  <path class="st0" d="M395.97,513.07l-3.63,5.47-.66-4.47c-3.19,6.14-4.29,12.03-9.53,17.71l3.63-14.15,6.15-4.39c2.35-1.67,5.76-2.71,8.92-2.52-.37.78-1.62,2.57-2.25,3.32l-2.89,9.96c-.68,2.33-.35,4.15-2.5,5.67l2.75-16.6Z"/>
  <path class="st0" d="M367.16,248.41l-5.31.13-3.41-8.61,4.35-7.13,3.45,5.8-6.02,2.89c4.12,3.4,4.68,3.94,6.94,6.92Z"/>
  <path class="st0" d="M323.65,395.87l-6.18,1.35,4.98-10.16,4.33-6.86c1.51,2.12,1.54,6.77-.13,7.61-1.39.7-3.71,1.86-3.96,2.91-.29,1.22.32,3.61.97,5.15Z"/>
  <path class="st0" d="M396.29,288.27c-.66.68-2.65-2.26-2.34-3.4l4.4-15.84c2.84,1.95,2.19,4.27,1.42,6.97l-3.48,12.26Z"/>
  <path class="st0" d="M306.55,516.09c-2.26-1.84-.61-4.39-.19-6.47.06-7.85.96-14.59,4.54-21.28l-4.35,27.75Z"/>
  <path class="st0" d="M355.33,680.97c-1,.42-3.44-.73-3.8-1.82l-4.88-14.7c2.83.23,4.1,1.62,4.72,3.63l3.96,12.89Z"/>
  <path class="st0" d="M350.23,306.67c.27-.36-.32-1.78-.57-1.44l-1.27,1.76-.94,1.29c-.25.35-1.06-1.36-.89-1.75l5.14-11.97-.64,5.03c1.73,3.74,3.02,9.31-.49,12.87-1.75-.3-1.25-4.55-.34-5.77Z"/>
  <path class="st0" d="M349.37,625.96c-2.52.45-4.68-1.67-5.48-4.17l-3.18-9.89,3.65.03,5.02,14.03Z"/>
  <path class="st0" d="M326.54,430.18c-2.45-2.1-2.6-4.12-2.22-6.3l2.17-12.34c.1-.59.07-1.45.42-1.54l1.61-.42c.52-.13.28,1.94.21,2.49l-2.2,18.11Z"/>
  <path class="st0" d="M347.14,442.8c-2.15-.3,1.51-6.44-3.9-11.43-.12-1.22.25-2.57,1.21-.24l2.35-.63c2.79-.75-4.1-4.7-1.94-7.94l4.81,4.42c-5,6.42-.57,8.12-.37,16.14l-2.15-.3Z"/>
  <path class="st0" d="M23.36,747.95c1.24-5.36,5-9.27,8.78-13.29l6.82-7.26c-1.35,3.34-3.12,7.38-5.23,9.6l-10.37,10.95Z"/>
  <path class="st0" d="M161.41,510.45l-11.95-3.5c-.06-.02.62-1.89,1.01-2.7s2.95-.5,3.93-.18l9.17,3.03-2.17,3.35Z"/>
  <path class="st0" d="M337.08,476.48l-1.44,6.81c-.83-.58-2.8-1.75-2.6-2.66l1.06-4.8,2-10.37,1.12.52.19,10.01,1.55.33c1.24-1.22,1.68-4.36,1.71-6.65l.03-2.82c0-.4,2.2-.24,2.68-.07l-1.27,16.72c-.06.83-.94,2.78-1.34,2.3l-1.36-1.62c.64-2.3.88-5.11.48-6.92-1.7,2.96-1.8,1.72-1.74-.08l-1.08-.7Z"/>
  <path class="st0" d="M361.17,666.5c-1.55-.75-3.2-2.28-3.62-3.56l-4.82-14.67c2.18.41,4.25,2.05,4.63,3.51l3.81,14.72Z"/>
  <path class="st0" d="M403.25,520.58l-2.97,4.14c-1.03-3.8-.84-7.88,1.16-11.48l2.69,6.61.32.52,4.65,11.28c.8,1.95.69,5.52-2.06,5.28-1.86-.17-1.51-4.3-.87-5.8l.89-2.1c.16-.37-1.37-1.1-1.58-.75l-1.01,1.72-.95,1.62c-.17.28-1.41-1.42-1.34-1.75l1.74-8.79-.67-.5Z"/>
  <path class="st0" d="M317.4,250.47l2.6-8.08c1.39-4.32,5.96-7.79,10.53-9.89l-13.12,17.97Z"/>
  <path class="st0" d="M325.74,334.35c-.44,1.65-2.8,3.95-4.33,4.4,2.2-7.14,3-13.56,8.39-19.59l-4.06,15.19Z"/>
  <path class="st0" d="M364.58,674.69c1.15,2.85.27-5.49,2.43-5.01.35,4.65-.98,9.5-3.18,14.11l-3.99-15.75c2.16.9,3.09,2.54,3.92,4.61l.82,2.03Z"/>
  <path class="st0" d="M366.77,667.82c-1.7-.54-3.49-1.73-3.67-2.57l-3.39-15.15c5.58,4.91,5.7,11.64,7.07,17.72Z"/>
  <path class="st0" d="M362.54,157.52c.44.48-.52,4.35-1.04,3.96l-2.6-1.96-3.65-3.2c-1.03-.9-.31-4.45.63-6.03l6.66,7.24Z"/>
  <path class="st0" d="M343.89,391.54l-1.98-11.16,4.2-4.4c.69,5.84,1.31,9.61-2.21,15.55Z"/>
  <path class="st0" d="M360.14,169.98l-6.21-7.25c-.65-.75,0-3.99.33-4.15l7.58,5.22-1.69,6.17Z"/>
  <path class="st0" d="M376.11,536.61l3.48-12.09h-3.22c-.55.01.43-.84,1.06-1.29l6.6-4.67-3.1,9.83c-.97,3.09-1.84,5.69-4.81,8.21Z"/>
  <path class="st0" d="M149.24,603.56c4.05,4.39,2.69,16.04-2.32,15.64l2.32-15.64Z"/>
  <path class="st0" d="M164.56,505.75l-10.43-3.88-1.7-.63c-.41-.15,1.67-1.7,2.1-1.61l12.02,2.61-1.98,3.51Z"/>
  <path class="st0" d="M359.83,494.53c-.42.59-3.4-.53-3.42-1.44l-.21-12.23,1.9-.15,1.73,13.83Z"/>
  <path class="st0" d="M314.3,517.21c-.32.92-3.35,2.26-3.72,1.95l.02-10.59,6.07,1.78-2.37,6.86Z"/>
  <path class="st0" d="M361.03,682.85c-6.05-3.5-4.61-10.75-7.43-15.21l1.76-1.16c.33-.22,1.22,1.03,1.4,1.64l4.27,14.74Z"/>
  <polygon class="st0" points="342.89 626.82 348.63 643.17 346.12 643.25 340.11 626.74 342.89 626.82"/>
  <path class="st0" d="M61.45,691.43l-3.72,19.12-.91-.57,2.63-24.6c2.97,2.36,2.5,3.45,2,6.05Z"/>
  <path class="st0" d="M388.35,313.51c-4.16-3.69-6.63-8.29-7.46-14.43,4.81,3.34,7.96,7.64,7.46,14.43Z"/>
  <path class="st0" d="M329.68,526.29l-3.14.09c-1.28.03-7.7-6.35-3.65-9.28.73,4.94,5.5,6.33,8.21,6.66l2.14,1.27c.47.28-.51,2.32-1.03,2.14l-2.53-.88Z"/>
  <path class="st0" d="M355.24,664.59c-1.87-1.19-3.02-2.77-3.79-4.46l-4.31-13.87,3.28,2.53,4.82,15.8Z"/>
  <polygon class="st0" points="394.8 258.9 389.66 271.22 391.76 252.83 394.8 258.9"/>
  <path class="st0" d="M394.04,306.42c1.25,1.81,1.87,5.53,1.13,7.44l-7.57-12.7c-.25-.43.31-2.08.79-2.89l5.65,8.15Z"/>
  <polygon class="st0" points="368.01 247.64 365.76 242.35 372.7 240.55 375.39 244.34 368.01 247.64"/>
  <path class="st0" d="M356.29,183.23l-4.78-6.32c-1.02-1.35-.15-4.76.83-5.51l5.31,6.9-1.35,4.93Z"/>
  <path class="st0" d="M300.85,466.04l-3.03.35.37-21.08c1.66,2.82,1.07,5.3,1.38,8.33l1.28,12.4Z"/>
  <path class="st0" d="M337.5,646.29l4.52,14.6c-4.45-5.43-5.82-10.82-8.28-17.71,1.45.4,3.41,1.99,3.76,3.11Z"/>
  <polygon class="st0" points="364.57 464.78 359.94 469.66 359.74 456.83 364.57 464.78"/>
  <polygon class="st0" points="296.72 355.08 289.44 359.74 297.29 345.54 296.72 355.08"/>
  <path class="st0" d="M408.66,554.4l-.13-6.82,1.25-10.82c1.56,2.31,2.44,5.48,1.98,7.06l-3.1,10.58Z"/>
  <path class="st0" d="M323.4,451.42l-4.36-4.51,3.41-5.53c2.85,1.93,3.63,5.23.94,10.04Z"/>
  <path class="st0" d="M94.15,319.82c1.17,3.96,2.04,7.06,1.51,10.78l-6.17-21.38c4.12,2.28,3.47,6.6,4.66,10.6Z"/>
  <path class="st0" d="M360.32,693.75l-3.03.4-3.48-9.37c-.14-.39,1.39-1.88,1.7-1.61.47.4,1.48,1.43,1.73,2.12l3.09,8.47Z"/>
  <path class="st0" d="M353.69,691.31l1.09,2.83c.18.47-2.84.3-2.98-.19l-3.63-12.43c3.16,2.45,4.07,5.99,5.52,9.79Z"/>
  <path class="st0" d="M326.85,687.45c-2.03-.66-4.23-2.15-5.19-3.66-1.24-1.94-1.35-5.91.78-8.37l4.41,12.03Z"/>
  <path class="st0" d="M311.63,746.4c-1.24-4.94-.59-9.88.9-15.19-1.51-1.9-1.34-4.6,1.91-5.87l-2.81,21.06Z"/>
  <path class="st0" d="M375.5,629.15l3.66.07-1.78-5.14c1.69.44,2.95,2.76,3.29,5.16.46,3.28-.88,5.81-3.29,7.52l-1.88-7.61Z"/>
  <path class="st0" d="M103.25,624.57c-.65-4.89,1.45-8.81,5.15-12.71.81,5.08-1.55,9.3-5.15,12.71Z"/>
  <polygon class="st0" points="337.26 681.01 341.36 693.95 339.49 694.24 334.11 679.37 337.26 681.01"/>
  <path class="st0" d="M181.45,547.56l-5.58,2.95c.24-4.27,1.88-7.71,5.43-10.9l.15,7.95Z"/>
  <polygon class="st0" points="347.22 679.63 341.61 664.16 343.21 663.16 349.18 678.99 347.22 679.63"/>
  <path class="st0" d="M159.1,511.39c.54.14.47,2.93-.05,2.79l-2.96-.76-9.12-3.33.44-1.74,11.69,3.02Z"/>
  <polygon class="st0" points="385.85 232.77 380.62 234.39 376.97 224.96 385.85 232.77"/>
  <path class="st0" d="M301.45,344.4c1.32-4.24,7.37-2.09-3.12,10.03l3.12-10.03Z"/>
  <path class="st0" d="M271.73,481.96l-1.29-5.23c-.19-.76-2.56.21-3.56.45-.91-1.73-.06-4.35,2.17-5.97l4.39,7.86c.16.29-.62,2.18-.89,2.36-.42.27-1.92,1.24-.8.52Z"/>
  <path class="st0" d="M358.57,175.65l-4.88-5.9-1.54-1.87c-.45-.55,1.18-2.33,1.51-2.33l5.73,6.45c.44.5-.33,2.81-.82,3.65Z"/>
  <path class="st0" d="M374.61,640.63l-4.43-4.34c.72-.96,1.56-1.78,1.32-2.31l-1.18-2.69-1.09-2.48c-.69-1.57,5-2.1,5.39,11.83Z"/>
  <path class="st0" d="M388.4,320.83l.7,2.19c.12.37-1.16.51-1.43.23l-1.22-1.27c-2.36-2.47-3.18-4.89-1.14-8.69l3.71,3.98-1.31,1.8c-.23.31.57,1.4.68,1.77Z"/>
  <path class="st0" d="M369.52,457.02l-3.65-6.68-.57-3c-.16-.83,2.2-1.44,3.28-1.53l.94,11.22Z"/>
  <path class="st0" d="M346.48,223.31c.51.41.02,3.02-.51,3.89l-8.3-8.88,1.17-1.21,7.63,6.19Z"/>
  <path class="st0" d="M348.48,221.91l-6.63-5.85,2.75-1.54c.78-.44,2.53,1.48,3.21,2.07l2.09,1.82c.55.48-.36,2.06-1.42,3.5Z"/>
  <path class="st0" d="M382.39,242.18c-1.41.7-3.97,1.94-4.64,1.31l-3.84-3.61,5.96-2.28,2.52,4.58Z"/>
  <path class="st0" d="M360.94,648.77c-4.25-4.54-5.48-10.62-5.38-16.56l5.38,16.56Z"/>
  <path class="st0" d="M333.71,319.9c-1.96,6.29-1.54,9.5-5.77,12.91l4.36-14.54,1.41,1.63Z"/>
  <path class="st0" d="M321.82,327.34c-.31,5.9-1.95,14.33-5.59,15.9l5.59-15.9Z"/>
  <polygon class="st0" points="353.32 628.55 347.78 613.08 349.39 612.14 354.84 628.43 353.32 628.55"/>
  <path class="st0" d="M173.69,493.48c2.66,5.49-.26,9.51-5.41,14.17l5.41-14.17Z"/>
  <polygon class="st0" points="389.85 288.36 389.36 280.22 386.23 282.7 384.03 276.84 392.63 281.38 389.85 288.36"/>
  <path class="st0" d="M371.3,621.12c-2.8-3.03-1.49-5.65-.07-8.31l2.97-5.57-2.9,13.88Z"/>
  <path class="st0" d="M186.13,482.03c.85-2.95,4.45,2.81-4.49,14.88l3.86-12.71.63-2.17Z"/>
  <path class="st0" d="M396.16,324.29c-3.17-2.54-4.94-6.41-4.15-10.81,2.99,2.77,5.28,5.58,4.15,10.81Z"/>
  <path class="st0" d="M388.77,622.03c-.88-3.64-.75-7.36,1.71-9.7,1.7,3.5,2.55,6.72-1.71,9.7Z"/>
  <path class="st0" d="M362.76,154.34l-6.27-5.93c-.22-.21-.46-1.98-.16-2.05l1.74-.4,5.9,6.86-1.22,1.52Z"/>
  <path class="st0" d="M329.11,252.86c.51.3,1.64,1.68,1.96,2.11,1.33,1.86-7.52,1.52-9.19-5.82l7.23,3.71Z"/>
  <path class="st0" d="M320.65,264.94c.46,1.18,1.54,3.2.91,3.85-.76.79-3.84,1.16-4.65.42s-.17-2.78.38-4.19l.77-1.97c.16-.4,1.34-1.32,1.5-.91l1.1,2.8Z"/>
  <path class="st0" d="M376.58,306.51c3.27,2.41,5.41,4.61,4.71,8.82l-8.31-10.43,2.45-.58c.43-.1.88,1.45,1.15,2.19Z"/>
  <path class="st0" d="M374.49,282.46c-.07-9.97-6.26-10.38-3.98-14.16l5.59,9.29c.64,1.07-.9,4.83-1.61,4.87Z"/>
  <polygon class="st0" points="338.44 696.19 334.4 701.76 331.2 693.21 338.44 696.19"/>
  <path class="st0" d="M344.3,230.4c-2.97-.86-4.92-2.2-8.39-4.21l1.43-4.2,6.95,8.41Z"/>
  <path class="st0" d="M394.13,613.44c-.82-3.51-.93-7.19.5-11.44,3.2,3.66,3.41,7.07-.5,11.44Z"/>
  <polygon class="st0" points="93.46 351.49 88.62 334.23 89.52 332.53 94.13 348.92 93.46 351.49"/>
  <rect class="st0" x="39.91" y="726.54" width="17.68" height="1.41" transform="translate(-499.96 247.48) rotate(-45)"/>
  <path class="st0" d="M252.75,411.12c-2.4,4.57-6.21,7.48-10.93,9.56,3.1-3.93,5.95-7.22,10.93-9.56Z"/>
  <path class="st0" d="M52.13,712.48l2.39-17.08c.94,5.56.51,11.38-2.39,17.08Z"/>
  <path class="st0" d="M332.57,435.71c-2.96-1.1-4.86-2.1-5.96-3.44l3.74-.09c.74-.02,1.15-1.91,1.53-3.6.24-1.29,2.55-1.3,2.26,0l-1.57,7.15Z"/>
  <path class="st0" d="M331.95,708.99l-3.16,8.14-1.74-3.81c-.37-.81-.03-4.1.85-4.14l4.05-.19Z"/>
  <path class="st0" d="M345.99,358.8c-.6.08-2.05-2.34-1.62-3.13l5.62-10.22-4,13.35Z"/>
  <path class="st0" d="M340.24,579.11c-.35,4.19-1.03,7.44-3.21,10.6l2.55-16.76,1.22-.43-.55,6.59Z"/>
  <path class="st0" d="M406.89,343.14c-2.72-2.74-8.52-4.78-7.79-10.62l7.79,10.62Z"/>
  <path class="st0" d="M171.68,125.73l-8.24,6.98c-.42-7.14,5.33-11.17,10.09-15.71,6.18-5.9,12.61-10.35,20.7-13.44,3.92-1.5,6.97-2.4,11.72-1.32-2.74,3.89-5.23,6.48-8.77,8.37-8.75,4.67-17,9.2-25.5,15.12Z"/>
  <path class="st0" d="M218.66,4.82c-.29,7.63-11.22,12.14-18.03,10.79,4.64-6.6,10.35-10.18,18.03-10.79Z"/>
  <path d="M220.77,284.11l14.73,4.15c6.97,1.96,12.99,3.26,20.59,2.42l2.37-.26c.36-.04.31-.34.09-.65l-1.31-1.84c5.65-1.51,10.92-4.35,15.55-8.65l24.39-16.39,1.99-2.95c.48-.72,2.29.33,3.66,1.95l-20.64,20.85-12.59,7.33c-11.03,6.43-25.11,4.13-36.68-.37-4.23-1.64-9.09-.26-12.15-5.59Z"/>
  <path d="M293.33,220.78c3.74,2.95,8.25,5.26,6.87,11.28l-52.88-12.75-1.7-1.5c-.5-.44,1.83-1.38,2.47-1.22l24.85,5.93c3.47-2.02,7.1-3.28,11-4.26,4.29-1.08,5.89-.22,9.39,2.54Z"/>
  <path d="M238.79,269.96c-.72-1.25-1.56-2.85-1.06-2.9l2.3-.26,19.79-2.54c2.87-.37,5.62-1.55,7.54-3.19l12.19-5.02,15.62-6.51,1.7,5.13-19.58,9.41-38.5,5.89Z"/>
  <path d="M271.29,247l-22.34.61-15.93-.91-30.99-2.28-2.72-.68c-.68-.17-.95-1.91-.84-2.62l36.13,3.87c10.78,1.15,21.35.45,32.4-.21,1.71-.1,2.9-.17,4.29,2.23Z"/>
  <path d="M306.08,244.44c-4.76-2.11-7.91-2.83-13.12-2.73l-2.4.04c-.41,0-.95-1.27-.72-1.61.35-.52,1.73-1.44,2.38-1.43l11.53.17c.9,1,1.84,3.19,2.33,5.57Z"/>
  <path d="M243.37,233.74c-3.78.87-8.48-.98-9.55-5.51,3.52.87,6.16,2.47,9.55,5.51Z"/>
  <path d="M256.02,459.63l-4.48-5.94c-.66-.87-.22-3.08.76-4.34l4.8,6.99,3.34-6.73c-2.45-2.9-4.79-4.36-3.93-8.35l5.61,5.63c2.51-2.87,2.14-5.72.22-8.68l-1.39-2.14c-.28-.44,1.48-1.41,1.81-1.44l3.42,4.39,2.49-6.7c.18-.49,1.42-1.95,1.83-1.66l2.32,1.63-2.47,14.51,1.4,3.13c-4.46,4.89-4.33,11.12-5.59,11.03l-3.1-.22-10.68,9-1.24-5.06-2.52-6.11c-.2-.48,2.17-1.13,2.44-.67l1.33,2.2,1.07,1.76c.21.35,1.17-.74,2.56-2.22Z"/>
  <path d="M218.33,480.25c-2.88,4.67-4.69,9.59-9.78,12.33l16.22-27.43c4.81-8.13,7.9-17.37,15-24.47-.92,9.05-6.67,15.63-10.98,22.61l-10.46,16.96Z"/>
  <path d="M199.17,449.09l-13.07,10.22c.19-4.84,9.92-12.8,13.07-10.22Z"/>
  <path d="M199.12,434.77c-2.89,3.72-4.68,6.69-8.3,9.32,1.07-6.23,4.84-9.9,9.05-13.73l-.75,4.41Z"/>
  <path d="M253.91,439.1c-2.09,3.3-4.45,6.47-7.26,9.16-1.05-4.33,4.05-9.09,6-11.67.25-.33,2.72.2,2.5.56l-1.24,1.95Z"/>
  <path d="M264.17,362.61l-21.54,19.03-1.18-.98,20.07-20.6,1.96-.97c.43-.22,2.33.46,2.1.89l-1.41,2.63Z"/>
  <path d="M267,355.33l7.18-11.3,1.31,3.59,7.38-10.62c.35,5.81-3.48,9.16-6.37,12.92l-3.17-.07c-1.6,2.4-2.78,4.61-6.33,5.49Z"/>
  <path d="M409.86,354.05c4.19,3.51,5.79,17.44,1.26,16.27l-1.26-16.27Z"/>
  <path d="M415.6,339.32l.2,2.59c.03.42-.81.54-2.18.86-2.13-3.8-4.03-7.73-2.32-13.03l4.3,9.57Z"/>
  <path d="M421.01,373.17l.62,2.53c.13.52-2.36.92-2.67.49-1.63-2.32-4.38-7.76-1.92-11.49l3.96,8.47Z"/>
  <path d="M422.59,343.61l.41,2.37c.45,2.58-5.56.53-3.87-11.81,2.52,2.48,2.78,5.53,3.46,9.44Z"/>
  <path d="M154.65,309.43c-1.76,3.1-3.36,5.94-6.14,7.92-1.87,1.33-4.63-2.78-4.52-4.68.46-7.36-.97-12.2-5.82-18.19l2.19-1.42,8,13.03,6.29,3.35Z"/>
  <path d="M167.28,295.21c.96,3.87-2.72,8.34-5.57,8.08l-2.07-16.96c2.8,1.87,6.9,5.91,7.64,8.88Z"/>
  <path d="M237.59,338.62c1.09,2.54,2.29,4.2.31,6.63l-4.05-6.56c-.23-.37-.17-2.2-.03-2.61.2-.61,2.22-1.1,2.47-.51l1.3,3.04Z"/>
  <path d="M150.36,578.55l6.69-8.2c.64-.78,2.39-2.1,3.24-1.71,4.52,2.08-2.11,19.63-12.16,28.82-6.74,6.17-16.86,8.98-24.41,5.44-3.59-1.69-7.23-4.36-8-7.63-1.03-4.37.37-8.68,3.09-12.01,3.66-4.48,3.91-10.76,10.04-14.12l-5.67,10.26,1.87.51,6.41-9.56,6.13-3.2,7.73-3.98.81,1.05-8.24,4.63,1.73,1.26c.23.16-.57.68-.98.96l-8.46,14.77c8.08-.93,7.07-14.26,12.99-14.09l-8.11,15.1c8.23-3.4,8.01-17.87,14.23-16.96l-4.89,7.09c.85.66,2.32,1.75,2.16,1.75s1.19-1.18,1.57-1.52c.24-.21.6.14,2.23,1.36ZM129.98,582.46l7.04-12.71c-6.48,2.74-11.9,11.25-7.04,12.71Z"/>
  <path d="M153.96,567.58c-1.08,1.35-3.47,2.13-4.61,1.15-.92-.79-.98-3.68-.23-4.7.93-1.27,2.34-2.68,3.26-2.65s2.6,1.22,3.23,2.03c.68.87-.55,2.8-1.66,4.17Z"/>
  <path d="M375.11,595.09c-1.53-3.67-3.74-5.89-6.84-7.08-.94-5.32-1.54-12.33,1.08-18.28l.12,14.62,4.35-5.18.33-11.57,6.52-16.81-1.4,10.24c1.96-3.4,3.17-6.32,4.26-10.06l.57-1.96c.11-.36,1.25-.44,1.24-.06l-.06,2.22,6.59-4.07c2.72,5.06,1.84,8.02,1.52,13.91,2.83-2.24,3.73-5.67,3.96-9.37l.13-2.21c.04-.61,2.03-1.2,2.15-.98l-.73,3.78c-.18.94,2.07,1.86,3.34,2.26,3.08,6.02-.32,12.64-.79,19.06-.7,9.73-2.85,19.41-11.31,25.27-3.3,2.29-8.62.99-8.59-.26l.06-2.97-6.52-.49ZM391.36,566.54l.55-11.24c-2.86,3.08-2.79,6.73-3.23,11.02l-.19,1.85c-.04.35.42.45.74.37.35-.08,2.11-1.65,2.13-2ZM384.49,573.49c3.13-3.95,2.93-7.83,1.86-11.37-2.37,3.78-2.49,7.81-1.86,11.37ZM378.06,579.08l-.17-15.47-1.32.44-.96,14.03-.07,2.46c-.01.54,2.52-.83,2.51-1.47ZM380.36,563.83l-.62,14.1c3.37-3.01,4.17-13.81.62-14.1Z"/>
  <path class="st0" d="M129.98,582.46c-4.86-1.46.56-9.97,7.04-12.71l-7.04,12.71Z"/>
  <path class="st0" d="M378.06,579.08c0,.64-2.53,2.01-2.51,1.47l.07-2.46.96-14.03,1.32-.44.17,15.47Z"/>
  <path class="st0" d="M391.36,566.54c-.02.35-1.78,1.92-2.13,2-.32.07-.77-.03-.74-.37l.19-1.85c.43-4.29.37-7.94,3.23-11.02l-.55,11.24Z"/>
  <path class="st0" d="M380.36,563.83c3.56.29,2.76,11.09-.62,14.1l.62-14.1Z"/>
  <path class="st0" d="M384.49,573.49c-.63-3.56-.51-7.58,1.86-11.37,1.07,3.53,1.27,7.42-1.86,11.37Z"/>
</svg>