<svg xmlns="http://www.w3.org/2000/svg" viewBox="0 0 864 864" width="864" height="864"><g fill="#000"><circle cx="9.00" cy="9.00" r="1.94"/><circle cx="27.00" cy="9.00" r="1.43"/><circle cx="45.00" cy="9.00" r="1.57"/><circle cx="63.00" cy="9.00" r="1.62"/><circle cx="81.00" cy="9.00" r="0.99"/><circle cx="135.00" cy="9.00" r="0.58"/><circle cx="153.00" cy="9.00" r="2.89"/><circle cx="171.00" cy="9.00" r="6.22"/><circle cx="189.00" cy="9.00" r="7.08"/><circle cx="207.00" cy="9.00" r="4.77"/><circle cx="225.00" cy="9.00" r="2.19"/><circle cx="243.00" cy="9.00" r="1.11"/><circle cx="261.00" cy="9.00" r="1.14"/><circle cx="279.00" cy="9.00" r="1.59"/><circle cx="297.00" cy="9.00" r="1.76"/><circle cx="315.00" cy="9.00" r="1.47"/><circle cx="333.00" cy="9.00" r="1.13"/><circle cx="351.00" cy="9.00" r="1.05"/><circle cx="369.00" cy="9.00" r="1.15"/><circle cx="387.00" cy="9.00" r="1.28"/><circle cx="405.00" cy="9.00" r="1.52"/><circle cx="423.00" cy="9.00" r="2.14"/><circle cx="441.00" cy="9.00" r="3.24"/><circle cx="459.00" cy="9.00" r="4.13"/><circle cx="477.00" cy="9.00" r="3.80"/><circle cx="495.00" cy="9.00" r="2.38"/><circle cx="513.00" cy="9.00" r="1.13"/><circle cx="531.00" cy="9.00" r="0.72"/><circle cx="549.00" cy="9.00" r="1.04"/><circle cx="567.00" cy="9.00" r="1.92"/><circle cx="585.00" cy="9.00" r="2.67"/><circle cx="603.00" cy="9.00" r="2.55"/><circle cx="621.00" cy="9.00" r="1.65"/><circle cx="639.00" cy="9.00" r="0.69"/><circle cx="729.00" cy="9.00" r="1.06"/><circle cx="747.00" cy="9.00" r="2.22"/><circle cx="765.00" cy="9.00" r="3.48"/><circle cx="783.00" cy="9.00" r="4.70"/><circle cx="801.00" cy="9.00" r="5.74"/><circle cx="819.00" cy="9.00" r="6.06"/><circle cx="837.00" cy="9.00" r="5.13"/><circle cx="855.00" cy="9.00" r="3.36"/><circle cx="9.00" cy="27.00" r="1.06"/><circle cx="27.00" cy="27.00" r="0.87"/><circle cx="45.00" cy="27.00" r="1.03"/><circle cx="63.00" cy="27.00" r="1.03"/><circle cx="81.00" cy="27.00" r="0.67"/><circle cx="117.00" cy="27.00" r="0.74"/><circle cx="135.00" cy="27.00" r="2.28"/><circle cx="153.00" cy="27.00" r="4.90"/><circle cx="171.00" cy="27.00" r="6.25"/><circle cx="189.00" cy="27.00" r="4.84"/><circle cx="207.00" cy="27.00" r="2.45"/><circle cx="225.00" cy="27.00" r="1.16"/><circle cx="243.00" cy="27.00" r="1.05"/><circle cx="261.00" cy="27.00" r="1.62"/><circle cx="279.00" cy="27.00" r="2.14"/><circle cx="297.00" cy="27.00" r="2.02"/><circle cx="315.00" cy="27.00" r="1.56"/><circle cx="333.00" cy="27.00" r="1.24"/><circle cx="351.00" cy="27.00" r="1.19"/><circle cx="369.00" cy="27.00" r="1.28"/><circle cx="387.00" cy="27.00" r="1.52"/><circle cx="405.00" cy="27.00" r="2.13"/><circle cx="423.00" cy="27.00" r="3.28"/><circle cx="441.00" cy="27.00" r="4.39"/><circle cx="459.00" cy="27.00" r="4.22"/><circle cx="477.00" cy="27.00" r="2.57"/><circle cx="495.00" cy="27.00" r="0.92"/><circle cx="549.00" cy="27.00" r="1.15"/><circle cx="567.00" cy="27.00" r="2.07"/><circle cx="585.00" cy="27.00" r="2.15"/><circle cx="603.00" cy="27.00" r="1.37"/><circle cx="621.00" cy="27.00" r="0.54"/><circle cx="711.00" cy="27.00" r="1.41"/><circle cx="729.00" cy="27.00" r="2.79"/><circle cx="747.00" cy="27.00" r="4.24"/><circle cx="765.00" cy="27.00" r="5.36"/><circle cx="783.00" cy="27.00" r="6.02"/><circle cx="801.00" cy="27.00" r="6.08"/><circle cx="819.00" cy="27.00" r="5.25"/><circle cx="837.00" cy="27.00" r="3.62"/><circle cx="855.00" cy="27.00" r="1.98"/><circle cx="9.00" cy="45.00" r="0.56"/><circle cx="27.00" cy="45.00" r="0.68"/><circle cx="45.00" cy="45.00" r="1.05"/><circle cx="63.00" cy="45.00" r="1.26"/><circle cx="81.00" cy="45.00" r="1.18"/><circle cx="99.00" cy="45.00" r="1.25"/><circle cx="117.00" cy="45.00" r="2.02"/><circle cx="135.00" cy="45.00" r="3.62"/><circle cx="153.00" cy="45.00" r="4.96"/><circle cx="171.00" cy="45.00" r="4.54"/><circle cx="189.00" cy="45.00" r="2.79"/><circle cx="207.00" cy="45.00" r="1.43"/><circle cx="225.00" cy="45.00" r="1.12"/><circle cx="243.00" cy="45.00" r="1.60"/><circle cx="261.00" cy="45.00" r="2.32"/><circle cx="279.00" cy="45.00" r="2.46"/><circle cx="297.00" cy="45.00" r="1.96"/><circle cx="315.00" cy="45.00" r="1.42"/><circle cx="333.00" cy="45.00" r="1.20"/><circle cx="351.00" cy="45.00" r="1.27"/><circle cx="369.00" cy="45.00" r="1.55"/><circle cx="387.00" cy="45.00" r="2.16"/><circle cx="405.00" cy="45.00" r="3.20"/><circle cx="423.00" cy="45.00" r="4.27"/><circle cx="441.00" cy="45.00" r="4.23"/><circle cx="459.00" cy="45.00" r="2.60"/><circle cx="477.00" cy="45.00" r="0.78"/><circle cx="549.00" cy="45.00" r="1.54"/><circle cx="567.00" cy="45.00" r="2.02"/><circle cx="585.00" cy="45.00" r="1.44"/><circle cx="603.00" cy="45.00" r="0.62"/><circle cx="675.00" cy="45.00" r="0.85"/><circle cx="693.00" cy="45.00" r="1.84"/><circle cx="711.00" cy="45.00" r="3.29"/><circle cx="729.00" cy="45.00" r="4.78"/><circle cx="747.00" cy="45.00" r="5.72"/><circle cx="765.00" cy="45.00" r="5.89"/><circle cx="783.00" cy="45.00" r="5.48"/><circle cx="801.00" cy="45.00" r="4.64"/><circle cx="819.00" cy="45.00" r="3.38"/><circle cx="837.00" cy="45.00" r="1.96"/><circle cx="855.00" cy="45.00" r="0.94"/><circle cx="9.00" cy="63.00" r="0.63"/><circle cx="27.00" cy="63.00" r="1.14"/><circle cx="45.00" cy="63.00" r="1.90"/><circle cx="63.00" cy="63.00" r="2.27"/><circle cx="81.00" cy="63.00" r="2.13"/><circle cx="99.00" cy="63.00" r="2.07"/><circle cx="117.00" cy="63.00" r="2.58"/><circle cx="135.00" cy="63.00" r="3.45"/><circle cx="153.00" cy="63.00" r="3.77"/><circle cx="171.00" cy="63.00" r="2.99"/><circle cx="189.00" cy="63.00" r="1.88"/><circle cx="207.00" cy="63.00" r="1.37"/><circle cx="225.00" cy="63.00" r="1.62"/><circle cx="243.00" cy="63.00" r="2.30"/><circle cx="261.00" cy="63.00" r="2.67"/><circle cx="279.00" cy="63.00" r="2.28"/><circle cx="297.00" cy="63.00" r="1.61"/><circle cx="315.00" cy="63.00" r="1.21"/><circle cx="333.00" cy="63.00" r="1.23"/><circle cx="351.00" cy="63.00" r="1.57"/><circle cx="369.00" cy="63.00" r="2.19"/><circle cx="387.00" cy="63.00" r="3.06"/><circle cx="405.00" cy="63.00" r="3.88"/><circle cx="423.00" cy="63.00" r="3.82"/><circle cx="441.00" cy="63.00" r="2.41"/><circle cx="459.00" cy="63.00" r="0.68"/><circle cx="531.00" cy="63.00" r="1.11"/><circle cx="549.00" cy="63.00" r="2.03"/><circle cx="567.00" cy="63.00" r="1.80"/><circle cx="585.00" cy="63.00" r="0.94"/><circle cx="639.00" cy="63.00" r="0.56"/><circle cx="657.00" cy="63.00" r="1.19"/><circle cx="675.00" cy="63.00" r="2.21"/><circle cx="693.00" cy="63.00" r="3.59"/><circle cx="711.00" cy="63.00" r="4.95"/><circle cx="729.00" cy="63.00" r="5.65"/><circle cx="747.00" cy="63.00" r="5.38"/><circle cx="765.00" cy="63.00" r="4.54"/><circle cx="783.00" cy="63.00" r="3.65"/><circle cx="801.00" cy="63.00" r="2.82"/><circle cx="819.00" cy="63.00" r="1.92"/><circle cx="837.00" cy="63.00" r="1.08"/><circle cx="855.00" cy="63.00" r="0.60"/><circle cx="9.00" cy="81.00" r="1.41"/><circle cx="27.00" cy="81.00" r="2.47"/><circle cx="45.00" cy="81.00" r="3.34"/><circle cx="63.00" cy="81.00" r="3.17"/><circle cx="81.00" cy="81.00" r="2.34"/><circle cx="99.00" cy="81.00" r="1.85"/><circle cx="117.00" cy="81.00" r="2.06"/><circle cx="135.00" cy="81.00" r="2.66"/><circle cx="153.00" cy="81.00" r="2.87"/><circle cx="171.00" cy="81.00" r="2.39"/><circle cx="189.00" cy="81.00" r="1.82"/><circle cx="207.00" cy="81.00" r="1.73"/><circle cx="225.00" cy="81.00" r="2.15"/><circle cx="243.00" cy="81.00" r="2.59"/><circle cx="261.00" cy="81.00" r="2.43"/><circle cx="279.00" cy="81.00" r="1.78"/><circle cx="297.00" cy="81.00" r="1.25"/><circle cx="315.00" cy="81.00" r="1.18"/><circle cx="333.00" cy="81.00" r="1.54"/><circle cx="351.00" cy="81.00" r="2.20"/><circle cx="369.00" cy="81.00" r="2.92"/><circle cx="387.00" cy="81.00" r="3.39"/><circle cx="405.00" cy="81.00" r="3.19"/><circle cx="423.00" cy="81.00" r="2.04"/><circle cx="441.00" cy="81.00" r="0.61"/><circle cx="513.00" cy="81.00" r="0.79"/><circle cx="531.00" cy="81.00" r="2.03"/><circle cx="549.00" cy="81.00" r="2.32"/><circle cx="567.00" cy="81.00" r="1.53"/><circle cx="585.00" cy="81.00" r="0.75"/><circle cx="621.00" cy="81.00" r="0.73"/><circle cx="639.00" cy="81.00" r="1.37"/><circle cx="657.00" cy="81.00" r="2.36"/><circle cx="675.00" cy="81.00" r="3.57"/><circle cx="693.00" cy="81.00" r="4.70"/><circle cx="711.00" cy="81.00" r="5.17"/><circle cx="729.00" cy="81.00" r="4.64"/><circle cx="747.00" cy="81.00" r="3.56"/><circle cx="765.00" cy="81.00" r="2.66"/><circle cx="783.00" cy="81.00" r="2.22"/><circle cx="801.00" cy="81.00" r="1.94"/><circle cx="819.00" cy="81.00" r="1.51"/><circle cx="837.00" cy="81.00" r="1.05"/><circle cx="855.00" cy="81.00" r="0.93"/><circle cx="9.00" cy="99.00" r="2.90"/><circle cx="27.00" cy="99.00" r="4.01"/><circle cx="45.00" cy="99.00" r="3.98"/><circle cx="63.00" cy="99.00" r="2.66"/><circle cx="81.00" cy="99.00" r="1.40"/><circle cx="99.00" cy="99.00" r="1.04"/><circle cx="117.00" cy="99.00" r="1.52"/><circle cx="135.00" cy="99.00" r="2.40"/><circle cx="153.00" cy="99.00" r="2.80"/><circle cx="171.00" cy="99.00" r="2.44"/><circle cx="189.00" cy="99.00" r="2.00"/><circle cx="207.00" cy="99.00" r="2.00"/><circle cx="225.00" cy="99.00" r="2.31"/><circle cx="243.00" cy="99.00" r="2.38"/><circle cx="261.00" cy="99.00" r="1.91"/><circle cx="279.00" cy="99.00" r="1.33"/><circle cx="297.00" cy="99.00" r="1.14"/><circle cx="315.00" cy="99.00" r="1.46"/><circle cx="333.00" cy="99.00" r="2.15"/><circle cx="351.00" cy="99.00" r="2.80"/><circle cx="369.00" cy="99.00" r="2.99"/><circle cx="387.00" cy="99.00" r="2.56"/><circle cx="405.00" cy="99.00" r="1.61"/><circle cx="423.00" cy="99.00" r="0.56"/><circle cx="495.00" cy="99.00" r="0.59"/><circle cx="513.00" cy="99.00" r="1.92"/><circle cx="531.00" cy="99.00" r="2.72"/><circle cx="549.00" cy="99.00" r="2.22"/><circle cx="567.00" cy="99.00" r="1.27"/><circle cx="585.00" cy="99.00" r="0.75"/><circle cx="603.00" cy="99.00" r="0.79"/><circle cx="621.00" cy="99.00" r="1.30"/><circle cx="639.00" cy="99.00" r="2.19"/><circle cx="657.00" cy="99.00" r="3.24"/><circle cx="675.00" cy="99.00" r="4.16"/><circle cx="693.00" cy="99.00" r="4.46"/><circle cx="711.00" cy="99.00" r="3.86"/><circle cx="729.00" cy="99.00" r="2.76"/><circle cx="747.00" cy="99.00" r="1.96"/><circle cx="765.00" cy="99.00" r="1.80"/><circle cx="783.00" cy="99.00" r="2.09"/><circle cx="801.00" cy="99.00" r="2.29"/><circle cx="819.00" cy="99.00" r="2.05"/><circle cx="837.00" cy="99.00" r="1.73"/><circle cx="855.00" cy="99.00" r="1.93"/><circle cx="9.00" cy="117.00" r="4.06"/><circle cx="27.00" cy="117.00" r="4.18"/><circle cx="45.00" cy="117.00" r="2.79"/><circle cx="63.00" cy="117.00" r="1.13"/><circle cx="99.00" cy="117.00" r="0.65"/><circle cx="117.00" cy="117.00" r="1.71"/><circle cx="135.00" cy="117.00" r="2.92"/><circle cx="153.00" cy="117.00" r="3.11"/><circle cx="171.00" cy="117.00" r="2.44"/><circle cx="189.00" cy="117.00" r="1.93"/><circle cx="207.00" cy="117.00" r="1.95"/><circle cx="225.00" cy="117.00" r="2.13"/><circle cx="243.00" cy="117.00" r="1.96"/><circle cx="261.00" cy="117.00" r="1.47"/><circle cx="279.00" cy="117.00" r="1.15"/><circle cx="297.00" cy="117.00" r="1.35"/><circle cx="315.00" cy="117.00" r="2.02"/><circle cx="333.00" cy="117.00" r="2.69"/><circle cx="351.00" cy="117.00" r="2.75"/><circle cx="369.00" cy="117.00" r="2.12"/><circle cx="387.00" cy="117.00" r="1.25"/><circle cx="495.00" cy="117.00" r="1.65"/><circle cx="513.00" cy="117.00" r="2.74"/><circle cx="531.00" cy="117.00" r="2.74"/><circle cx="549.00" cy="117.00" r="1.84"/><circle cx="567.00" cy="117.00" r="1.03"/><circle cx="585.00" cy="117.00" r="0.78"/><circle cx="603.00" cy="117.00" r="1.04"/><circle cx="621.00" cy="117.00" r="1.73"/><circle cx="639.00" cy="117.00" r="2.68"/><circle cx="657.00" cy="117.00" r="3.50"/><circle cx="675.00" cy="117.00" r="3.77"/><circle cx="693.00" cy="117.00" r="3.24"/><circle cx="711.00" cy="117.00" r="2.28"/><circle cx="729.00" cy="117.00" r="1.62"/><circle cx="747.00" cy="117.00" r="1.66"/><circle cx="765.00" cy="117.00" r="2.43"/><circle cx="783.00" cy="117.00" r="3.40"/><circle cx="801.00" cy="117.00" r="3.66"/><circle cx="819.00" cy="117.00" r="3.15"/><circle cx="837.00" cy="117.00" r="2.76"/><circle cx="855.00" cy="117.00" r="3.16"/><circle cx="9.00" cy="135.00" r="3.67"/><circle cx="27.00" cy="135.00" r="2.58"/><circle cx="45.00" cy="135.00" r="0.95"/><circle cx="99.00" cy="135.00" r="1.03"/><circle cx="117.00" cy="135.00" r="2.73"/><circle cx="135.00" cy="135.00" r="3.66"/><circle cx="153.00" cy="135.00" r="3.03"/><circle cx="171.00" cy="135.00" r="2.03"/><circle cx="189.00" cy="135.00" r="1.64"/><circle cx="207.00" cy="135.00" r="1.79"/><circle cx="225.00" cy="135.00" r="1.92"/><circle cx="243.00" cy="135.00" r="1.63"/><circle cx="261.00" cy="135.00" r="1.25"/><circle cx="279.00" cy="135.00" r="1.28"/><circle cx="297.00" cy="135.00" r="1.85"/><circle cx="315.00" cy="135.00" r="2.58"/><circle cx="333.00" cy="135.00" r="2.67"/><circle cx="351.00" cy="135.00" r="1.94"/><circle cx="369.00" cy="135.00" r="1.04"/><circle cx="477.00" cy="135.00" r="1.25"/><circle cx="495.00" cy="135.00" r="2.27"/><circle cx="513.00" cy="135.00" r="2.76"/><circle cx="531.00" cy="135.00" r="2.27"/><circle cx="549.00" cy="135.00" r="1.36"/><circle cx="567.00" cy="135.00" r="0.79"/><circle cx="585.00" cy="135.00" r="0.74"/><circle cx="603.00" cy="135.00" r="1.17"/><circle cx="621.00" cy="135.00" r="2.00"/><circle cx="639.00" cy="135.00" r="2.86"/><circle cx="657.00" cy="135.00" r="3.25"/><circle cx="675.00" cy="135.00" r="2.90"/><circle cx="693.00" cy="135.00" r="2.15"/><circle cx="711.00" cy="135.00" r="1.63"/><circle cx="729.00" cy="135.00" r="1.85"/><circle cx="747.00" cy="135.00" r="3.02"/><circle cx="765.00" cy="135.00" r="4.74"/><circle cx="783.00" cy="135.00" r="5.67"/><circle cx="801.00" cy="135.00" r="5.03"/><circle cx="819.00" cy="135.00" r="3.83"/><circle cx="837.00" cy="135.00" r="3.29"/><circle cx="855.00" cy="135.00" r="3.56"/><circle cx="9.00" cy="153.00" r="2.02"/><circle cx="27.00" cy="153.00" r="0.79"/><circle cx="81.00" cy="153.00" r="0.55"/><circle cx="99.00" cy="153.00" r="2.30"/><circle cx="117.00" cy="153.00" r="3.90"/><circle cx="135.00" cy="153.00" r="3.61"/><circle cx="153.00" cy="153.00" r="2.28"/><circle cx="171.00" cy="153.00" r="1.47"/><circle cx="189.00" cy="153.00" r="1.47"/><circle cx="207.00" cy="153.00" r="1.79"/><circle cx="225.00" cy="153.00" r="1.79"/><circle cx="243.00" cy="153.00" r="1.43"/><circle cx="261.00" cy="153.00" r="1.27"/><circle cx="279.00" cy="153.00" r="1.67"/><circle cx="297.00" cy="153.00" r="2.44"/><circle cx="315.00" cy="153.00" r="2.72"/><circle cx="333.00" cy="153.00" r="2.02"/><circle cx="351.00" cy="153.00" r="1.02"/><circle cx="441.00" cy="153.00" r="0.57"/><circle cx="459.00" cy="153.00" r="0.83"/><circle cx="477.00" cy="153.00" r="1.47"/><circle cx="495.00" cy="153.00" r="2.23"/><circle cx="513.00" cy="153.00" r="2.39"/><circle cx="531.00" cy="153.00" r="1.73"/><circle cx="549.00" cy="153.00" r="0.92"/><circle cx="567.00" cy="153.00" r="0.56"/><circle cx="585.00" cy="153.00" r="0.70"/><circle cx="603.00" cy="153.00" r="1.36"/><circle cx="621.00" cy="153.00" r="2.32"/><circle cx="639.00" cy="153.00" r="2.98"/><circle cx="657.00" cy="153.00" r="2.92"/><circle cx="675.00" cy="153.00" r="2.36"/><circle cx="693.00" cy="153.00" r="1.99"/><circle cx="711.00" cy="153.00" r="2.36"/><circle cx="729.00" cy="153.00" r="3.84"/><circle cx="747.00" cy="153.00" r="6.11"/><circle cx="765.00" cy="153.00" r="7.61"/><circle cx="783.00" cy="153.00" r="6.95"/><circle cx="801.00" cy="153.00" r="4.92"/><circle cx="819.00" cy="153.00" r="3.31"/><circle cx="837.00" cy="153.00" r="2.77"/><circle cx="855.00" cy="153.00" r="2.67"/><circle cx="9.00" cy="171.00" r="0.60"/><circle cx="81.00" cy="171.00" r="1.82"/><circle cx="99.00" cy="171.00" r="3.79"/><circle cx="117.00" cy="171.00" r="4.03"/><circle cx="135.00" cy="171.00" r="2.64"/><circle cx="153.00" cy="171.00" r="1.48"/><circle cx="171.00" cy="171.00" r="1.25"/><circle cx="189.00" cy="171.00" r="1.63"/><circle cx="207.00" cy="171.00" r="1.91"/><circle cx="225.00" cy="171.00" r="1.68"/><circle cx="243.00" cy="171.00" r="1.37"/><circle cx="261.00" cy="171.00" r="1.55"/><circle cx="279.00" cy="171.00" r="2.27"/><circle cx="297.00" cy="171.00" r="2.80"/><circle cx="315.00" cy="171.00" r="2.29"/><circle cx="333.00" cy="171.00" r="1.19"/><circle cx="387.00" cy="171.00" r="0.63"/><circle cx="405.00" cy="171.00" r="0.78"/><circle cx="423.00" cy="171.00" r="0.63"/><circle cx="459.00" cy="171.00" r="0.68"/><circle cx="477.00" cy="171.00" r="1.38"/><circle cx="495.00" cy="171.00" r="2.17"/><circle cx="513.00" cy="171.00" r="2.13"/><circle cx="531.00" cy="171.00" r="1.29"/><circle cx="549.00" cy="171.00" r="0.58"/><circle cx="585.00" cy="171.00" r="0.87"/><circle cx="603.00" cy="171.00" r="1.89"/><circle cx="621.00" cy="171.00" r="2.93"/><circle cx="639.00" cy="171.00" r="3.26"/><circle cx="657.00" cy="171.00" r="2.94"/><circle cx="675.00" cy="171.00" r="2.67"/><circle cx="693.00" cy="171.00" r="3.14"/><circle cx="711.00" cy="171.00" r="4.76"/><circle cx="729.00" cy="171.00" r="7.24"/><circle cx="747.00" cy="171.00" r="9.00"/><circle cx="765.00" cy="171.00" r="8.35"/><circle cx="783.00" cy="171.00" r="5.74"/><circle cx="801.00" cy="171.00" r="3.25"/><circle cx="819.00" cy="171.00" r="1.99"/><circle cx="837.00" cy="171.00" r="1.62"/><circle cx="855.00" cy="171.00" r="1.29"/><circle cx="63.00" cy="189.00" r="1.45"/><circle cx="81.00" cy="189.00" r="3.40"/><circle cx="99.00" cy="189.00" r="4.12"/><circle cx="117.00" cy="189.00" r="2.99"/><circle cx="135.00" cy="189.00" r="1.64"/><circle cx="153.00" cy="189.00" r="1.19"/><circle cx="171.00" cy="189.00" r="1.51"/><circle cx="189.00" cy="189.00" r="1.99"/><circle cx="207.00" cy="189.00" r="1.95"/><circle cx="225.00" cy="189.00" r="1.55"/><circle cx="243.00" cy="189.00" r="1.49"/><circle cx="261.00" cy="189.00" r="2.08"/><circle cx="279.00" cy="189.00" r="2.82"/><circle cx="297.00" cy="189.00" r="2.65"/><circle cx="315.00" cy="189.00" r="1.52"/><circle cx="333.00" cy="189.00" r="0.60"/><circle cx="369.00" cy="189.00" r="0.58"/><circle cx="387.00" cy="189.00" r="0.83"/><circle cx="405.00" cy="189.00" r="0.63"/><circle cx="459.00" cy="189.00" r="0.62"/><circle cx="477.00" cy="189.00" r="1.73"/><circle cx="495.00" cy="189.00" r="2.54"/><circle cx="513.00" cy="189.00" r="2.00"/><circle cx="531.00" cy="189.00" r="0.90"/><circle cx="567.00" cy="189.00" r="0.56"/><circle cx="585.00" cy="189.00" r="1.52"/><circle cx="603.00" cy="189.00" r="2.96"/><circle cx="621.00" cy="189.00" r="3.86"/><circle cx="639.00" cy="189.00" r="3.85"/><circle cx="657.00" cy="189.00" r="3.63"/><circle cx="675.00" cy="189.00" r="4.06"/><circle cx="693.00" cy="189.00" r="5.60"/><circle cx="711.00" cy="189.00" r="7.91"/><circle cx="729.00" cy="189.00" r="9.54"/><circle cx="747.00" cy="189.00" r="8.87"/><circle cx="765.00" cy="189.00" r="6.07"/><circle cx="783.00" cy="189.00" r="3.11"/><circle cx="801.00" cy="189.00" r="1.42"/><circle cx="819.00" cy="189.00" r="0.84"/><circle cx="837.00" cy="189.00" r="0.66"/><circle cx="45.00" cy="207.00" r="1.25"/><circle cx="63.00" cy="207.00" r="2.89"/><circle cx="81.00" cy="207.00" r="3.86"/><circle cx="99.00" cy="207.00" r="3.18"/><circle cx="117.00" cy="207.00" r="1.91"/><circle cx="135.00" cy="207.00" r="1.29"/><circle cx="153.00" cy="207.00" r="1.48"/><circle cx="171.00" cy="207.00" r="2.04"/><circle cx="189.00" cy="207.00" r="2.19"/><circle cx="207.00" cy="207.00" r="1.77"/><circle cx="225.00" cy="207.00" r="1.50"/><circle cx="243.00" cy="207.00" r="1.88"/><circle cx="261.00" cy="207.00" r="2.71"/><circle cx="279.00" cy="207.00" r="2.92"/><circle cx="297.00" cy="207.00" r="1.92"/><circle cx="315.00" cy="207.00" r="0.74"/><circle cx="369.00" cy="207.00" r="0.60"/><circle cx="459.00" cy="207.00" r="1.29"/><circle cx="477.00" cy="207.00" r="2.92"/><circle cx="495.00" cy="207.00" r="3.09"/><circle cx="513.00" cy="207.00" r="1.69"/><circle cx="531.00" cy="207.00" r="0.58"/><circle cx="567.00" cy="207.00" r="1.19"/><circle cx="585.00" cy="207.00" r="2.92"/><circle cx="603.00" cy="207.00" r="4.52"/><circle cx="621.00" cy="207.00" r="4.95"/><circle cx="639.00" cy="207.00" r="4.72"/><circle cx="657.00" cy="207.00" r="4.92"/><circle cx="675.00" cy="207.00" r="6.12"/><circle cx="693.00" cy="207.00" r="7.97"/><circle cx="711.00" cy="207.00" r="9.22"/><circle cx="729.00" cy="207.00" r="8.50"/><circle cx="747.00" cy="207.00" r="5.87"/><circle cx="765.00" cy="207.00" r="2.94"/><circle cx="783.00" cy="207.00" r="1.12"/><circle cx="27.00" cy="225.00" r="1.23"/><circle cx="45.00" cy="225.00" r="2.44"/><circle cx="63.00" cy="225.00" r="3.35"/><circle cx="81.00" cy="225.00" r="3.11"/><circle cx="99.00" cy="225.00" r="2.16"/><circle cx="117.00" cy="225.00" r="1.52"/><circle cx="135.00" cy="225.00" r="1.60"/><circle cx="153.00" cy="225.00" r="2.11"/><circle cx="171.00" cy="225.00" r="2.35"/><circle cx="189.00" cy="225.00" r="1.97"/><circle cx="207.00" cy="225.00" r="1.54"/><circle cx="225.00" cy="225.00" r="1.68"/><circle cx="243.00" cy="225.00" r="2.44"/><circle cx="261.00" cy="225.00" r="2.97"/><circle cx="279.00" cy="225.00" r="2.25"/><circle cx="297.00" cy="225.00" r="0.89"/><circle cx="441.00" cy="225.00" r="1.03"/><circle cx="459.00" cy="225.00" r="3.28"/><circle cx="477.00" cy="225.00" r="4.45"/><circle cx="495.00" cy="225.00" r="3.03"/><circle cx="513.00" cy="225.00" r="1.10"/><circle cx="549.00" cy="225.00" r="0.89"/><circle cx="567.00" cy="225.00" r="2.67"/><circle cx="585.00" cy="225.00" r="4.94"/><circle cx="603.00" cy="225.00" r="6.00"/><circle cx="621.00" cy="225.00" r="5.78"/><circle cx="639.00" cy="225.00" r="5.57"/><circle cx="657.00" cy="225.00" r="6.20"/><circle cx="675.00" cy="225.00" r="7.46"/><circle cx="693.00" cy="225.00" r="8.27"/><circle cx="711.00" cy="225.00" r="7.54"/><circle cx="729.00" cy="225.00" r="5.32"/><circle cx="747.00" cy="225.00" r="2.79"/><circle cx="765.00" cy="225.00" r="1.06"/><circle cx="9.00" cy="243.00" r="1.35"/><circle cx="27.00" cy="243.00" r="2.15"/><circle cx="45.00" cy="243.00" r="2.78"/><circle cx="63.00" cy="243.00" r="2.79"/><circle cx="81.00" cy="243.00" r="2.27"/><circle cx="99.00" cy="243.00" r="1.83"/><circle cx="117.00" cy="243.00" r="1.84"/><circle cx="135.00" cy="243.00" r="2.23"/><circle cx="153.00" cy="243.00" r="2.44"/><circle cx="171.00" cy="243.00" r="2.09"/><circle cx="189.00" cy="243.00" r="1.55"/><circle cx="207.00" cy="243.00" r="1.48"/><circle cx="225.00" cy="243.00" r="2.05"/><circle cx="243.00" cy="243.00" r="2.72"/><circle cx="261.00" cy="243.00" r="2.35"/><circle cx="279.00" cy="243.00" r="1.01"/><circle cx="423.00" cy="243.00" r="1.05"/><circle cx="441.00" cy="243.00" r="3.67"/><circle cx="459.00" cy="243.00" r="5.81"/><circle cx="477.00" cy="243.00" r="4.73"/><circle cx="495.00" cy="243.00" r="2.00"/><circle cx="513.00" cy="243.00" r="0.58"/><circle cx="531.00" cy="243.00" r="0.64"/><circle cx="549.00" cy="243.00" r="2.15"/><circle cx="567.00" cy="243.00" r="4.86"/><circle cx="585.00" cy="243.00" r="6.68"/><circle cx="603.00" cy="243.00" r="6.63"/><circle cx="621.00" cy="243.00" r="5.95"/><circle cx="639.00" cy="243.00" r="5.90"/><circle cx="657.00" cy="243.00" r="6.55"/><circle cx="675.00" cy="243.00" r="7.01"/><circle cx="693.00" cy="243.00" r="6.39"/><circle cx="711.00" cy="243.00" r="4.69"/><circle cx="729.00" cy="243.00" r="2.72"/><circle cx="747.00" cy="243.00" r="1.22"/><circle cx="855.00" cy="243.00" r="0.74"/><circle cx="9.00" cy="261.00" r="2.03"/><circle cx="27.00" cy="261.00" r="2.31"/><circle cx="45.00" cy="261.00" r="2.33"/><circle cx="63.00" cy="261.00" r="2.19"/><circle cx="81.00" cy="261.00" r="2.07"/><circle cx="99.00" cy="261.00" r="2.17"/><circle cx="117.00" cy="261.00" r="2.42"/><circle cx="135.00" cy="261.00" r="2.48"/><circle cx="153.00" cy="261.00" r="2.08"/><circle cx="171.00" cy="261.00" r="1.49"/><circle cx="189.00" cy="261.00" r="1.26"/><circle cx="207.00" cy="261.00" r="1.60"/><circle cx="225.00" cy="261.00" r="2.23"/><circle cx="243.00" cy="261.00" r="2.19"/><circle cx="261.00" cy="261.00" r="1.07"/><circle cx="405.00" cy="261.00" r="1.47"/><circle cx="423.00" cy="261.00" r="4.14"/><circle cx="441.00" cy="261.00" r="6.82"/><circle cx="459.00" cy="261.00" r="6.28"/><circle cx="477.00" cy="261.00" r="3.09"/><circle cx="495.00" cy="261.00" r="0.83"/><circle cx="531.00" cy="261.00" r="1.49"/><circle cx="549.00" cy="261.00" r="4.21"/><circle cx="567.00" cy="261.00" r="6.76"/><circle cx="585.00" cy="261.00" r="7.13"/><circle cx="603.00" cy="261.00" r="6.12"/><circle cx="621.00" cy="261.00" r="5.41"/><circle cx="639.00" cy="261.00" r="5.50"/><circle cx="657.00" cy="261.00" r="5.78"/><circle cx="675.00" cy="261.00" r="5.39"/><circle cx="693.00" cy="261.00" r="4.22"/><circle cx="711.00" cy="261.00" r="2.80"/><circle cx="729.00" cy="261.00" r="1.61"/><circle cx="747.00" cy="261.00" r="0.77"/><circle cx="837.00" cy="261.00" r="0.89"/><circle cx="855.00" cy="261.00" r="1.51"/><circle cx="9.00" cy="279.00" r="2.04"/><circle cx="27.00" cy="279.00" r="1.91"/><circle cx="45.00" cy="279.00" r="1.92"/><circle cx="63.00" cy="279.00" r="2.15"/><circle cx="81.00" cy="279.00" r="2.47"/><circle cx="99.00" cy="279.00" r="2.67"/><circle cx="117.00" cy="279.00" r="2.52"/><circle cx="135.00" cy="279.00" r="1.98"/><circle cx="153.00" cy="279.00" r="1.34"/><circle cx="171.00" cy="279.00" r="1.02"/><circle cx="189.00" cy="279.00" r="1.16"/><circle cx="207.00" cy="279.00" r="1.65"/><circle cx="225.00" cy="279.00" r="1.81"/><circle cx="243.00" cy="279.00" r="1.04"/><circle cx="351.00" cy="279.00" r="0.67"/><circle cx="369.00" cy="279.00" r="1.24"/><circle cx="387.00" cy="279.00" r="2.40"/><circle cx="405.00" cy="279.00" r="4.75"/><circle cx="423.00" cy="279.00" r="7.24"/><circle cx="441.00" cy="279.00" r="7.09"/><circle cx="459.00" cy="279.00" r="3.95"/><circle cx="477.00" cy="279.00" r="1.12"/><circle cx="513.00" cy="279.00" r="0.87"/><circle cx="531.00" cy="279.00" r="3.20"/><circle cx="549.00" cy="279.00" r="6.20"/><circle cx="567.00" cy="279.00" r="7.23"/><circle cx="585.00" cy="279.00" r="6.19"/><circle cx="603.00" cy="279.00" r="4.97"/><circle cx="621.00" cy="279.00" r="4.59"/><circle cx="639.00" cy="279.00" r="4.77"/><circle cx="657.00" cy="279.00" r="4.71"/><circle cx="675.00" cy="279.00" r="4.05"/><circle cx="693.00" cy="279.00" r="3.10"/><circle cx="711.00" cy="279.00" r="2.19"/><circle cx="729.00" cy="279.00" r="1.36"/><circle cx="747.00" cy="279.00" r="0.64"/><circle cx="819.00" cy="279.00" r="0.84"/><circle cx="837.00" cy="279.00" r="1.60"/><circle cx="855.00" cy="279.00" r="2.04"/><circle cx="9.00" cy="297.00" r="1.62"/><circle cx="27.00" cy="297.00" r="1.59"/><circle cx="45.00" cy="297.00" r="2.01"/><circle cx="63.00" cy="297.00" r="2.61"/><circle cx="81.00" cy="297.00" r="2.90"/><circle cx="99.00" cy="297.00" r="2.58"/><circle cx="117.00" cy="297.00" r="1.85"/><circle cx="135.00" cy="297.00" r="1.14"/><circle cx="153.00" cy="297.00" r="0.76"/><circle cx="171.00" cy="297.00" r="0.78"/><circle cx="189.00" cy="297.00" r="1.11"/><circle cx="207.00" cy="297.00" r="1.36"/><circle cx="225.00" cy="297.00" r="0.96"/><circle cx="333.00" cy="297.00" r="1.37"/><circle cx="351.00" cy="297.00" r="2.65"/><circle cx="369.00" cy="297.00" r="3.89"/><circle cx="387.00" cy="297.00" r="5.49"/><circle cx="405.00" cy="297.00" r="7.04"/><circle cx="423.00" cy="297.00" r="6.82"/><circle cx="441.00" cy="297.00" r="4.15"/><circle cx="459.00" cy="297.00" r="1.31"/><circle cx="513.00" cy="297.00" r="2.17"/><circle cx="531.00" cy="297.00" r="5.22"/><circle cx="549.00" cy="297.00" r="6.97"/><circle cx="567.00" cy="297.00" r="6.25"/><circle cx="585.00" cy="297.00" r="4.75"/><circle cx="603.00" cy="297.00" r="4.00"/><circle cx="621.00" cy="297.00" r="4.10"/><circle cx="639.00" cy="297.00" r="4.36"/><circle cx="657.00" cy="297.00" r="4.20"/><circle cx="675.00" cy="297.00" r="3.62"/><circle cx="693.00" cy="297.00" r="2.92"/><circle cx="711.00" cy="297.00" r="2.10"/><circle cx="729.00" cy="297.00" r="1.13"/><circle cx="801.00" cy="297.00" r="0.60"/><circle cx="819.00" cy="297.00" r="1.50"/><circle cx="837.00" cy="297.00" r="2.09"/><circle cx="855.00" cy="297.00" r="1.97"/><circle cx="9.00" cy="315.00" r="1.31"/><circle cx="27.00" cy="315.00" r="1.71"/><circle cx="45.00" cy="315.00" r="2.52"/><circle cx="63.00" cy="315.00" r="3.02"/><circle cx="81.00" cy="315.00" r="2.67"/><circle cx="99.00" cy="315.00" r="1.75"/><circle cx="117.00" cy="315.00" r="0.93"/><circle cx="171.00" cy="315.00" r="0.69"/><circle cx="189.00" cy="315.00" r="0.96"/><circle cx="207.00" cy="315.00" r="0.87"/><circle cx="315.00" cy="315.00" r="2.09"/><circle cx="333.00" cy="315.00" r="4.29"/><circle cx="351.00" cy="315.00" r="5.70"/><circle cx="369.00" cy="315.00" r="6.30"/><circle cx="387.00" cy="315.00" r="6.42"/><circle cx="405.00" cy="315.00" r="5.63"/><circle cx="423.00" cy="315.00" r="3.56"/><circle cx="441.00" cy="315.00" r="1.30"/><circle cx="495.00" cy="315.00" r="1.42"/><circle cx="513.00" cy="315.00" r="4.15"/><circle cx="531.00" cy="315.00" r="6.43"/><circle cx="549.00" cy="315.00" r="6.34"/><circle cx="567.00" cy="315.00" r="4.84"/><circle cx="585.00" cy="315.00" r="3.80"/><circle cx="603.00" cy="315.00" r="3.78"/><circle cx="621.00" cy="315.00" r="4.29"/><circle cx="639.00" cy="315.00" r="4.59"/><circle cx="657.00" cy="315.00" r="4.34"/><circle cx="675.00" cy="315.00" r="3.71"/><circle cx="693.00" cy="315.00" r="2.80"/><circle cx="711.00" cy="315.00" r="1.62"/><circle cx="729.00" cy="315.00" r="0.54"/><circle cx="801.00" cy="315.00" r="1.21"/><circle cx="819.00" cy="315.00" r="2.07"/><circle cx="837.00" cy="315.00" r="2.04"/><circle cx="855.00" cy="315.00" r="1.52"/><circle cx="9.00" cy="333.00" r="1.39"/><circle cx="27.00" cy="333.00" r="2.21"/><circle cx="45.00" cy="333.00" r="2.95"/><circle cx="63.00" cy="333.00" r="2.74"/><circle cx="81.00" cy="333.00" r="1.73"/><circle cx="99.00" cy="333.00" r="0.80"/><circle cx="171.00" cy="333.00" r="0.67"/><circle cx="189.00" cy="333.00" r="0.81"/><circle cx="207.00" cy="333.00" r="0.57"/><circle cx="297.00" cy="333.00" r="2.55"/><circle cx="315.00" cy="333.00" r="5.50"/><circle cx="333.00" cy="333.00" r="7.28"/><circle cx="351.00" cy="333.00" r="7.01"/><circle cx="369.00" cy="333.00" r="5.63"/><circle cx="387.00" cy="333.00" r="4.05"/><circle cx="405.00" cy="333.00" r="2.46"/><circle cx="423.00" cy="333.00" r="1.06"/><circle cx="477.00" cy="333.00" r="1.08"/><circle cx="495.00" cy="333.00" r="3.31"/><circle cx="513.00" cy="333.00" r="5.79"/><circle cx="531.00" cy="333.00" r="6.39"/><circle cx="549.00" cy="333.00" r="5.21"/><circle cx="567.00" cy="333.00" r="3.99"/><circle cx="585.00" cy="333.00" r="3.77"/><circle cx="603.00" cy="333.00" r="4.39"/><circle cx="621.00" cy="333.00" r="5.08"/><circle cx="639.00" cy="333.00" r="5.11"/><circle cx="657.00" cy="333.00" r="4.43"/><circle cx="675.00" cy="333.00" r="3.30"/><circle cx="693.00" cy="333.00" r="1.91"/><circle cx="711.00" cy="333.00" r="0.65"/><circle cx="783.00" cy="333.00" r="0.83"/><circle cx="801.00" cy="333.00" r="1.91"/><circle cx="819.00" cy="333.00" r="2.16"/><circle cx="837.00" cy="333.00" r="1.59"/><circle cx="855.00" cy="333.00" r="1.16"/><circle cx="9.00" cy="351.00" r="1.82"/><circle cx="27.00" cy="351.00" r="2.68"/><circle cx="45.00" cy="351.00" r="2.73"/><circle cx="63.00" cy="351.00" r="1.79"/><circle cx="81.00" cy="351.00" r="0.75"/><circle cx="171.00" cy="351.00" r="0.81"/><circle cx="189.00" cy="351.00" r="0.89"/><circle cx="207.00" cy="351.00" r="0.62"/><circle cx="261.00" cy="351.00" r="0.69"/><circle cx="279.00" cy="351.00" r="2.59"/><circle cx="297.00" cy="351.00" r="5.80"/><circle cx="315.00" cy="351.00" r="8.03"/><circle cx="333.00" cy="351.00" r="7.41"/><circle cx="351.00" cy="351.00" r="4.94"/><circle cx="369.00" cy="351.00" r="2.67"/><circle cx="387.00" cy="351.00" r="1.35"/><circle cx="405.00" cy="351.00" r="0.70"/><circle cx="459.00" cy="351.00" r="1.15"/><circle cx="477.00" cy="351.00" r="2.89"/><circle cx="495.00" cy="351.00" r="5.17"/><circle cx="513.00" cy="351.00" r="6.32"/><circle cx="531.00" cy="351.00" r="5.68"/><circle cx="549.00" cy="351.00" r="4.47"/><circle cx="567.00" cy="351.00" r="4.01"/><circle cx="585.00" cy="351.00" r="4.54"/><circle cx="603.00" cy="351.00" r="5.43"/><circle cx="621.00" cy="351.00" r="5.71"/><circle cx="639.00" cy="351.00" r="4.94"/><circle cx="657.00" cy="351.00" r="3.49"/><circle cx="675.00" cy="351.00" r="1.92"/><circle cx="693.00" cy="351.00" r="0.64"/><circle cx="783.00" cy="351.00" r="1.60"/><circle cx="801.00" cy="351.00" r="2.19"/><circle cx="819.00" cy="351.00" r="1.76"/><circle cx="837.00" cy="351.00" r="1.17"/><circle cx="855.00" cy="351.00" r="1.15"/><circle cx="9.00" cy="369.00" r="2.30"/><circle cx="27.00" cy="369.00" r="2.60"/><circle cx="45.00" cy="369.00" r="1.86"/><circle cx="63.00" cy="369.00" r="0.80"/><circle cx="153.00" cy="369.00" r="0.86"/><circle cx="171.00" cy="369.00" r="1.28"/><circle cx="189.00" cy="369.00" r="1.34"/><circle cx="207.00" cy="369.00" r="1.01"/><circle cx="225.00" cy="369.00" r="0.70"/><circle cx="243.00" cy="369.00" r="0.92"/><circle cx="261.00" cy="369.00" r="2.28"/><circle cx="279.00" cy="369.00" r="5.11"/><circle cx="297.00" cy="369.00" r="7.66"/><circle cx="315.00" cy="369.00" r="7.34"/><circle cx="333.00" cy="369.00" r="4.48"/><circle cx="351.00" cy="369.00" r="1.79"/><circle cx="369.00" cy="369.00" r="0.61"/><circle cx="405.00" cy="369.00" r="0.56"/><circle cx="423.00" cy="369.00" r="0.95"/><circle cx="441.00" cy="369.00" r="1.66"/><circle cx="459.00" cy="369.00" r="2.94"/><circle cx="477.00" cy="369.00" r="4.71"/><circle cx="495.00" cy="369.00" r="6.03"/><circle cx="513.00" cy="369.00" r="6.00"/><circle cx="531.00" cy="369.00" r="5.04"/><circle cx="549.00" cy="369.00" r="4.38"/><circle cx="567.00" cy="369.00" r="4.63"/><circle cx="585.00" cy="369.00" r="5.49"/><circle cx="603.00" cy="369.00" r="5.93"/><circle cx="621.00" cy="369.00" r="5.15"/><circle cx="639.00" cy="369.00" r="3.44"/><circle cx="657.00" cy="369.00" r="1.70"/><circle cx="765.00" cy="369.00" r="1.24"/><circle cx="783.00" cy="369.00" r="2.05"/><circle cx="801.00" cy="369.00" r="1.91"/><circle cx="819.00" cy="369.00" r="1.30"/><circle cx="837.00" cy="369.00" r="1.07"/><circle cx="855.00" cy="369.00" r="1.49"/><circle cx="9.00" cy="387.00" r="2.36"/><circle cx="27.00" cy="387.00" r="1.89"/><circle cx="45.00" cy="387.00" r="0.91"/><circle cx="135.00" cy="387.00" r="0.95"/><circle cx="153.00" cy="387.00" r="1.68"/><circle cx="171.00" cy="387.00" r="2.15"/><circle cx="189.00" cy="387.00" r="1.98"/><circle cx="207.00" cy="387.00" r="1.40"/><circle cx="225.00" cy="387.00" r="1.14"/><circle cx="243.00" cy="387.00" r="1.78"/><circle cx="261.00" cy="387.00" r="3.79"/><circle cx="279.00" cy="387.00" r="6.33"/><circle cx="297.00" cy="387.00" r="6.78"/><circle cx="315.00" cy="387.00" r="4.31"/><circle cx="333.00" cy="387.00" r="1.48"/><circle cx="387.00" cy="387.00" r="0.74"/><circle cx="405.00" cy="387.00" r="1.72"/><circle cx="423.00" cy="387.00" r="2.66"/><circle cx="441.00" cy="387.00" r="3.46"/><circle cx="459.00" cy="387.00" r="4.43"/><circle cx="477.00" cy="387.00" r="5.47"/><circle cx="495.00" cy="387.00" r="5.89"/><circle cx="513.00" cy="387.00" r="5.41"/><circle cx="531.00" cy="387.00" r="4.70"/><circle cx="549.00" cy="387.00" r="4.60"/><circle cx="567.00" cy="387.00" r="5.19"/><circle cx="585.00" cy="387.00" r="5.67"/><circle cx="603.00" cy="387.00" r="5.01"/><circle cx="621.00" cy="387.00" r="3.23"/><circle cx="639.00" cy="387.00" r="1.41"/><circle cx="747.00" cy="387.00" r="0.93"/><circle cx="765.00" cy="387.00" r="1.73"/><circle cx="783.00" cy="387.00" r="1.91"/><circle cx="801.00" cy="387.00" r="1.49"/><circle cx="819.00" cy="387.00" r="1.16"/><circle cx="837.00" cy="387.00" r="1.34"/><circle cx="855.00" cy="387.00" r="1.95"/><circle cx="9.00" cy="405.00" r="1.80"/><circle cx="27.00" cy="405.00" r="1.00"/><circle cx="117.00" cy="405.00" r="1.03"/><circle cx="135.00" cy="405.00" r="2.02"/><circle cx="153.00" cy="405.00" r="2.86"/><circle cx="171.00" cy="405.00" r="2.91"/><circle cx="189.00" cy="405.00" r="2.12"/><circle cx="207.00" cy="405.00" r="1.33"/><circle cx="225.00" cy="405.00" r="1.27"/><circle cx="243.00" cy="405.00" r="2.40"/><circle cx="261.00" cy="405.00" r="4.59"/><circle cx="279.00" cy="405.00" r="5.88"/><circle cx="297.00" cy="405.00" r="4.40"/><circle cx="315.00" cy="405.00" r="1.70"/><circle cx="369.00" cy="405.00" r="0.96"/><circle cx="387.00" cy="405.00" r="2.62"/><circle cx="405.00" cy="405.00" r="3.99"/><circle cx="423.00" cy="405.00" r="4.33"/><circle cx="441.00" cy="405.00" r="4.34"/><circle cx="459.00" cy="405.00" r="4.70"/><circle cx="477.00" cy="405.00" r="5.24"/><circle cx="495.00" cy="405.00" r="5.29"/><circle cx="513.00" cy="405.00" r="4.79"/><circle cx="531.00" cy="405.00" r="4.41"/><circle cx="549.00" cy="405.00" r="4.61"/><circle cx="567.00" cy="405.00" r="5.01"/><circle cx="585.00" cy="405.00" r="4.59"/><circle cx="603.00" cy="405.00" r="3.00"/><circle cx="621.00" cy="405.00" r="1.21"/><circle cx="729.00" cy="405.00" r="0.74"/><circle cx="747.00" cy="405.00" r="1.31"/><circle cx="765.00" cy="405.00" r="1.68"/><circle cx="783.00" cy="405.00" r="1.62"/><circle cx="801.00" cy="405.00" r="1.41"/><circle cx="819.00" cy="405.00" r="1.42"/><circle cx="837.00" cy="405.00" r="1.75"/><circle cx="855.00" cy="405.00" r="2.06"/><circle cx="9.00" cy="423.00" r="0.98"/><circle cx="99.00" cy="423.00" r="1.07"/><circle cx="117.00" cy="423.00" r="2.24"/><circle cx="135.00" cy="423.00" r="3.35"/><circle cx="153.00" cy="423.00" r="3.59"/><circle cx="171.00" cy="423.00" r="2.68"/><circle cx="189.00" cy="423.00" r="1.46"/><circle cx="207.00" cy="423.00" r="0.90"/><circle cx="225.00" cy="423.00" r="1.34"/><circle cx="243.00" cy="423.00" r="3.01"/><circle cx="261.00" cy="423.00" r="4.90"/><circle cx="279.00" cy="423.00" r="4.71"/><circle cx="297.00" cy="423.00" r="2.47"/><circle cx="315.00" cy="423.00" r="0.73"/><circle cx="351.00" cy="423.00" r="1.23"/><circle cx="369.00" cy="423.00" r="3.37"/><circle cx="387.00" cy="423.00" r="5.24"/><circle cx="405.00" cy="423.00" r="5.28"/><circle cx="423.00" cy="423.00" r="4.32"/><circle cx="441.00" cy="423.00" r="3.83"/><circle cx="459.00" cy="423.00" r="4.14"/><circle cx="477.00" cy="423.00" r="4.60"/><circle cx="495.00" cy="423.00" r="4.52"/><circle cx="513.00" cy="423.00" r="4.09"/><circle cx="531.00" cy="423.00" r="3.94"/><circle cx="549.00" cy="423.00" r="4.16"/><circle cx="567.00" cy="423.00" r="4.02"/><circle cx="585.00" cy="423.00" r="2.83"/><circle cx="603.00" cy="423.00" r="1.18"/><circle cx="711.00" cy="423.00" r="0.70"/><circle cx="729.00" cy="423.00" r="0.93"/><circle cx="747.00" cy="423.00" r="1.27"/><circle cx="765.00" cy="423.00" r="1.59"/><circle cx="783.00" cy="423.00" r="1.73"/><circle cx="801.00" cy="423.00" r="1.75"/><circle cx="819.00" cy="423.00" r="1.78"/><circle cx="837.00" cy="423.00" r="1.80"/><circle cx="855.00" cy="423.00" r="1.56"/><circle cx="81.00" cy="441.00" r="1.06"/><circle cx="99.00" cy="441.00" r="2.32"/><circle cx="117.00" cy="441.00" r="3.59"/><circle cx="135.00" cy="441.00" r="3.96"/><circle cx="153.00" cy="441.00" r="3.02"/><circle cx="171.00" cy="441.00" r="1.55"/><circle cx="189.00" cy="441.00" r="0.68"/><circle cx="207.00" cy="441.00" r="0.74"/><circle cx="225.00" cy="441.00" r="1.93"/><circle cx="243.00" cy="441.00" r="4.09"/><circle cx="261.00" cy="441.00" r="5.16"/><circle cx="279.00" cy="441.00" r="3.77"/><circle cx="297.00" cy="441.00" r="1.72"/><circle cx="315.00" cy="441.00" r="0.92"/><circle cx="333.00" cy="441.00" r="1.57"/><circle cx="351.00" cy="441.00" r="3.72"/><circle cx="369.00" cy="441.00" r="5.88"/><circle cx="387.00" cy="441.00" r="5.88"/><circle cx="405.00" cy="441.00" r="4.24"/><circle cx="423.00" cy="441.00" r="2.99"/><circle cx="441.00" cy="441.00" r="2.89"/><circle cx="459.00" cy="441.00" r="3.50"/><circle cx="477.00" cy="441.00" r="3.89"/><circle cx="495.00" cy="441.00" r="3.67"/><circle cx="513.00" cy="441.00" r="3.34"/><circle cx="531.00" cy="441.00" r="3.38"/><circle cx="549.00" cy="441.00" r="3.46"/><circle cx="567.00" cy="441.00" r="2.77"/><circle cx="585.00" cy="441.00" r="1.37"/><circle cx="675.00" cy="441.00" r="0.84"/><circle cx="693.00" cy="441.00" r="0.80"/><circle cx="711.00" cy="441.00" r="0.67"/><circle cx="729.00" cy="441.00" r="0.81"/><circle cx="747.00" cy="441.00" r="1.34"/><circle cx="765.00" cy="441.00" r="2.01"/><circle cx="783.00" cy="441.00" r="2.31"/><circle cx="801.00" cy="441.00" r="2.09"/><circle cx="819.00" cy="441.00" r="1.66"/><circle cx="837.00" cy="441.00" r="1.22"/><circle cx="855.00" cy="441.00" r="0.79"/><circle cx="63.00" cy="459.00" r="1.03"/><circle cx="81.00" cy="459.00" r="2.27"/><circle cx="99.00" cy="459.00" r="3.63"/><circle cx="117.00" cy="459.00" r="4.11"/><circle cx="135.00" cy="459.00" r="3.19"/><circle cx="153.00" cy="459.00" r="1.64"/><circle cx="171.00" cy="459.00" r="0.63"/><circle cx="207.00" cy="459.00" r="1.39"/><circle cx="225.00" cy="459.00" r="3.61"/><circle cx="243.00" cy="459.00" r="5.70"/><circle cx="261.00" cy="459.00" r="5.42"/><circle cx="279.00" cy="459.00" r="3.36"/><circle cx="297.00" cy="459.00" r="1.88"/><circle cx="315.00" cy="459.00" r="1.97"/><circle cx="333.00" cy="459.00" r="3.60"/><circle cx="351.00" cy="459.00" r="5.60"/><circle cx="369.00" cy="459.00" r="5.75"/><circle cx="387.00" cy="459.00" r="3.95"/><circle cx="405.00" cy="459.00" r="2.27"/><circle cx="423.00" cy="459.00" r="1.81"/><circle cx="441.00" cy="459.00" r="2.32"/><circle cx="459.00" cy="459.00" r="3.05"/><circle cx="477.00" cy="459.00" r="3.20"/><circle cx="495.00" cy="459.00" r="2.91"/><circle cx="513.00" cy="459.00" r="2.83"/><circle cx="531.00" cy="459.00" r="3.05"/><circle cx="549.00" cy="459.00" r="2.85"/><circle cx="567.00" cy="459.00" r="1.78"/><circle cx="585.00" cy="459.00" r="0.62"/><circle cx="639.00" cy="459.00" r="0.75"/><circle cx="657.00" cy="459.00" r="1.23"/><circle cx="675.00" cy="459.00" r="1.03"/><circle cx="693.00" cy="459.00" r="0.55"/><circle cx="729.00" cy="459.00" r="0.96"/><circle cx="747.00" cy="459.00" r="2.08"/><circle cx="765.00" cy="459.00" r="2.94"/><circle cx="783.00" cy="459.00" r="2.67"/><circle cx="801.00" cy="459.00" r="1.69"/><circle cx="819.00" cy="459.00" r="0.87"/><circle cx="45.00" cy="477.00" r="1.06"/><circle cx="63.00" cy="477.00" r="2.19"/><circle cx="81.00" cy="477.00" r="3.56"/><circle cx="99.00" cy="477.00" r="4.15"/><circle cx="117.00" cy="477.00" r="3.33"/><circle cx="135.00" cy="477.00" r="1.79"/><circle cx="153.00" cy="477.00" r="0.72"/><circle cx="189.00" cy="477.00" r="1.27"/><circle cx="207.00" cy="477.00" r="3.48"/><circle cx="225.00" cy="477.00" r="6.21"/><circle cx="243.00" cy="477.00" r="7.01"/><circle cx="261.00" cy="477.00" r="5.28"/><circle cx="279.00" cy="477.00" r="3.16"/><circle cx="297.00" cy="477.00" r="2.40"/><circle cx="315.00" cy="477.00" r="3.12"/><circle cx="333.00" cy="477.00" r="4.52"/><circle cx="351.00" cy="477.00" r="4.82"/><circle cx="369.00" cy="477.00" r="3.36"/><circle cx="387.00" cy="477.00" r="1.71"/><circle cx="405.00" cy="477.00" r="1.07"/><circle cx="423.00" cy="477.00" r="1.39"/><circle cx="441.00" cy="477.00" r="2.22"/><circle cx="459.00" cy="477.00" r="2.75"/><circle cx="477.00" cy="477.00" r="2.68"/><circle cx="495.00" cy="477.00" r="2.59"/><circle cx="513.00" cy="477.00" r="2.86"/><circle cx="531.00" cy="477.00" r="3.06"/><circle cx="549.00" cy="477.00" r="2.40"/><circle cx="567.00" cy="477.00" r="1.17"/><circle cx="621.00" cy="477.00" r="0.86"/><circle cx="639.00" cy="477.00" r="1.50"/><circle cx="657.00" cy="477.00" r="1.31"/><circle cx="675.00" cy="477.00" r="0.58"/><circle cx="711.00" cy="477.00" r="0.59"/><circle cx="729.00" cy="477.00" r="1.89"/><circle cx="747.00" cy="477.00" r="3.43"/><circle cx="765.00" cy="477.00" r="3.39"/><circle cx="783.00" cy="477.00" r="1.89"/><circle cx="801.00" cy="477.00" r="0.60"/><circle cx="9.00" cy="495.00" r="0.69"/><circle cx="27.00" cy="495.00" r="1.22"/><circle cx="45.00" cy="495.00" r="2.19"/><circle cx="63.00" cy="495.00" r="3.47"/><circle cx="81.00" cy="495.00" r="4.17"/><circle cx="99.00" cy="495.00" r="3.53"/><circle cx="117.00" cy="495.00" r="2.06"/><circle cx="135.00" cy="495.00" r="0.96"/><circle cx="153.00" cy="495.00" r="0.72"/><circle cx="171.00" cy="495.00" r="1.48"/><circle cx="189.00" cy="495.00" r="3.67"/><circle cx="207.00" cy="495.00" r="6.62"/><circle cx="225.00" cy="495.00" r="8.10"/><circle cx="243.00" cy="495.00" r="6.86"/><circle cx="261.00" cy="495.00" r="4.38"/><circle cx="279.00" cy="495.00" r="2.75"/><circle cx="297.00" cy="495.00" r="2.50"/><circle cx="315.00" cy="495.00" r="3.11"/><circle cx="333.00" cy="495.00" r="3.40"/><circle cx="351.00" cy="495.00" r="2.55"/><circle cx="369.00" cy="495.00" r="1.30"/><circle cx="387.00" cy="495.00" r="0.69"/><circle cx="405.00" cy="495.00" r="0.84"/><circle cx="423.00" cy="495.00" r="1.59"/><circle cx="441.00" cy="495.00" r="2.37"/><circle cx="459.00" cy="495.00" r="2.61"/><circle cx="477.00" cy="495.00" r="2.61"/><circle cx="495.00" cy="495.00" r="2.91"/><circle cx="513.00" cy="495.00" r="3.37"/><circle cx="531.00" cy="495.00" r="3.14"/><circle cx="549.00" cy="495.00" r="1.95"/><circle cx="567.00" cy="495.00" r="0.82"/><circle cx="603.00" cy="495.00" r="0.82"/><circle cx="621.00" cy="495.00" r="1.52"/><circle cx="639.00" cy="495.00" r="1.54"/><circle cx="657.00" cy="495.00" r="0.73"/><circle cx="711.00" cy="495.00" r="1.51"/><circle cx="729.00" cy="495.00" r="3.51"/><circle cx="747.00" cy="495.00" r="4.00"/><circle cx="765.00" cy="495.00" r="2.22"/><circle cx="9.00" cy="513.00" r="1.60"/><circle cx="27.00" cy="513.00" r="2.38"/><circle cx="45.00" cy="513.00" r="3.48"/><circle cx="63.00" cy="513.00" r="4.24"/><circle cx="81.00" cy="513.00" r="3.82"/><circle cx="99.00" cy="513.00" r="2.48"/><circle cx="117.00" cy="513.00" r="1.36"/><circle cx="135.00" cy="513.00" r="1.11"/><circle cx="153.00" cy="513.00" r="1.91"/><circle cx="171.00" cy="513.00" r="4.03"/><circle cx="189.00" cy="513.00" r="6.82"/><circle cx="207.00" cy="513.00" r="8.43"/><circle cx="225.00" cy="513.00" r="7.56"/><circle cx="243.00" cy="513.00" r="5.09"/><circle cx="261.00" cy="513.00" r="2.92"/><circle cx="279.00" cy="513.00" r="1.94"/><circle cx="297.00" cy="513.00" r="1.86"/><circle cx="315.00" cy="513.00" r="1.99"/><circle cx="333.00" cy="513.00" r="1.68"/><circle cx="351.00" cy="513.00" r="1.00"/><circle cx="369.00" cy="513.00" r="0.57"/><circle cx="387.00" cy="513.00" r="0.64"/><circle cx="405.00" cy="513.00" r="1.25"/><circle cx="423.00" cy="513.00" r="2.11"/><circle cx="441.00" cy="513.00" r="2.63"/><circle cx="459.00" cy="513.00" r="2.81"/><circle cx="477.00" cy="513.00" r="3.15"/><circle cx="495.00" cy="513.00" r="3.75"/><circle cx="513.00" cy="513.00" r="3.86"/><circle cx="531.00" cy="513.00" r="2.81"/><circle cx="549.00" cy="513.00" r="1.35"/><circle cx="567.00" cy="513.00" r="0.61"/><circle cx="585.00" cy="513.00" r="0.68"/><circle cx="603.00" cy="513.00" r="1.29"/><circle cx="621.00" cy="513.00" r="1.61"/><circle cx="639.00" cy="513.00" r="0.98"/><circle cx="693.00" cy="513.00" r="1.07"/><circle cx="711.00" cy="513.00" r="3.12"/><circle cx="729.00" cy="513.00" r="4.19"/><circle cx="747.00" cy="513.00" r="2.52"/><circle cx="855.00" cy="513.00" r="1.04"/><circle cx="9.00" cy="531.00" r="2.85"/><circle cx="27.00" cy="531.00" r="3.64"/><circle cx="45.00" cy="531.00" r="4.36"/><circle cx="63.00" cy="531.00" r="4.17"/><circle cx="81.00" cy="531.00" r="3.01"/><circle cx="99.00" cy="531.00" r="1.89"/><circle cx="117.00" cy="531.00" r="1.60"/><circle cx="135.00" cy="531.00" r="2.40"/><circle cx="153.00" cy="531.00" r="4.36"/><circle cx="171.00" cy="531.00" r="6.73"/><circle cx="189.00" cy="531.00" r="7.99"/><circle cx="207.00" cy="531.00" r="7.23"/><circle cx="225.00" cy="531.00" r="5.05"/><circle cx="243.00" cy="531.00" r="2.86"/><circle cx="261.00" cy="531.00" r="1.54"/><circle cx="279.00" cy="531.00" r="1.06"/><circle cx="297.00" cy="531.00" r="1.00"/><circle cx="315.00" cy="531.00" r="0.97"/><circle cx="333.00" cy="531.00" r="0.80"/><circle cx="351.00" cy="531.00" r="0.63"/><circle cx="369.00" cy="531.00" r="0.72"/><circle cx="387.00" cy="531.00" r="1.21"/><circle cx="405.00" cy="531.00" r="2.00"/><circle cx="423.00" cy="531.00" r="2.67"/><circle cx="441.00" cy="531.00" r="3.05"/><circle cx="459.00" cy="531.00" r="3.46"/><circle cx="477.00" cy="531.00" r="4.09"/><circle cx="495.00" cy="531.00" r="4.39"/><circle cx="513.00" cy="531.00" r="3.54"/><circle cx="531.00" cy="531.00" r="1.91"/><circle cx="549.00" cy="531.00" r="0.76"/><circle cx="585.00" cy="531.00" r="0.94"/><circle cx="603.00" cy="531.00" r="1.48"/><circle cx="621.00" cy="531.00" r="1.25"/><circle cx="675.00" cy="531.00" r="0.73"/><circle cx="693.00" cy="531.00" r="2.37"/><circle cx="711.00" cy="531.00" r="3.77"/><circle cx="729.00" cy="531.00" r="2.61"/><circle cx="837.00" cy="531.00" r="1.52"/><circle cx="855.00" cy="531.00" r="2.28"/><circle cx="9.00" cy="549.00" r="4.01"/><circle cx="27.00" cy="549.00" r="4.50"/><circle cx="45.00" cy="549.00" r="4.47"/><circle cx="63.00" cy="549.00" r="3.54"/><circle cx="81.00" cy="549.00" r="2.44"/><circle cx="99.00" cy="549.00" r="2.05"/><circle cx="117.00" cy="549.00" r="2.75"/><circle cx="135.00" cy="549.00" r="4.45"/><circle cx="153.00" cy="549.00" r="6.29"/><circle cx="171.00" cy="549.00" r="7.01"/><circle cx="189.00" cy="549.00" r="6.17"/><circle cx="207.00" cy="549.00" r="4.40"/><circle cx="225.00" cy="549.00" r="2.60"/><circle cx="243.00" cy="549.00" r="1.33"/><circle cx="261.00" cy="549.00" r="0.70"/><circle cx="315.00" cy="549.00" r="0.67"/><circle cx="333.00" cy="549.00" r="0.81"/><circle cx="351.00" cy="549.00" r="1.03"/><circle cx="369.00" cy="549.00" r="1.43"/><circle cx="387.00" cy="549.00" r="2.02"/><circle cx="405.00" cy="549.00" r="2.64"/><circle cx="423.00" cy="549.00" r="3.15"/><circle cx="441.00" cy="549.00" r="3.66"/><circle cx="459.00" cy="549.00" r="4.28"/><circle cx="477.00" cy="549.00" r="4.64"/><circle cx="495.00" cy="549.00" r="3.99"/><circle cx="513.00" cy="549.00" r="2.36"/><circle cx="531.00" cy="549.00" r="0.94"/><circle cx="567.00" cy="549.00" r="0.63"/><circle cx="585.00" cy="549.00" r="1.23"/><circle cx="603.00" cy="549.00" r="1.46"/><circle cx="621.00" cy="549.00" r="0.91"/><circle cx="675.00" cy="549.00" r="1.54"/><circle cx="693.00" cy="549.00" r="2.83"/><circle cx="711.00" cy="549.00" r="2.35"/><circle cx="819.00" cy="549.00" r="2.07"/><circle cx="837.00" cy="549.00" r="3.25"/><circle cx="855.00" cy="549.00" r="3.65"/><circle cx="9.00" cy="567.00" r="4.65"/><circle cx="27.00" cy="567.00" r="4.62"/><circle cx="45.00" cy="567.00" r="3.92"/><circle cx="63.00" cy="567.00" r="2.88"/><circle cx="81.00" cy="567.00" r="2.35"/><circle cx="99.00" cy="567.00" r="2.80"/><circle cx="117.00" cy="567.00" r="4.15"/><circle cx="135.00" cy="567.00" r="5.52"/><circle cx="153.00" cy="567.00" r="5.81"/><circle cx="171.00" cy="567.00" r="4.88"/><circle cx="189.00" cy="567.00" r="3.49"/><circle cx="207.00" cy="567.00" r="2.25"/><circle cx="225.00" cy="567.00" r="1.30"/><circle cx="243.00" cy="567.00" r="0.68"/><circle cx="297.00" cy="567.00" r="0.60"/><circle cx="315.00" cy="567.00" r="1.03"/><circle cx="333.00" cy="567.00" r="1.49"/><circle cx="351.00" cy="567.00" r="1.85"/><circle cx="369.00" cy="567.00" r="2.16"/><circle cx="387.00" cy="567.00" r="2.53"/><circle cx="405.00" cy="567.00" r="2.99"/><circle cx="423.00" cy="567.00" r="3.57"/><circle cx="441.00" cy="567.00" r="4.22"/><circle cx="459.00" cy="567.00" r="4.59"/><circle cx="477.00" cy="567.00" r="4.10"/><circle cx="495.00" cy="567.00" r="2.65"/><circle cx="513.00" cy="567.00" r="1.15"/><circle cx="567.00" cy="567.00" r="0.97"/><circle cx="585.00" cy="567.00" r="1.55"/><circle cx="603.00" cy="567.00" r="1.36"/><circle cx="621.00" cy="567.00" r="0.73"/><circle cx="657.00" cy="567.00" r="0.87"/><circle cx="675.00" cy="567.00" r="1.71"/><circle cx="693.00" cy="567.00" r="1.75"/><circle cx="801.00" cy="567.00" r="2.56"/><circle cx="819.00" cy="567.00" r="4.34"/><circle cx="837.00" cy="567.00" r="4.71"/><circle cx="855.00" cy="567.00" r="4.57"/><circle cx="9.00" cy="585.00" r="4.55"/><circle cx="27.00" cy="585.00" r="4.01"/><circle cx="45.00" cy="585.00" r="3.09"/><circle cx="63.00" cy="585.00" r="2.43"/><circle cx="81.00" cy="585.00" r="2.56"/><circle cx="99.00" cy="585.00" r="3.50"/><circle cx="117.00" cy="585.00" r="4.55"/><circle cx="135.00" cy="585.00" r="4.68"/><circle cx="153.00" cy="585.00" r="3.80"/><circle cx="171.00" cy="585.00" r="2.72"/><circle cx="189.00" cy="585.00" r="1.96"/><circle cx="207.00" cy="585.00" r="1.44"/><circle cx="225.00" cy="585.00" r="0.94"/><circle cx="279.00" cy="585.00" r="0.60"/><circle cx="297.00" cy="585.00" r="1.19"/><circle cx="315.00" cy="585.00" r="1.92"/><circle cx="333.00" cy="585.00" r="2.33"/><circle cx="351.00" cy="585.00" r="2.35"/><circle cx="369.00" cy="585.00" r="2.33"/><circle cx="387.00" cy="585.00" r="2.57"/><circle cx="405.00" cy="585.00" r="3.14"/><circle cx="423.00" cy="585.00" r="3.85"/><circle cx="441.00" cy="585.00" r="4.28"/><circle cx="459.00" cy="585.00" r="3.96"/><circle cx="477.00" cy="585.00" r="2.80"/><circle cx="495.00" cy="585.00" r="1.41"/><circle cx="513.00" cy="585.00" r="0.57"/><circle cx="549.00" cy="585.00" r="0.80"/><circle cx="567.00" cy="585.00" r="1.51"/><circle cx="585.00" cy="585.00" r="1.73"/><circle cx="603.00" cy="585.00" r="1.16"/><circle cx="621.00" cy="585.00" r="0.56"/><circle cx="657.00" cy="585.00" r="0.77"/><circle cx="675.00" cy="585.00" r="1.01"/><circle cx="783.00" cy="585.00" r="2.86"/><circle cx="801.00" cy="585.00" r="5.24"/><circle cx="819.00" cy="585.00" r="5.81"/><circle cx="837.00" cy="585.00" r="5.24"/><circle cx="855.00" cy="585.00" r="4.77"/><circle cx="9.00" cy="603.00" r="3.78"/><circle cx="27.00" cy="603.00" r="3.02"/><circle cx="45.00" cy="603.00" r="2.30"/><circle cx="63.00" cy="603.00" r="2.15"/><circle cx="81.00" cy="603.00" r="2.71"/><circle cx="99.00" cy="603.00" r="3.54"/><circle cx="117.00" cy="603.00" r="3.77"/><circle cx="135.00" cy="603.00" r="3.14"/><circle cx="153.00" cy="603.00" r="2.32"/><circle cx="171.00" cy="603.00" r="1.88"/><circle cx="189.00" cy="603.00" r="1.72"/><circle cx="207.00" cy="603.00" r="1.47"/><circle cx="225.00" cy="603.00" r="0.99"/><circle cx="243.00" cy="603.00" r="0.62"/><circle cx="261.00" cy="603.00" r="0.66"/><circle cx="279.00" cy="603.00" r="1.21"/><circle cx="297.00" cy="603.00" r="2.09"/><circle cx="315.00" cy="603.00" r="2.63"/><circle cx="333.00" cy="603.00" r="2.47"/><circle cx="351.00" cy="603.00" r="2.07"/><circle cx="369.00" cy="603.00" r="2.01"/><circle cx="387.00" cy="603.00" r="2.46"/><circle cx="405.00" cy="603.00" r="3.23"/><circle cx="423.00" cy="603.00" r="3.81"/><circle cx="441.00" cy="603.00" r="3.73"/><circle cx="459.00" cy="603.00" r="2.90"/><circle cx="477.00" cy="603.00" r="1.74"/><circle cx="495.00" cy="603.00" r="0.87"/><circle cx="513.00" cy="603.00" r="0.56"/><circle cx="531.00" cy="603.00" r="0.77"/><circle cx="549.00" cy="603.00" r="1.41"/><circle cx="567.00" cy="603.00" r="1.88"/><circle cx="585.00" cy="603.00" r="1.53"/><circle cx="603.00" cy="603.00" r="0.73"/><circle cx="747.00" cy="603.00" r="0.64"/><circle cx="765.00" cy="603.00" r="2.91"/><circle cx="783.00" cy="603.00" r="5.59"/><circle cx="801.00" cy="603.00" r="6.56"/><circle cx="819.00" cy="603.00" r="5.84"/><circle cx="837.00" cy="603.00" r="4.86"/><circle cx="855.00" cy="603.00" r="4.29"/><circle cx="9.00" cy="621.00" r="2.70"/><circle cx="27.00" cy="621.00" r="2.04"/><circle cx="45.00" cy="621.00" r="1.73"/><circle cx="63.00" cy="621.00" r="1.99"/><circle cx="81.00" cy="621.00" r="2.68"/><circle cx="99.00" cy="621.00" r="3.15"/><circle cx="117.00" cy="621.00" r="2.93"/><circle cx="135.00" cy="621.00" r="2.37"/><circle cx="153.00" cy="621.00" r="2.08"/><circle cx="171.00" cy="621.00" r="2.15"/><circle cx="189.00" cy="621.00" r="2.14"/><circle cx="207.00" cy="621.00" r="1.67"/><circle cx="225.00" cy="621.00" r="1.04"/><circle cx="243.00" cy="621.00" r="0.78"/><circle cx="261.00" cy="621.00" r="1.09"/><circle cx="279.00" cy="621.00" r="1.89"/><circle cx="297.00" cy="621.00" r="2.54"/><circle cx="315.00" cy="621.00" r="2.39"/><circle cx="333.00" cy="621.00" r="1.78"/><circle cx="351.00" cy="621.00" r="1.46"/><circle cx="369.00" cy="621.00" r="1.73"/><circle cx="387.00" cy="621.00" r="2.50"/><circle cx="405.00" cy="621.00" r="3.29"/><circle cx="423.00" cy="621.00" r="3.53"/><circle cx="441.00" cy="621.00" r="3.07"/><circle cx="459.00" cy="621.00" r="2.20"/><circle cx="477.00" cy="621.00" r="1.38"/><circle cx="495.00" cy="621.00" r="0.92"/><circle cx="513.00" cy="621.00" r="0.90"/><circle cx="531.00" cy="621.00" r="1.29"/><circle cx="549.00" cy="621.00" r="1.78"/><circle cx="567.00" cy="621.00" r="1.69"/><circle cx="585.00" cy="621.00" r="0.90"/><circle cx="729.00" cy="621.00" r="0.99"/><circle cx="747.00" cy="621.00" r="2.77"/><circle cx="765.00" cy="621.00" r="5.22"/><circle cx="783.00" cy="621.00" r="6.58"/><circle cx="801.00" cy="621.00" r="6.12"/><circle cx="819.00" cy="621.00" r="4.90"/><circle cx="837.00" cy="621.00" r="3.95"/><circle cx="855.00" cy="621.00" r="3.34"/><circle cx="9.00" cy="639.00" r="1.74"/><circle cx="27.00" cy="639.00" r="1.40"/><circle cx="45.00" cy="639.00" r="1.49"/><circle cx="63.00" cy="639.00" r="2.07"/><circle cx="81.00" cy="639.00" r="2.79"/><circle cx="99.00" cy="639.00" r="3.09"/><circle cx="117.00" cy="639.00" r="2.87"/><circle cx="135.00" cy="639.00" r="2.63"/><circle cx="153.00" cy="639.00" r="2.69"/><circle cx="171.00" cy="639.00" r="2.76"/><circle cx="189.00" cy="639.00" r="2.34"/><circle cx="207.00" cy="639.00" r="1.51"/><circle cx="225.00" cy="639.00" r="0.91"/><circle cx="243.00" cy="639.00" r="0.89"/><circle cx="261.00" cy="639.00" r="1.41"/><circle cx="279.00" cy="639.00" r="2.05"/><circle cx="297.00" cy="639.00" r="2.06"/><circle cx="315.00" cy="639.00" r="1.48"/><circle cx="333.00" cy="639.00" r="1.03"/><circle cx="351.00" cy="639.00" r="1.13"/><circle cx="369.00" cy="639.00" r="1.83"/><circle cx="387.00" cy="639.00" r="2.82"/><circle cx="405.00" cy="639.00" r="3.45"/><circle cx="423.00" cy="639.00" r="3.39"/><circle cx="441.00" cy="639.00" r="2.84"/><circle cx="459.00" cy="639.00" r="2.14"/><circle cx="477.00" cy="639.00" r="1.53"/><circle cx="495.00" cy="639.00" r="1.20"/><circle cx="513.00" cy="639.00" r="1.22"/><circle cx="531.00" cy="639.00" r="1.48"/><circle cx="549.00" cy="639.00" r="1.53"/><circle cx="567.00" cy="639.00" r="0.99"/><circle cx="657.00" cy="639.00" r="0.70"/><circle cx="675.00" cy="639.00" r="1.18"/><circle cx="693.00" cy="639.00" r="1.31"/><circle cx="711.00" cy="639.00" r="1.56"/><circle cx="729.00" cy="639.00" r="2.52"/><circle cx="747.00" cy="639.00" r="4.24"/><circle cx="765.00" cy="639.00" r="5.74"/><circle cx="783.00" cy="639.00" r="5.89"/><circle cx="801.00" cy="639.00" r="4.86"/><circle cx="819.00" cy="639.00" r="3.70"/><circle cx="837.00" cy="639.00" r="2.89"/><circle cx="855.00" cy="639.00" r="2.29"/><circle cx="9.00" cy="657.00" r="1.21"/><circle cx="27.00" cy="657.00" r="1.24"/><circle cx="45.00" cy="657.00" r="1.74"/><circle cx="63.00" cy="657.00" r="2.66"/><circle cx="81.00" cy="657.00" r="3.50"/><circle cx="99.00" cy="657.00" r="3.75"/><circle cx="117.00" cy="657.00" r="3.53"/><circle cx="135.00" cy="657.00" r="3.29"/><circle cx="153.00" cy="657.00" r="3.12"/><circle cx="171.00" cy="657.00" r="2.66"/><circle cx="189.00" cy="657.00" r="1.80"/><circle cx="207.00" cy="657.00" r="1.01"/><circle cx="225.00" cy="657.00" r="0.70"/><circle cx="243.00" cy="657.00" r="0.90"/><circle cx="261.00" cy="657.00" r="1.36"/><circle cx="279.00" cy="657.00" r="1.53"/><circle cx="297.00" cy="657.00" r="1.17"/><circle cx="315.00" cy="657.00" r="0.77"/><circle cx="333.00" cy="657.00" r="0.78"/><circle cx="351.00" cy="657.00" r="1.37"/><circle cx="369.00" cy="657.00" r="2.48"/><circle cx="387.00" cy="657.00" r="3.50"/><circle cx="405.00" cy="657.00" r="3.89"/><circle cx="423.00" cy="657.00" r="3.68"/><circle cx="441.00" cy="657.00" r="3.11"/><circle cx="459.00" cy="657.00" r="2.37"/><circle cx="477.00" cy="657.00" r="1.65"/><circle cx="495.00" cy="657.00" r="1.20"/><circle cx="513.00" cy="657.00" r="1.10"/><circle cx="531.00" cy="657.00" r="1.15"/><circle cx="549.00" cy="657.00" r="0.91"/><circle cx="639.00" cy="657.00" r="0.88"/><circle cx="657.00" cy="657.00" r="2.12"/><circle cx="675.00" cy="657.00" r="2.61"/><circle cx="693.00" cy="657.00" r="2.35"/><circle cx="711.00" cy="657.00" r="2.28"/><circle cx="729.00" cy="657.00" r="3.00"/><circle cx="747.00" cy="657.00" r="4.28"/><circle cx="765.00" cy="657.00" r="5.10"/><circle cx="783.00" cy="657.00" r="4.73"/><circle cx="801.00" cy="657.00" r="3.63"/><circle cx="819.00" cy="657.00" r="2.62"/><circle cx="837.00" cy="657.00" r="1.95"/><circle cx="855.00" cy="657.00" r="1.50"/><circle cx="9.00" cy="675.00" r="1.20"/><circle cx="27.00" cy="675.00" r="1.66"/><circle cx="45.00" cy="675.00" r="2.68"/><circle cx="63.00" cy="675.00" r="3.98"/><circle cx="81.00" cy="675.00" r="4.78"/><circle cx="99.00" cy="675.00" r="4.62"/><circle cx="117.00" cy="675.00" r="3.89"/><circle cx="135.00" cy="675.00" r="3.13"/><circle cx="153.00" cy="675.00" r="2.45"/><circle cx="171.00" cy="675.00" r="1.71"/><circle cx="189.00" cy="675.00" r="0.99"/><circle cx="207.00" cy="675.00" r="0.58"/><circle cx="243.00" cy="675.00" r="0.75"/><circle cx="261.00" cy="675.00" r="0.95"/><circle cx="279.00" cy="675.00" r="0.86"/><circle cx="297.00" cy="675.00" r="0.63"/><circle cx="315.00" cy="675.00" r="0.65"/><circle cx="333.00" cy="675.00" r="1.17"/><circle cx="351.00" cy="675.00" r="2.32"/><circle cx="369.00" cy="675.00" r="3.68"/><circle cx="387.00" cy="675.00" r="4.54"/><circle cx="405.00" cy="675.00" r="4.67"/><circle cx="423.00" cy="675.00" r="4.22"/><circle cx="441.00" cy="675.00" r="3.32"/><circle cx="459.00" cy="675.00" r="2.17"/><circle cx="477.00" cy="675.00" r="1.22"/><circle cx="495.00" cy="675.00" r="0.75"/><circle cx="513.00" cy="675.00" r="0.69"/><circle cx="531.00" cy="675.00" r="0.69"/><circle cx="621.00" cy="675.00" r="0.94"/><circle cx="639.00" cy="675.00" r="2.76"/><circle cx="657.00" cy="675.00" r="3.82"/><circle cx="675.00" cy="675.00" r="3.19"/><circle cx="693.00" cy="675.00" r="2.13"/><circle cx="711.00" cy="675.00" r="1.88"/><circle cx="729.00" cy="675.00" r="2.66"/><circle cx="747.00" cy="675.00" r="3.93"/><circle cx="765.00" cy="675.00" r="4.49"/><circle cx="783.00" cy="675.00" r="3.82"/><circle cx="801.00" cy="675.00" r="2.67"/><circle cx="819.00" cy="675.00" r="1.81"/><circle cx="837.00" cy="675.00" r="1.35"/><circle cx="855.00" cy="675.00" r="1.15"/><circle cx="9.00" cy="693.00" r="1.75"/><circle cx="27.00" cy="693.00" r="2.77"/><circle cx="45.00" cy="693.00" r="4.31"/><circle cx="63.00" cy="693.00" r="5.59"/><circle cx="81.00" cy="693.00" r="5.60"/><circle cx="99.00" cy="693.00" r="4.36"/><circle cx="117.00" cy="693.00" r="2.87"/><circle cx="135.00" cy="693.00" r="1.84"/><circle cx="153.00" cy="693.00" r="1.25"/><circle cx="171.00" cy="693.00" r="0.84"/><circle cx="261.00" cy="693.00" r="0.57"/><circle cx="279.00" cy="693.00" r="0.57"/><circle cx="297.00" cy="693.00" r="0.69"/><circle cx="315.00" cy="693.00" r="1.23"/><circle cx="333.00" cy="693.00" r="2.41"/><circle cx="351.00" cy="693.00" r="3.98"/><circle cx="369.00" cy="693.00" r="5.23"/><circle cx="387.00" cy="693.00" r="5.68"/><circle cx="405.00" cy="693.00" r="5.30"/><circle cx="423.00" cy="693.00" r="4.20"/><circle cx="441.00" cy="693.00" r="2.64"/><circle cx="459.00" cy="693.00" r="1.23"/><circle cx="603.00" cy="693.00" r="0.92"/><circle cx="621.00" cy="693.00" r="2.89"/><circle cx="639.00" cy="693.00" r="4.47"/><circle cx="657.00" cy="693.00" r="3.85"/><circle cx="675.00" cy="693.00" r="2.07"/><circle cx="693.00" cy="693.00" r="1.11"/><circle cx="711.00" cy="693.00" r="1.36"/><circle cx="729.00" cy="693.00" r="2.70"/><circle cx="747.00" cy="693.00" r="4.14"/><circle cx="765.00" cy="693.00" r="4.25"/><circle cx="783.00" cy="693.00" r="3.12"/><circle cx="801.00" cy="693.00" r="1.95"/><circle cx="819.00" cy="693.00" r="1.35"/><circle cx="837.00" cy="693.00" r="1.19"/><circle cx="855.00" cy="693.00" r="1.30"/><circle cx="9.00" cy="711.00" r="2.82"/><circle cx="27.00" cy="711.00" r="4.33"/><circle cx="45.00" cy="711.00" r="5.86"/><circle cx="63.00" cy="711.00" r="6.12"/><circle cx="81.00" cy="711.00" r="4.60"/><circle cx="99.00" cy="711.00" r="2.51"/><circle cx="117.00" cy="711.00" r="1.15"/><circle cx="135.00" cy="711.00" r="0.67"/><circle cx="153.00" cy="711.00" r="0.60"/><circle cx="171.00" cy="711.00" r="0.58"/><circle cx="279.00" cy="711.00" r="0.86"/><circle cx="297.00" cy="711.00" r="1.55"/><circle cx="315.00" cy="711.00" r="2.77"/><circle cx="333.00" cy="711.00" r="4.38"/><circle cx="351.00" cy="711.00" r="5.83"/><circle cx="369.00" cy="711.00" r="6.51"/><circle cx="387.00" cy="711.00" r="6.16"/><circle cx="405.00" cy="711.00" r="4.85"/><circle cx="423.00" cy="711.00" r="2.95"/><circle cx="441.00" cy="711.00" r="1.21"/><circle cx="585.00" cy="711.00" r="0.90"/><circle cx="603.00" cy="711.00" r="2.60"/><circle cx="621.00" cy="711.00" r="4.39"/><circle cx="639.00" cy="711.00" r="4.10"/><circle cx="657.00" cy="711.00" r="2.09"/><circle cx="675.00" cy="711.00" r="0.71"/><circle cx="693.00" cy="711.00" r="0.60"/><circle cx="711.00" cy="711.00" r="1.70"/><circle cx="729.00" cy="711.00" r="3.75"/><circle cx="747.00" cy="711.00" r="4.85"/><circle cx="765.00" cy="711.00" r="3.98"/><circle cx="783.00" cy="711.00" r="2.43"/><circle cx="801.00" cy="711.00" r="1.49"/><circle cx="819.00" cy="711.00" r="1.27"/><circle cx="837.00" cy="711.00" r="1.45"/><circle cx="855.00" cy="711.00" r="1.91"/><circle cx="9.00" cy="729.00" r="3.97"/><circle cx="27.00" cy="729.00" r="5.44"/><circle cx="45.00" cy="729.00" r="5.97"/><circle cx="63.00" cy="729.00" r="4.56"/><circle cx="81.00" cy="729.00" r="2.19"/><circle cx="99.00" cy="729.00" r="0.65"/><circle cx="153.00" cy="729.00" r="0.68"/><circle cx="171.00" cy="729.00" r="0.75"/><circle cx="261.00" cy="729.00" r="1.05"/><circle cx="279.00" cy="729.00" r="2.07"/><circle cx="297.00" cy="729.00" r="3.40"/><circle cx="315.00" cy="729.00" r="4.89"/><circle cx="333.00" cy="729.00" r="6.23"/><circle cx="351.00" cy="729.00" r="6.94"/><circle cx="369.00" cy="729.00" r="6.61"/><circle cx="387.00" cy="729.00" r="5.17"/><circle cx="405.00" cy="729.00" r="3.06"/><circle cx="423.00" cy="729.00" r="1.16"/><circle cx="513.00" cy="729.00" r="0.77"/><circle cx="531.00" cy="729.00" r="0.78"/><circle cx="549.00" cy="729.00" r="0.65"/><circle cx="567.00" cy="729.00" r="0.95"/><circle cx="585.00" cy="729.00" r="2.14"/><circle cx="603.00" cy="729.00" r="3.74"/><circle cx="621.00" cy="729.00" r="3.87"/><circle cx="639.00" cy="729.00" r="2.12"/><circle cx="657.00" cy="729.00" r="0.60"/><circle cx="693.00" cy="729.00" r="1.08"/><circle cx="711.00" cy="729.00" r="3.37"/><circle cx="729.00" cy="729.00" r="5.47"/><circle cx="747.00" cy="729.00" r="5.15"/><circle cx="765.00" cy="729.00" r="3.24"/><circle cx="783.00" cy="729.00" r="1.78"/><circle cx="801.00" cy="729.00" r="1.32"/><circle cx="819.00" cy="729.00" r="1.50"/><circle cx="837.00" cy="729.00" r="1.99"/><circle cx="855.00" cy="729.00" r="2.75"/><circle cx="9.00" cy="747.00" r="4.50"/><circle cx="27.00" cy="747.00" r="5.21"/><circle cx="45.00" cy="747.00" r="4.26"/><circle cx="63.00" cy="747.00" r="2.02"/><circle cx="135.00" cy="747.00" r="0.83"/><circle cx="153.00" cy="747.00" r="1.32"/><circle cx="171.00" cy="747.00" r="0.93"/><circle cx="243.00" cy="747.00" r="1.11"/><circle cx="261.00" cy="747.00" r="2.64"/><circle cx="279.00" cy="747.00" r="4.25"/><circle cx="297.00" cy="747.00" r="5.52"/><circle cx="315.00" cy="747.00" r="6.42"/><circle cx="333.00" cy="747.00" r="6.88"/><circle cx="351.00" cy="747.00" r="6.52"/><circle cx="369.00" cy="747.00" r="5.11"/><circle cx="387.00" cy="747.00" r="2.99"/><circle cx="405.00" cy="747.00" r="1.08"/><circle cx="495.00" cy="747.00" r="0.93"/><circle cx="513.00" cy="747.00" r="1.23"/><circle cx="531.00" cy="747.00" r="1.09"/><circle cx="549.00" cy="747.00" r="1.10"/><circle cx="567.00" cy="747.00" r="1.75"/><circle cx="585.00" cy="747.00" r="2.90"/><circle cx="603.00" cy="747.00" r="3.31"/><circle cx="621.00" cy="747.00" r="2.12"/><circle cx="639.00" cy="747.00" r="0.68"/><circle cx="675.00" cy="747.00" r="0.82"/><circle cx="693.00" cy="747.00" r="3.10"/><circle cx="711.00" cy="747.00" r="5.94"/><circle cx="729.00" cy="747.00" r="6.35"/><circle cx="747.00" cy="747.00" r="4.24"/><circle cx="765.00" cy="747.00" r="2.16"/><circle cx="783.00" cy="747.00" r="1.31"/><circle cx="801.00" cy="747.00" r="1.37"/><circle cx="819.00" cy="747.00" r="1.85"/><circle cx="837.00" cy="747.00" r="2.46"/><circle cx="855.00" cy="747.00" r="3.33"/><circle cx="9.00" cy="765.00" r="4.16"/><circle cx="27.00" cy="765.00" r="3.82"/><circle cx="45.00" cy="765.00" r="2.07"/><circle cx="117.00" cy="765.00" r="1.00"/><circle cx="135.00" cy="765.00" r="2.09"/><circle cx="153.00" cy="765.00" r="1.79"/><circle cx="171.00" cy="765.00" r="0.61"/><circle cx="225.00" cy="765.00" r="0.96"/><circle cx="243.00" cy="765.00" r="3.01"/><circle cx="261.00" cy="765.00" r="5.14"/><circle cx="279.00" cy="765.00" r="6.25"/><circle cx="297.00" cy="765.00" r="6.49"/><circle cx="315.00" cy="765.00" r="6.39"/><circle cx="333.00" cy="765.00" r="5.92"/><circle cx="351.00" cy="765.00" r="4.69"/><circle cx="369.00" cy="765.00" r="2.79"/><circle cx="387.00" cy="765.00" r="1.02"/><circle cx="477.00" cy="765.00" r="0.99"/><circle cx="495.00" cy="765.00" r="1.54"/><circle cx="513.00" cy="765.00" r="1.52"/><circle cx="531.00" cy="765.00" r="1.34"/><circle cx="549.00" cy="765.00" r="1.54"/><circle cx="567.00" cy="765.00" r="2.22"/><circle cx="585.00" cy="765.00" r="2.67"/><circle cx="603.00" cy="765.00" r="2.06"/><circle cx="621.00" cy="765.00" r="0.92"/><circle cx="657.00" cy="765.00" r="0.87"/><circle cx="675.00" cy="765.00" r="2.97"/><circle cx="693.00" cy="765.00" r="6.10"/><circle cx="711.00" cy="765.00" r="7.18"/><circle cx="729.00" cy="765.00" r="5.14"/><circle cx="747.00" cy="765.00" r="2.51"/><circle cx="765.00" cy="765.00" r="1.21"/><circle cx="783.00" cy="765.00" r="1.06"/><circle cx="801.00" cy="765.00" r="1.46"/><circle cx="819.00" cy="765.00" r="1.99"/><circle cx="837.00" cy="765.00" r="2.56"/><circle cx="855.00" cy="765.00" r="3.38"/><circle cx="9.00" cy="783.00" r="3.40"/><circle cx="27.00" cy="783.00" r="2.34"/><circle cx="45.00" cy="783.00" r="0.79"/><circle cx="99.00" cy="783.00" r="1.18"/><circle cx="117.00" cy="783.00" r="2.81"/><circle cx="135.00" cy="783.00" r="2.87"/><circle cx="153.00" cy="783.00" r="1.19"/><circle cx="207.00" cy="783.00" r="0.63"/><circle cx="225.00" cy="783.00" r="2.96"/><circle cx="243.00" cy="783.00" r="5.81"/><circle cx="261.00" cy="783.00" r="7.01"/><circle cx="279.00" cy="783.00" r="6.55"/><circle cx="297.00" cy="783.00" r="5.69"/><circle cx="315.00" cy="783.00" r="4.97"/><circle cx="333.00" cy="783.00" r="4.00"/><circle cx="351.00" cy="783.00" r="2.52"/><circle cx="369.00" cy="783.00" r="1.01"/><circle cx="459.00" cy="783.00" r="0.99"/><circle cx="477.00" cy="783.00" r="1.65"/><circle cx="495.00" cy="783.00" r="1.80"/><circle cx="513.00" cy="783.00" r="1.62"/><circle cx="531.00" cy="783.00" r="1.57"/><circle cx="549.00" cy="783.00" r="1.86"/><circle cx="567.00" cy="783.00" r="2.18"/><circle cx="585.00" cy="783.00" r="1.96"/><circle cx="603.00" cy="783.00" r="1.23"/><circle cx="621.00" cy="783.00" r="0.77"/><circle cx="639.00" cy="783.00" r="1.15"/><circle cx="657.00" cy="783.00" r="2.98"/><circle cx="675.00" cy="783.00" r="5.92"/><circle cx="693.00" cy="783.00" r="7.33"/><circle cx="711.00" cy="783.00" r="5.58"/><circle cx="729.00" cy="783.00" r="2.69"/><circle cx="747.00" cy="783.00" r="1.03"/><circle cx="765.00" cy="783.00" r="0.67"/><circle cx="783.00" cy="783.00" r="0.93"/><circle cx="801.00" cy="783.00" r="1.41"/><circle cx="819.00" cy="783.00" r="1.84"/><circle cx="837.00" cy="783.00" r="2.41"/><circle cx="855.00" cy="783.00" r="3.16"/><circle cx="9.00" cy="801.00" r="2.84"/><circle cx="27.00" cy="801.00" r="1.54"/><circle cx="81.00" cy="801.00" r="1.35"/><circle cx="99.00" cy="801.00" r="3.21"/><circle cx="117.00" cy="801.00" r="3.75"/><circle cx="135.00" cy="801.00" r="1.90"/><circle cx="207.00" cy="801.00" r="2.48"/><circle cx="225.00" cy="801.00" r="6.01"/><circle cx="243.00" cy="801.00" r="7.68"/><circle cx="261.00" cy="801.00" r="6.71"/><circle cx="279.00" cy="801.00" r="5.03"/><circle cx="297.00" cy="801.00" r="3.92"/><circle cx="315.00" cy="801.00" r="3.18"/><circle cx="333.00" cy="801.00" r="2.22"/><circle cx="351.00" cy="801.00" r="1.06"/><circle cx="441.00" cy="801.00" r="0.98"/><circle cx="459.00" cy="801.00" r="1.60"/><circle cx="477.00" cy="801.00" r="1.90"/><circle cx="495.00" cy="801.00" r="1.88"/><circle cx="513.00" cy="801.00" r="1.81"/><circle cx="531.00" cy="801.00" r="1.87"/><circle cx="549.00" cy="801.00" r="1.98"/><circle cx="567.00" cy="801.00" r="1.87"/><circle cx="585.00" cy="801.00" r="1.49"/><circle cx="603.00" cy="801.00" r="1.22"/><circle cx="621.00" cy="801.00" r="1.59"/><circle cx="639.00" cy="801.00" r="3.07"/><circle cx="657.00" cy="801.00" r="5.44"/><circle cx="675.00" cy="801.00" r="6.74"/><circle cx="693.00" cy="801.00" r="5.34"/><circle cx="711.00" cy="801.00" r="2.58"/><circle cx="729.00" cy="801.00" r="0.81"/><circle cx="783.00" cy="801.00" r="0.86"/><circle cx="801.00" cy="801.00" r="1.29"/><circle cx="819.00" cy="801.00" r="1.76"/><circle cx="837.00" cy="801.00" r="2.47"/><circle cx="855.00" cy="801.00" r="3.13"/><circle cx="9.00" cy="819.00" r="2.72"/><circle cx="27.00" cy="819.00" r="1.45"/><circle cx="45.00" cy="819.00" r="0.94"/><circle cx="63.00" cy="819.00" r="1.52"/><circle cx="81.00" cy="819.00" r="3.14"/><circle cx="99.00" cy="819.00" r="4.02"/><circle cx="117.00" cy="819.00" r="2.46"/><circle cx="189.00" cy="819.00" r="1.77"/><circle cx="207.00" cy="819.00" r="5.65"/><circle cx="225.00" cy="819.00" r="8.05"/><circle cx="243.00" cy="819.00" r="6.98"/><circle cx="261.00" cy="819.00" r="4.59"/><circle cx="279.00" cy="819.00" r="3.02"/><circle cx="297.00" cy="819.00" r="2.37"/><circle cx="315.00" cy="819.00" r="1.91"/><circle cx="333.00" cy="819.00" r="1.19"/><circle cx="423.00" cy="819.00" r="0.99"/><circle cx="441.00" cy="819.00" r="1.48"/><circle cx="459.00" cy="819.00" r="1.83"/><circle cx="477.00" cy="819.00" r="2.07"/><circle cx="495.00" cy="819.00" r="2.20"/><circle cx="513.00" cy="819.00" r="2.22"/><circle cx="531.00" cy="819.00" r="2.09"/><circle cx="549.00" cy="819.00" r="1.86"/><circle cx="567.00" cy="819.00" r="1.61"/><circle cx="585.00" cy="819.00" r="1.55"/><circle cx="603.00" cy="819.00" r="1.97"/><circle cx="621.00" cy="819.00" r="3.13"/><circle cx="639.00" cy="819.00" r="4.77"/><circle cx="657.00" cy="819.00" r="5.63"/><circle cx="675.00" cy="819.00" r="4.49"/><circle cx="693.00" cy="819.00" r="2.18"/><circle cx="711.00" cy="819.00" r="0.57"/><circle cx="783.00" cy="819.00" r="0.95"/><circle cx="801.00" cy="819.00" r="1.46"/><circle cx="819.00" cy="819.00" r="2.19"/><circle cx="837.00" cy="819.00" r="3.13"/><circle cx="855.00" cy="819.00" r="3.53"/><circle cx="9.00" cy="837.00" r="2.81"/><circle cx="27.00" cy="837.00" r="1.73"/><circle cx="45.00" cy="837.00" r="1.69"/><circle cx="63.00" cy="837.00" r="2.66"/><circle cx="81.00" cy="837.00" r="3.54"/><circle cx="99.00" cy="837.00" r="2.59"/><circle cx="117.00" cy="837.00" r="0.66"/><circle cx="171.00" cy="837.00" r="1.12"/><circle cx="189.00" cy="837.00" r="4.82"/><circle cx="207.00" cy="837.00" r="7.95"/><circle cx="225.00" cy="837.00" r="7.27"/><circle cx="243.00" cy="837.00" r="4.45"/><circle cx="261.00" cy="837.00" r="2.41"/><circle cx="279.00" cy="837.00" r="1.72"/><circle cx="297.00" cy="837.00" r="1.60"/><circle cx="315.00" cy="837.00" r="1.35"/><circle cx="333.00" cy="837.00" r="0.85"/><circle cx="387.00" cy="837.00" r="0.67"/><circle cx="405.00" cy="837.00" r="1.03"/><circle cx="423.00" cy="837.00" r="1.36"/><circle cx="441.00" cy="837.00" r="1.70"/><circle cx="459.00" cy="837.00" r="2.15"/><circle cx="477.00" cy="837.00" r="2.65"/><circle cx="495.00" cy="837.00" r="2.83"/><circle cx="513.00" cy="837.00" r="2.52"/><circle cx="531.00" cy="837.00" r="1.95"/><circle cx="549.00" cy="837.00" r="1.54"/><circle cx="567.00" cy="837.00" r="1.55"/><circle cx="585.00" cy="837.00" r="2.04"/><circle cx="603.00" cy="837.00" r="3.00"/><circle cx="621.00" cy="837.00" r="4.05"/><circle cx="639.00" cy="837.00" r="4.37"/><circle cx="657.00" cy="837.00" r="3.36"/><circle cx="675.00" cy="837.00" r="1.61"/><circle cx="765.00" cy="837.00" r="0.81"/><circle cx="783.00" cy="837.00" r="1.47"/><circle cx="801.00" cy="837.00" r="2.31"/><circle cx="819.00" cy="837.00" r="3.42"/><circle cx="837.00" cy="837.00" r="4.34"/><circle cx="855.00" cy="837.00" r="4.11"/><circle cx="9.00" cy="855.00" r="2.64"/><circle cx="27.00" cy="855.00" r="1.84"/><circle cx="45.00" cy="855.00" r="2.01"/><circle cx="63.00" cy="855.00" r="2.57"/><circle cx="81.00" cy="855.00" r="2.25"/><circle cx="99.00" cy="855.00" r="0.87"/><circle cx="153.00" cy="855.00" r="0.70"/><circle cx="171.00" cy="855.00" r="3.80"/><circle cx="189.00" cy="855.00" r="7.31"/><circle cx="207.00" cy="855.00" r="7.38"/><circle cx="225.00" cy="855.00" r="4.56"/><circle cx="243.00" cy="855.00" r="2.15"/><circle cx="261.00" cy="855.00" r="1.29"/><circle cx="279.00" cy="855.00" r="1.33"/><circle cx="297.00" cy="855.00" r="1.50"/><circle cx="315.00" cy="855.00" r="1.30"/><circle cx="333.00" cy="855.00" r="0.92"/><circle cx="351.00" cy="855.00" r="0.75"/><circle cx="369.00" cy="855.00" r="0.86"/><circle cx="387.00" cy="855.00" r="1.09"/><circle cx="405.00" cy="855.00" r="1.30"/><circle cx="423.00" cy="855.00" r="1.58"/><circle cx="441.00" cy="855.00" r="2.16"/><circle cx="459.00" cy="855.00" r="3.02"/><circle cx="477.00" cy="855.00" r="3.55"/><circle cx="495.00" cy="855.00" r="3.15"/><circle cx="513.00" cy="855.00" r="2.14"/><circle cx="531.00" cy="855.00" r="1.36"/><circle cx="549.00" cy="855.00" r="1.21"/><circle cx="567.00" cy="855.00" r="1.69"/><circle cx="585.00" cy="855.00" r="2.59"/><circle cx="603.00" cy="855.00" r="3.33"/><circle cx="621.00" cy="855.00" r="3.29"/><circle cx="639.00" cy="855.00" r="2.34"/><circle cx="657.00" cy="855.00" r="1.06"/><circle cx="747.00" cy="855.00" r="0.85"/><circle cx="765.00" cy="855.00" r="1.75"/><circle cx="783.00" cy="855.00" r="2.77"/><circle cx="801.00" cy="855.00" r="3.99"/><circle cx="819.00" cy="855.00" r="5.13"/><circle cx="837.00" cy="855.00" r="5.35"/><circle cx="855.00" cy="855.00" r="4.21"/></g></svg>